STARTFONT 2.1
FONT -JDECW-Gothic-Medium-R-Normal--8-80-75-75-M-80-JISX0208.1983-1
SIZE 8 75 75
FONTBOUNDINGBOX 10 10 0 -2

STARTPROPERTIES 26
FONTNAME_REGISTRY ""
FAMILY_NAME "Gothic"
FOUNDRY "JDECW"
WEIGHT_NAME "Medium"
SLANT "R"
SETWIDTH_NAME "Normal"
ADD_STYLE_NAME ""
PIXEL_SIZE 8
POINT_SIZE 80
RESOLUTION_X 75
RESOLUTION_Y 75
SPACING "M"
AVERAGE_WIDTH 80
CHARSET_REGISTRY "JISX0208.1983"
CHARSET_ENCODING "1"
DEVICE_FONT_NAME "Gothic-JISX0208.1983-1"
CHARSET_COLLECTIONS "JISX0208.1983 1"
FULL_NAME "Gothic-JISX0208.1983-1"
COPYRIGHT "Copyright (c) 1990 1991 TYPEBANK, Digital Equipment Corporation Japan"
CAP_HEIGHT 7
X_HEIGHT 5
WEIGHT 10
QUAD_WIDTH 10
DEFAULT_CHAR 41634
FONT_DESCENT 2
FONT_ASCENT 8
ENDPROPERTIES

CHARS 6968

STARTCHAR Ca1a1
ENCODING 41377
SWIDTH 1000 0
DWIDTH 10 0
BBX 10 10 0 -2
BITMAP
0000
0000
0000
0000
0000
0000
0000
0000
0000
0000
ENDCHAR

STARTCHAR Ca1a2
ENCODING 41378
SWIDTH 1000 0
DWIDTH 10 0
BBX 10 10 0 -2
BITMAP
0000
0000
0000
0000
0000
0000
0000
4000
2000
0000
ENDCHAR

STARTCHAR Ca1a3
ENCODING 41379
SWIDTH 1000 0
DWIDTH 10 0
BBX 10 10 0 -2
BITMAP
0000
0000
0000
0000
0000
0000
2000
5000
2000
0000
ENDCHAR

STARTCHAR Ca1a4
ENCODING 41380
SWIDTH 1000 0
DWIDTH 10 0
BBX 10 10 0 -2
BITMAP
0000
0000
0000
0000
0000
0000
6000
2000
4000
0000
ENDCHAR

STARTCHAR Ca1a5
ENCODING 41381
SWIDTH 1000 0
DWIDTH 10 0
BBX 10 10 0 -2
BITMAP
0000
0000
0000
0000
0000
0000
0000
6000
0000
0000
ENDCHAR

STARTCHAR Ca1a6
ENCODING 41382
SWIDTH 1000 0
DWIDTH 10 0
BBX 10 10 0 -2
BITMAP
0000
0000
0000
0000
0C00
0000
0000
0000
0000
0000
ENDCHAR

STARTCHAR Ca1a7
ENCODING 41383
SWIDTH 1000 0
DWIDTH 10 0
BBX 10 10 0 -2
BITMAP
0000
0000
0000
0C00
0000
0000
0C00
0000
0000
0000
ENDCHAR

STARTCHAR Ca1a8
ENCODING 41384
SWIDTH 1000 0
DWIDTH 10 0
BBX 10 10 0 -2
BITMAP
0000
0000
0000
0C00
0000
0000
0C00
0400
0800
0000
ENDCHAR

STARTCHAR Ca1a9
ENCODING 41385
SWIDTH 1000 0
DWIDTH 10 0
BBX 10 10 0 -2
BITMAP
0000
1C00
2200
2200
0400
0800
0800
0000
0800
0000
ENDCHAR

STARTCHAR Ca1aa
ENCODING 41386
SWIDTH 1000 0
DWIDTH 10 0
BBX 10 10 0 -2
BITMAP
0000
0800
0800
0800
0800
0800
0000
0000
0800
0000
ENDCHAR

STARTCHAR Ca1ab
ENCODING 41387
SWIDTH 1000 0
DWIDTH 10 0
BBX 10 10 0 -2
BITMAP
0000
5000
2800
0000
0000
0000
0000
0000
0000
0000
ENDCHAR

STARTCHAR Ca1ac
ENCODING 41388
SWIDTH 1000 0
DWIDTH 10 0
BBX 10 10 0 -2
BITMAP
0000
2000
5000
2000
0000
0000
0000
0000
0000
0000
ENDCHAR

STARTCHAR Ca1ad
ENCODING 41389
SWIDTH 1000 0
DWIDTH 10 0
BBX 10 10 0 -2
BITMAP
0000
0C00
1000
0000
0000
0000
0000
0000
0000
0000
ENDCHAR

STARTCHAR Ca1ae
ENCODING 41390
SWIDTH 1000 0
DWIDTH 10 0
BBX 10 10 0 -2
BITMAP
0000
0C00
0200
0000
0000
0000
0000
0000
0000
0000
ENDCHAR

STARTCHAR Ca1af
ENCODING 41391
SWIDTH 1000 0
DWIDTH 10 0
BBX 10 10 0 -2
BITMAP
0000
1400
0000
0000
0000
0000
0000
0000
0000
0000
ENDCHAR

STARTCHAR Ca1b0
ENCODING 41392
SWIDTH 1000 0
DWIDTH 10 0
BBX 10 10 0 -2
BITMAP
0000
0C00
1200
0000
0000
0000
0000
0000
0000
0000
ENDCHAR

STARTCHAR Ca1b1
ENCODING 41393
SWIDTH 1000 0
DWIDTH 10 0
BBX 10 10 0 -2
BITMAP
0000
7F80
0000
0000
0000
0000
0000
0000
0000
0000
ENDCHAR

STARTCHAR Ca1b2
ENCODING 41394
SWIDTH 1000 0
DWIDTH 10 0
BBX 10 10 0 -2
BITMAP
0000
0000
0000
0000
0000
0000
0000
0000
7F80
0000
ENDCHAR

STARTCHAR Ca1b3
ENCODING 41395
SWIDTH 1000 0
DWIDTH 10 0
BBX 10 10 0 -2
BITMAP
0000
0000
0000
1000
0800
0400
0200
0200
0000
0000
ENDCHAR

STARTCHAR Ca1b4
ENCODING 41396
SWIDTH 1000 0
DWIDTH 10 0
BBX 10 10 0 -2
BITMAP
0000
0000
0500
1280
0800
0400
0200
0200
0000
0000
ENDCHAR

STARTCHAR Ca1b5
ENCODING 41397
SWIDTH 1000 0
DWIDTH 10 0
BBX 10 10 0 -2
BITMAP
0000
0000
1000
0800
0400
0200
0200
0C00
0000
0000
ENDCHAR

STARTCHAR Ca1b6
ENCODING 41398
SWIDTH 1000 0
DWIDTH 10 0
BBX 10 10 0 -2
BITMAP
0000
0000
2500
1280
0800
0400
0400
1800
0000
0000
ENDCHAR

STARTCHAR Ca1b7
ENCODING 41399
SWIDTH 1000 0
DWIDTH 10 0
BBX 10 10 0 -2
BITMAP
0000
0000
1200
1200
1200
2400
2400
0000
0000
0000
ENDCHAR

STARTCHAR Ca1b8
ENCODING 41400
SWIDTH 1000 0
DWIDTH 10 0
BBX 10 10 0 -2
BITMAP
0000
0C00
1200
2100
4080
3F00
0800
0800
7F80
0000
ENDCHAR

STARTCHAR Ca1b9
ENCODING 41401
SWIDTH 1000 0
DWIDTH 10 0
BBX 10 10 0 -2
BITMAP
0000
1000
1000
1F00
2100
4200
1400
0800
0400
0000
ENDCHAR

STARTCHAR Ca1ba
ENCODING 41402
SWIDTH 1000 0
DWIDTH 10 0
BBX 10 10 0 -2
BITMAP
0000
0080
0100
1A00
2400
2400
4A00
5200
2000
0000
ENDCHAR

STARTCHAR Ca1bb
ENCODING 41403
SWIDTH 1000 0
DWIDTH 10 0
BBX 10 10 0 -2
BITMAP
0000
1E00
2100
4080
4080
4080
4080
2100
1E00
0000
ENDCHAR

STARTCHAR Ca1bc
ENCODING 41404
SWIDTH 1000 0
DWIDTH 10 0
BBX 10 10 0 -2
BITMAP
0000
0000
0000
0000
0000
3F00
0000
0000
0000
0000
ENDCHAR

STARTCHAR Ca1bd
ENCODING 41405
SWIDTH 1000 0
DWIDTH 10 0
BBX 10 10 0 -2
BITMAP
0000
0000
0000
0000
0000
7F80
0000
0000
0000
0000
ENDCHAR

STARTCHAR Ca1be
ENCODING 41406
SWIDTH 1000 0
DWIDTH 10 0
BBX 10 10 0 -2
BITMAP
0000
0000
0000
0000
0000
1E00
0000
0000
0000
0000
ENDCHAR

STARTCHAR Ca1bf
ENCODING 41407
SWIDTH 1000 0
DWIDTH 10 0
BBX 10 10 0 -2
BITMAP
0000
0080
0100
0200
0400
0800
1000
2000
4000
0000
ENDCHAR

STARTCHAR Ca1c0
ENCODING 41408
SWIDTH 1000 0
DWIDTH 10 0
BBX 10 10 0 -2
BITMAP
0000
4000
2000
1000
0800
0400
0200
0100
0080
0000
ENDCHAR

STARTCHAR Ca1c1
ENCODING 41409
SWIDTH 1000 0
DWIDTH 10 0
BBX 10 10 0 -2
BITMAP
0000
0000
0000
0000
3880
4700
0000
0000
0000
0000
ENDCHAR

STARTCHAR Ca1c2
ENCODING 41410
SWIDTH 1000 0
DWIDTH 10 0
BBX 10 10 0 -2
BITMAP
0000
1400
1400
1400
1400
1400
1400
1400
1400
0000
ENDCHAR

STARTCHAR Ca1c3
ENCODING 41411
SWIDTH 1000 0
DWIDTH 10 0
BBX 10 10 0 -2
BITMAP
0000
0800
0800
0800
0800
0800
0800
0800
0800
0000
ENDCHAR

STARTCHAR Ca1c4
ENCODING 41412
SWIDTH 1000 0
DWIDTH 10 0
BBX 10 10 0 -2
BITMAP
0000
0000
0000
0000
6D80
0000
0000
0000
0000
0000
ENDCHAR

STARTCHAR Ca1c5
ENCODING 41413
SWIDTH 1000 0
DWIDTH 10 0
BBX 10 10 0 -2
BITMAP
0000
0000
0000
0000
3300
0000
0000
0000
0000
0000
ENDCHAR

STARTCHAR Ca1c6
ENCODING 41414
SWIDTH 1000 0
DWIDTH 10 0
BBX 10 10 0 -2
BITMAP
0000
0100
0080
0180
0000
0000
0000
0000
0000
0000
ENDCHAR

STARTCHAR Ca1c7
ENCODING 41415
SWIDTH 1000 0
DWIDTH 10 0
BBX 10 10 0 -2
BITMAP
0000
6000
2000
4000
0000
0000
0000
0000
0000
0000
ENDCHAR

STARTCHAR Ca1c8
ENCODING 41416
SWIDTH 1000 0
DWIDTH 10 0
BBX 10 10 0 -2
BITMAP
0000
0480
0900
0D80
0000
0000
0000
0000
0000
0000
ENDCHAR

STARTCHAR Ca1c9
ENCODING 41417
SWIDTH 1000 0
DWIDTH 10 0
BBX 10 10 0 -2
BITMAP
0000
6C00
2400
4800
0000
0000
0000
0000
0000
0000
ENDCHAR

STARTCHAR Ca1ca
ENCODING 41418
SWIDTH 1000 0
DWIDTH 10 0
BBX 10 10 0 -2
BITMAP
0000
0080
0100
0200
0200
0200
0200
0100
0080
0000
ENDCHAR

STARTCHAR Ca1cb
ENCODING 41419
SWIDTH 1000 0
DWIDTH 10 0
BBX 10 10 0 -2
BITMAP
0000
4000
2000
1000
1000
1000
1000
2000
4000
0000
ENDCHAR

STARTCHAR Ca1cc
ENCODING 41420
SWIDTH 1000 0
DWIDTH 10 0
BBX 10 10 0 -2
BITMAP
0000
0180
0200
0200
0200
0200
0200
0200
0180
0000
ENDCHAR

STARTCHAR Ca1cd
ENCODING 41421
SWIDTH 1000 0
DWIDTH 10 0
BBX 10 10 0 -2
BITMAP
0000
6000
1000
1000
1000
1000
1000
1000
6000
0000
ENDCHAR

STARTCHAR Ca1ce
ENCODING 41422
SWIDTH 1000 0
DWIDTH 10 0
BBX 10 10 0 -2
BITMAP
0000
0380
0200
0200
0200
0200
0200
0200
0380
0000
ENDCHAR

STARTCHAR Ca1cf
ENCODING 41423
SWIDTH 1000 0
DWIDTH 10 0
BBX 10 10 0 -2
BITMAP
0000
7000
1000
1000
1000
1000
1000
1000
7000
0000
ENDCHAR

STARTCHAR Ca1d0
ENCODING 41424
SWIDTH 1000 0
DWIDTH 10 0
BBX 10 10 0 -2
BITMAP
0000
0080
0100
0100
0200
0100
0100
0100
0080
0000
ENDCHAR

STARTCHAR Ca1d1
ENCODING 41425
SWIDTH 1000 0
DWIDTH 10 0
BBX 10 10 0 -2
BITMAP
0000
4000
2000
2000
1000
2000
2000
2000
4000
0000
ENDCHAR

STARTCHAR Ca1d2
ENCODING 41426
SWIDTH 1000 0
DWIDTH 10 0
BBX 10 10 0 -2
BITMAP
0000
0080
0100
0200
0400
0400
0200
0100
0080
0000
ENDCHAR

STARTCHAR Ca1d3
ENCODING 41427
SWIDTH 1000 0
DWIDTH 10 0
BBX 10 10 0 -2
BITMAP
0000
4000
2000
1000
0800
0800
1000
2000
4000
0000
ENDCHAR

STARTCHAR Ca1d4
ENCODING 41428
SWIDTH 1000 0
DWIDTH 10 0
BBX 10 10 0 -2
BITMAP
0000
0280
0500
0A00
1400
1400
0A00
0500
0280
0000
ENDCHAR

STARTCHAR Ca1d5
ENCODING 41429
SWIDTH 1000 0
DWIDTH 10 0
BBX 10 10 0 -2
BITMAP
0000
5000
2800
1400
0A00
0A00
1400
2800
5000
0000
ENDCHAR

STARTCHAR Ca1d6
ENCODING 41430
SWIDTH 1000 0
DWIDTH 10 0
BBX 10 10 0 -2
BITMAP
0000
0780
0400
0400
0400
0400
0400
0400
0000
0000
ENDCHAR

STARTCHAR Ca1d7
ENCODING 41431
SWIDTH 1000 0
DWIDTH 10 0
BBX 10 10 0 -2
BITMAP
0000
0000
0800
0800
0800
0800
0800
0800
7800
0000
ENDCHAR

STARTCHAR Ca1d8
ENCODING 41432
SWIDTH 1000 0
DWIDTH 10 0
BBX 10 10 0 -2
BITMAP
0000
0F80
0880
0B80
0A00
0A00
0A00
0E00
0000
0000
ENDCHAR

STARTCHAR Ca1d9
ENCODING 41433
SWIDTH 1000 0
DWIDTH 10 0
BBX 10 10 0 -2
BITMAP
0000
0000
1C00
1400
1400
1400
7400
4400
7C00
0000
ENDCHAR

STARTCHAR Ca1da
ENCODING 41434
SWIDTH 1000 0
DWIDTH 10 0
BBX 10 10 0 -2
BITMAP
0000
0380
0300
0200
0200
0200
0200
0300
0380
0000
ENDCHAR

STARTCHAR Ca1db
ENCODING 41435
SWIDTH 1000 0
DWIDTH 10 0
BBX 10 10 0 -2
BITMAP
0000
7000
3000
1000
1000
1000
1000
3000
7000
0000
ENDCHAR

STARTCHAR Ca1dc
ENCODING 41436
SWIDTH 1000 0
DWIDTH 10 0
BBX 10 10 0 -2
BITMAP
0000
0000
0800
0800
3E00
0800
0800
0000
0000
0000
ENDCHAR

STARTCHAR Ca1dd
ENCODING 41437
SWIDTH 1000 0
DWIDTH 10 0
BBX 10 10 0 -2
BITMAP
0000
0000
0000
0000
3E00
0000
0000
0000
0000
0000
ENDCHAR

STARTCHAR Ca1de
ENCODING 41438
SWIDTH 1000 0
DWIDTH 10 0
BBX 10 10 0 -2
BITMAP
0000
0800
0800
3E00
0800
0800
0000
3E00
0000
0000
ENDCHAR

STARTCHAR Ca1df
ENCODING 41439
SWIDTH 1000 0
DWIDTH 10 0
BBX 10 10 0 -2
BITMAP
0000
0000
2200
1400
0800
1400
2200
0000
0000
0000
ENDCHAR

STARTCHAR Ca1e0
ENCODING 41440
SWIDTH 1000 0
DWIDTH 10 0
BBX 10 10 0 -2
BITMAP
0000
0000
0800
0000
3E00
0000
0800
0000
0000
0000
ENDCHAR

STARTCHAR Ca1e1
ENCODING 41441
SWIDTH 1000 0
DWIDTH 10 0
BBX 10 10 0 -2
BITMAP
0000
0000
0000
3E00
0000
3E00
0000
0000
0000
0000
ENDCHAR

STARTCHAR Ca1e2
ENCODING 41442
SWIDTH 1000 0
DWIDTH 10 0
BBX 10 10 0 -2
BITMAP
0000
0200
0400
3F00
0800
3F00
1000
2000
0000
0000
ENDCHAR

STARTCHAR Ca1e3
ENCODING 41443
SWIDTH 1000 0
DWIDTH 10 0
BBX 10 10 0 -2
BITMAP
0000
0180
0600
1800
6000
1800
0600
0180
0000
0000
ENDCHAR

STARTCHAR Ca1e4
ENCODING 41444
SWIDTH 1000 0
DWIDTH 10 0
BBX 10 10 0 -2
BITMAP
0000
6000
1800
0600
0180
0600
1800
6000
0000
0000
ENDCHAR

STARTCHAR Ca1e5
ENCODING 41445
SWIDTH 1000 0
DWIDTH 10 0
BBX 10 10 0 -2
BITMAP
0000
0300
0C00
3000
0C00
0200
3F80
0000
3F80
0000
ENDCHAR

STARTCHAR Ca1e6
ENCODING 41446
SWIDTH 1000 0
DWIDTH 10 0
BBX 10 10 0 -2
BITMAP
0000
3000
0C00
0300
0C00
1000
7F00
0000
7F00
0000
ENDCHAR

STARTCHAR Ca1e7
ENCODING 41447
SWIDTH 1000 0
DWIDTH 10 0
BBX 10 10 0 -2
BITMAP
0000
0000
0000
3600
4900
4900
3600
0000
0000
0000
ENDCHAR

STARTCHAR Ca1e8
ENCODING 41448
SWIDTH 1000 0
DWIDTH 10 0
BBX 10 10 0 -2
BITMAP
0000
0000
0800
0000
0000
0000
2200
0000
0000
0000
ENDCHAR

STARTCHAR Ca1e9
ENCODING 41449
SWIDTH 1000 0
DWIDTH 10 0
BBX 10 10 0 -2
BITMAP
0000
0780
0180
0280
0480
3800
4400
4400
3800
0000
ENDCHAR

STARTCHAR Ca1ea
ENCODING 41450
SWIDTH 1000 0
DWIDTH 10 0
BBX 10 10 0 -2
BITMAP
0000
1C00
2200
2200
1C00
0800
7F00
0800
0800
0000
ENDCHAR

STARTCHAR Ca1eb
ENCODING 41451
SWIDTH 1000 0
DWIDTH 10 0
BBX 10 10 0 -2
BITMAP
0000
2000
5000
2000
0000
0000
0000
0000
0000
0000
ENDCHAR

STARTCHAR Ca1ec
ENCODING 41452
SWIDTH 1000 0
DWIDTH 10 0
BBX 10 10 0 -2
BITMAP
0000
3000
2000
4000
0000
0000
0000
0000
0000
0000
ENDCHAR

STARTCHAR Ca1ed
ENCODING 41453
SWIDTH 1000 0
DWIDTH 10 0
BBX 10 10 0 -2
BITMAP
0000
3C00
2800
5000
0000
0000
0000
0000
0000
0000
ENDCHAR

STARTCHAR Ca1ee
ENCODING 41454
SWIDTH 1000 0
DWIDTH 10 0
BBX 10 10 0 -2
BITMAP
0000
2700
5880
2800
0800
0800
0880
0700
0000
0000
ENDCHAR

STARTCHAR Ca1ef
ENCODING 41455
SWIDTH 1000 0
DWIDTH 10 0
BBX 10 10 0 -2
BITMAP
0000
4100
2200
1400
7F00
0800
7F00
0800
0000
0000
ENDCHAR

STARTCHAR Ca1f0
ENCODING 41456
SWIDTH 1000 0
DWIDTH 10 0
BBX 10 10 0 -2
BITMAP
0000
1C00
2A00
2800
1C00
0A00
2A00
1C00
0800
0000
ENDCHAR

STARTCHAR Ca1f1
ENCODING 41457
SWIDTH 1000 0
DWIDTH 10 0
BBX 10 10 0 -2
BITMAP
0000
0400
1C00
2A00
2800
3200
1C00
1000
0000
0000
ENDCHAR

STARTCHAR Ca1f2
ENCODING 41458
SWIDTH 1000 0
DWIDTH 10 0
BBX 10 10 0 -2
BITMAP
0000
0600
0900
1E00
0800
1800
2480
1B00
0000
0000
ENDCHAR

STARTCHAR Ca1f3
ENCODING 41459
SWIDTH 1000 0
DWIDTH 10 0
BBX 10 10 0 -2
BITMAP
0000
2200
5200
5400
2400
0900
0A80
1280
1100
0000
ENDCHAR

STARTCHAR Ca1f4
ENCODING 41460
SWIDTH 1000 0
DWIDTH 10 0
BBX 10 10 0 -2
BITMAP
0000
0A00
0A00
3F00
1400
1400
7E00
2800
2800
0000
ENDCHAR

STARTCHAR Ca1f5
ENCODING 41461
SWIDTH 1000 0
DWIDTH 10 0
BBX 10 10 0 -2
BITMAP
0000
1800
2400
1800
3200
4A00
4400
3B00
0000
0000
ENDCHAR

STARTCHAR Ca1f6
ENCODING 41462
SWIDTH 1000 0
DWIDTH 10 0
BBX 10 10 0 -2
BITMAP
0000
1C00
4900
6B00
1C00
6B00
4900
1C00
0000
0000
ENDCHAR

STARTCHAR Ca1f7
ENCODING 41463
SWIDTH 1000 0
DWIDTH 10 0
BBX 10 10 0 -2
BITMAP
0000
1E00
2100
4C80
5480
5480
5B00
2080
1F00
0000
ENDCHAR

STARTCHAR Ca1f8
ENCODING 41464
SWIDTH 1000 0
DWIDTH 10 0
BBX 10 10 0 -2
BITMAP
0000
0C00
1200
0800
1400
0A00
0400
1200
0C00
0000
ENDCHAR

STARTCHAR Ca1f9
ENCODING 41465
SWIDTH 1000 0
DWIDTH 10 0
BBX 10 10 0 -2
BITMAP
0000
0800
0800
7700
2200
1400
3E00
2200
0000
0000
ENDCHAR

STARTCHAR Ca1fa
ENCODING 41466
SWIDTH 1000 0
DWIDTH 10 0
BBX 10 10 0 -2
BITMAP
0000
0800
0800
7F00
3E00
1C00
3E00
2200
0000
0000
ENDCHAR

STARTCHAR Ca1fb
ENCODING 41467
SWIDTH 1000 0
DWIDTH 10 0
BBX 10 10 0 -2
BITMAP
0000
1E00
2100
4080
4080
4080
4080
2100
1E00
0000
ENDCHAR

STARTCHAR Ca1fc
ENCODING 41468
SWIDTH 1000 0
DWIDTH 10 0
BBX 10 10 0 -2
BITMAP
0000
1E00
3F00
7F80
7F80
7F80
7F80
3F00
1E00
0000
ENDCHAR

STARTCHAR Ca1fd
ENCODING 41469
SWIDTH 1000 0
DWIDTH 10 0
BBX 10 10 0 -2
BITMAP
0000
1E00
2100
4C80
5280
5280
4C80
2100
1E00
0000
ENDCHAR

STARTCHAR Ca1fe
ENCODING 41470
SWIDTH 1000 0
DWIDTH 10 0
BBX 10 10 0 -2
BITMAP
0000
0C00
1200
2100
4080
4080
2100
1200
0C00
0000
ENDCHAR

STARTCHAR Ca2a1
ENCODING 41633
SWIDTH 1000 0
DWIDTH 10 0
BBX 10 10 0 -2
BITMAP
0000
0C00
1E00
3F00
7F80
7F80
3F00
1E00
0C00
0000
ENDCHAR

STARTCHAR Ca2a2
ENCODING 41634
SWIDTH 1000 0
DWIDTH 10 0
BBX 10 10 0 -2
BITMAP
0000
7F00
4100
4100
4100
4100
4100
7F00
0000
0000
ENDCHAR

STARTCHAR Ca2a3
ENCODING 41635
SWIDTH 1000 0
DWIDTH 10 0
BBX 10 10 0 -2
BITMAP
0000
7F00
7F00
7F00
7F00
7F00
7F00
7F00
0000
0000
ENDCHAR

STARTCHAR Ca2a4
ENCODING 41636
SWIDTH 1000 0
DWIDTH 10 0
BBX 10 10 0 -2
BITMAP
0000
0800
1400
1400
2200
2200
4100
7F00
0000
0000
ENDCHAR

STARTCHAR Ca2a5
ENCODING 41637
SWIDTH 1000 0
DWIDTH 10 0
BBX 10 10 0 -2
BITMAP
0000
0800
1C00
1C00
3E00
3E00
7F00
7F00
0000
0000
ENDCHAR

STARTCHAR Ca2a6
ENCODING 41638
SWIDTH 1000 0
DWIDTH 10 0
BBX 10 10 0 -2
BITMAP
0000
7F00
4100
2200
2200
1400
1400
0800
0000
0000
ENDCHAR

STARTCHAR Ca2a7
ENCODING 41639
SWIDTH 1000 0
DWIDTH 10 0
BBX 10 10 0 -2
BITMAP
0000
7F00
7F00
3E00
3E00
1C00
1C00
0800
0000
0000
ENDCHAR

STARTCHAR Ca2a8
ENCODING 41640
SWIDTH 1000 0
DWIDTH 10 0
BBX 10 10 0 -2
BITMAP
0000
4900
2200
1400
4900
1400
2200
4900
0000
0000
ENDCHAR

STARTCHAR Ca2a9
ENCODING 41641
SWIDTH 1000 0
DWIDTH 10 0
BBX 10 10 0 -2
BITMAP
0000
7F00
0000
0000
7F00
0800
0800
0800
0800
0000
ENDCHAR

STARTCHAR Ca2aa
ENCODING 41642
SWIDTH 1000 0
DWIDTH 10 0
BBX 10 10 0 -2
BITMAP
0000
0000
0200
0100
7F80
0100
0200
0000
0000
0000
ENDCHAR

STARTCHAR Ca2ab
ENCODING 41643
SWIDTH 1000 0
DWIDTH 10 0
BBX 10 10 0 -2
BITMAP
0000
0000
1000
2000
7F80
2000
1000
0000
0000
0000
ENDCHAR

STARTCHAR Ca2ac
ENCODING 41644
SWIDTH 1000 0
DWIDTH 10 0
BBX 10 10 0 -2
BITMAP
0000
0800
1C00
2A00
0800
0800
0800
0800
0000
0000
ENDCHAR

STARTCHAR Ca2ad
ENCODING 41645
SWIDTH 1000 0
DWIDTH 10 0
BBX 10 10 0 -2
BITMAP
0000
0800
0800
0800
0800
0800
2A00
1C00
0800
0000
ENDCHAR

STARTCHAR Ca2ae
ENCODING 41646
SWIDTH 1000 0
DWIDTH 10 0
BBX 10 10 0 -2
BITMAP
0000
0000
0000
7F00
0000
0000
7F00
0000
0000
0000
ENDCHAR

STARTCHAR Ca2af
ENCODING 41647
SWIDTH 1000 0
DWIDTH 10 0
BBX 10 10 0 -2
BITMAP
0000
0000
0000
0000
0000
0000
0000
0000
0000
0000
ENDCHAR

STARTCHAR Ca2b0
ENCODING 41648
SWIDTH 1000 0
DWIDTH 10 0
BBX 10 10 0 -2
BITMAP
0000
0000
0000
0000
0000
0000
0000
0000
0000
0000
ENDCHAR

STARTCHAR Ca2b1
ENCODING 41649
SWIDTH 1000 0
DWIDTH 10 0
BBX 10 10 0 -2
BITMAP
0000
0000
0000
0000
0000
0000
0000
0000
0000
0000
ENDCHAR

STARTCHAR Ca2b2
ENCODING 41650
SWIDTH 1000 0
DWIDTH 10 0
BBX 10 10 0 -2
BITMAP
0000
0000
0000
0000
0000
0000
0000
0000
0000
0000
ENDCHAR

STARTCHAR Ca2b3
ENCODING 41651
SWIDTH 1000 0
DWIDTH 10 0
BBX 10 10 0 -2
BITMAP
0000
0000
0000
0000
0000
0000
0000
0000
0000
0000
ENDCHAR

STARTCHAR Ca2b4
ENCODING 41652
SWIDTH 1000 0
DWIDTH 10 0
BBX 10 10 0 -2
BITMAP
0000
0000
0000
0000
0000
0000
0000
0000
0000
0000
ENDCHAR

STARTCHAR Ca2b5
ENCODING 41653
SWIDTH 1000 0
DWIDTH 10 0
BBX 10 10 0 -2
BITMAP
0000
0000
0000
0000
0000
0000
0000
0000
0000
0000
ENDCHAR

STARTCHAR Ca2b6
ENCODING 41654
SWIDTH 1000 0
DWIDTH 10 0
BBX 10 10 0 -2
BITMAP
0000
0000
0000
0000
0000
0000
0000
0000
0000
0000
ENDCHAR

STARTCHAR Ca2b7
ENCODING 41655
SWIDTH 1000 0
DWIDTH 10 0
BBX 10 10 0 -2
BITMAP
0000
0000
0000
0000
0000
0000
0000
0000
0000
0000
ENDCHAR

STARTCHAR Ca2b8
ENCODING 41656
SWIDTH 1000 0
DWIDTH 10 0
BBX 10 10 0 -2
BITMAP
0000
0000
0000
0000
0000
0000
0000
0000
0000
0000
ENDCHAR

STARTCHAR Ca2b9
ENCODING 41657
SWIDTH 1000 0
DWIDTH 10 0
BBX 10 10 0 -2
BITMAP
0000
0000
0000
0000
0000
0000
0000
0000
0000
0000
ENDCHAR

STARTCHAR Ca2ba
ENCODING 41658
SWIDTH 1000 0
DWIDTH 10 0
BBX 10 10 0 -2
BITMAP
0000
1F00
2000
4000
7F00
4000
2000
1F00
0000
0000
ENDCHAR

STARTCHAR Ca2bb
ENCODING 41659
SWIDTH 1000 0
DWIDTH 10 0
BBX 10 10 0 -2
BITMAP
0000
3E00
0100
0080
3F80
0080
0100
3E00
0000
0000
ENDCHAR

STARTCHAR Ca2bc
ENCODING 41660
SWIDTH 1000 0
DWIDTH 10 0
BBX 10 10 0 -2
BITMAP
0000
3F00
4000
4000
3F00
0000
0000
7F00
0000
0000
ENDCHAR

STARTCHAR Ca2bd
ENCODING 41661
SWIDTH 1000 0
DWIDTH 10 0
BBX 10 10 0 -2
BITMAP
0000
3F00
0080
0080
3F00
0000
0000
3F80
0000
0000
ENDCHAR

STARTCHAR Ca2be
ENCODING 41662
SWIDTH 1000 0
DWIDTH 10 0
BBX 10 10 0 -2
BITMAP
0000
1F00
2000
4000
4000
2000
1F00
0000
0000
0000
ENDCHAR

STARTCHAR Ca2bf
ENCODING 41663
SWIDTH 1000 0
DWIDTH 10 0
BBX 10 10 0 -2
BITMAP
0000
3E00
0100
0080
0080
0100
3E00
0000
0000
0000
ENDCHAR

STARTCHAR Ca2c0
ENCODING 41664
SWIDTH 1000 0
DWIDTH 10 0
BBX 10 10 0 -2
BITMAP
0000
2100
2100
2100
2100
2100
1200
0C00
0000
0000
ENDCHAR

STARTCHAR Ca2c1
ENCODING 41665
SWIDTH 1000 0
DWIDTH 10 0
BBX 10 10 0 -2
BITMAP
0000
0C00
1200
2100
2100
2100
2100
2100
0000
0000
ENDCHAR

STARTCHAR Ca2c2
ENCODING 41666
SWIDTH 1000 0
DWIDTH 10 0
BBX 10 10 0 -2
BITMAP
0000
0000
0000
0000
0000
0000
0000
0000
0000
0000
ENDCHAR

STARTCHAR Ca2c3
ENCODING 41667
SWIDTH 1000 0
DWIDTH 10 0
BBX 10 10 0 -2
BITMAP
0000
0000
0000
0000
0000
0000
0000
0000
0000
0000
ENDCHAR

STARTCHAR Ca2c4
ENCODING 41668
SWIDTH 1000 0
DWIDTH 10 0
BBX 10 10 0 -2
BITMAP
0000
0000
0000
0000
0000
0000
0000
0000
0000
0000
ENDCHAR

STARTCHAR Ca2c5
ENCODING 41669
SWIDTH 1000 0
DWIDTH 10 0
BBX 10 10 0 -2
BITMAP
0000
0000
0000
0000
0000
0000
0000
0000
0000
0000
ENDCHAR

STARTCHAR Ca2c6
ENCODING 41670
SWIDTH 1000 0
DWIDTH 10 0
BBX 10 10 0 -2
BITMAP
0000
0000
0000
0000
0000
0000
0000
0000
0000
0000
ENDCHAR

STARTCHAR Ca2c7
ENCODING 41671
SWIDTH 1000 0
DWIDTH 10 0
BBX 10 10 0 -2
BITMAP
0000
0000
0000
0000
0000
0000
0000
0000
0000
0000
ENDCHAR

STARTCHAR Ca2c8
ENCODING 41672
SWIDTH 1000 0
DWIDTH 10 0
BBX 10 10 0 -2
BITMAP
0000
0000
0000
0000
0000
0000
0000
0000
0000
0000
ENDCHAR

STARTCHAR Ca2c9
ENCODING 41673
SWIDTH 1000 0
DWIDTH 10 0
BBX 10 10 0 -2
BITMAP
0000
0000
0000
0000
0000
0000
0000
0000
0000
0000
ENDCHAR

STARTCHAR Ca2ca
ENCODING 41674
SWIDTH 1000 0
DWIDTH 10 0
BBX 10 10 0 -2
BITMAP
0000
0800
0800
1400
1400
2200
2200
4100
4100
0000
ENDCHAR

STARTCHAR Ca2cb
ENCODING 41675
SWIDTH 1000 0
DWIDTH 10 0
BBX 10 10 0 -2
BITMAP
0000
4100
4100
2200
2200
1400
1400
0800
0800
0000
ENDCHAR

STARTCHAR Ca2cc
ENCODING 41676
SWIDTH 1000 0
DWIDTH 10 0
BBX 10 10 0 -2
BITMAP
0000
0000
0000
0000
7F80
0080
0080
0080
0000
0000
ENDCHAR

STARTCHAR Ca2cd
ENCODING 41677
SWIDTH 1000 0
DWIDTH 10 0
BBX 10 10 0 -2
BITMAP
0000
0000
0200
7F00
0080
7F00
0200
0000
0000
0000
ENDCHAR

STARTCHAR Ca2ce
ENCODING 41678
SWIDTH 1000 0
DWIDTH 10 0
BBX 10 10 0 -2
BITMAP
0000
0000
1200
3F00
4080
3F00
1200
0000
0000
0000
ENDCHAR

STARTCHAR Ca2cf
ENCODING 41679
SWIDTH 1000 0
DWIDTH 10 0
BBX 10 10 0 -2
BITMAP
0000
4100
4100
3E00
2200
1400
1400
0800
0800
0000
ENDCHAR

STARTCHAR Ca2d0
ENCODING 41680
SWIDTH 1000 0
DWIDTH 10 0
BBX 10 10 0 -2
BITMAP
0000
0000
7F00
0100
0100
7F00
0100
0100
7F00
0000
ENDCHAR

STARTCHAR Ca2d1
ENCODING 41681
SWIDTH 1000 0
DWIDTH 10 0
BBX 10 10 0 -2
BITMAP
0000
0000
0000
0000
0000
0000
0000
0000
0000
0000
ENDCHAR

STARTCHAR Ca2d2
ENCODING 41682
SWIDTH 1000 0
DWIDTH 10 0
BBX 10 10 0 -2
BITMAP
0000
0000
0000
0000
0000
0000
0000
0000
0000
0000
ENDCHAR

STARTCHAR Ca2d3
ENCODING 41683
SWIDTH 1000 0
DWIDTH 10 0
BBX 10 10 0 -2
BITMAP
0000
0000
0000
0000
0000
0000
0000
0000
0000
0000
ENDCHAR

STARTCHAR Ca2d4
ENCODING 41684
SWIDTH 1000 0
DWIDTH 10 0
BBX 10 10 0 -2
BITMAP
0000
0000
0000
0000
0000
0000
0000
0000
0000
0000
ENDCHAR

STARTCHAR Ca2d5
ENCODING 41685
SWIDTH 1000 0
DWIDTH 10 0
BBX 10 10 0 -2
BITMAP
0000
0000
0000
0000
0000
0000
0000
0000
0000
0000
ENDCHAR

STARTCHAR Ca2d6
ENCODING 41686
SWIDTH 1000 0
DWIDTH 10 0
BBX 10 10 0 -2
BITMAP
0000
0000
0000
0000
0000
0000
0000
0000
0000
0000
ENDCHAR

STARTCHAR Ca2d7
ENCODING 41687
SWIDTH 1000 0
DWIDTH 10 0
BBX 10 10 0 -2
BITMAP
0000
0000
0000
0000
0000
0000
0000
0000
0000
0000
ENDCHAR

STARTCHAR Ca2d8
ENCODING 41688
SWIDTH 1000 0
DWIDTH 10 0
BBX 10 10 0 -2
BITMAP
0000
0000
0000
0000
0000
0000
0000
0000
0000
0000
ENDCHAR

STARTCHAR Ca2d9
ENCODING 41689
SWIDTH 1000 0
DWIDTH 10 0
BBX 10 10 0 -2
BITMAP
0000
0000
0000
0000
0000
0000
0000
0000
0000
0000
ENDCHAR

STARTCHAR Ca2da
ENCODING 41690
SWIDTH 1000 0
DWIDTH 10 0
BBX 10 10 0 -2
BITMAP
0000
0000
0000
0000
0000
0000
0000
0000
0000
0000
ENDCHAR

STARTCHAR Ca2db
ENCODING 41691
SWIDTH 1000 0
DWIDTH 10 0
BBX 10 10 0 -2
BITMAP
0000
0000
0000
0000
0000
0000
0000
0000
0000
0000
ENDCHAR

STARTCHAR Ca2dc
ENCODING 41692
SWIDTH 1000 0
DWIDTH 10 0
BBX 10 10 0 -2
BITMAP
0000
0100
0200
0400
0800
1000
2000
7F00
0000
0000
ENDCHAR

STARTCHAR Ca2dd
ENCODING 41693
SWIDTH 1000 0
DWIDTH 10 0
BBX 10 10 0 -2
BITMAP
0000
0800
0800
0800
0800
0800
0800
7F00
0000
0000
ENDCHAR

STARTCHAR Ca2de
ENCODING 41694
SWIDTH 1000 0
DWIDTH 10 0
BBX 10 10 0 -2
BITMAP
0000
1E00
2100
4080
0000
0000
0000
0000
0000
0000
ENDCHAR

STARTCHAR Ca2df
ENCODING 41695
SWIDTH 1000 0
DWIDTH 10 0
BBX 10 10 0 -2
BITMAP
0000
0600
0900
0100
0D00
1200
1200
0C00
0000
0000
ENDCHAR

STARTCHAR Ca2e0
ENCODING 41696
SWIDTH 1000 0
DWIDTH 10 0
BBX 10 10 0 -2
BITMAP
0000
7F00
4100
2200
2200
1400
1400
0800
0800
0000
ENDCHAR

STARTCHAR Ca2e1
ENCODING 41697
SWIDTH 1000 0
DWIDTH 10 0
BBX 10 10 0 -2
BITMAP
0000
0000
3E00
0000
3E00
0000
3E00
0000
0000
0000
ENDCHAR

STARTCHAR Ca2e2
ENCODING 41698
SWIDTH 1000 0
DWIDTH 10 0
BBX 10 10 0 -2
BITMAP
0000
1800
0000
3F00
0000
3F00
0000
0600
0000
0000
ENDCHAR

STARTCHAR Ca2e3
ENCODING 41699
SWIDTH 1000 0
DWIDTH 10 0
BBX 10 10 0 -2
BITMAP
0000
0480
0900
1200
2400
1200
0900
0480
0000
0000
ENDCHAR

STARTCHAR Ca2e4
ENCODING 41700
SWIDTH 1000 0
DWIDTH 10 0
BBX 10 10 0 -2
BITMAP
0000
4800
2400
1200
0900
1200
2400
4800
0000
0000
ENDCHAR

STARTCHAR Ca2e5
ENCODING 41701
SWIDTH 1000 0
DWIDTH 10 0
BBX 10 10 0 -2
BITMAP
0000
0380
0200
0200
2400
2400
5400
4800
0800
0000
ENDCHAR

STARTCHAR Ca2e6
ENCODING 41702
SWIDTH 1000 0
DWIDTH 10 0
BBX 10 10 0 -2
BITMAP
0000
0000
0000
2600
4900
4900
3200
0000
0000
0000
ENDCHAR

STARTCHAR Ca2e7
ENCODING 41703
SWIDTH 1000 0
DWIDTH 10 0
BBX 10 10 0 -2
BITMAP
0000
0000
0000
1B00
2400
2400
1B00
0000
0000
0000
ENDCHAR

STARTCHAR Ca2e8
ENCODING 41704
SWIDTH 1000 0
DWIDTH 10 0
BBX 10 10 0 -2
BITMAP
0000
0000
0000
2200
0000
0000
0000
0800
0000
0000
ENDCHAR

STARTCHAR Ca2e9
ENCODING 41705
SWIDTH 1000 0
DWIDTH 10 0
BBX 10 10 0 -2
BITMAP
0000
0400
0A00
0800
0800
0800
0800
2800
1000
0000
ENDCHAR

STARTCHAR Ca2ea
ENCODING 41706
SWIDTH 1000 0
DWIDTH 10 0
BBX 10 10 0 -2
BITMAP
0000
0900
1680
1200
1200
1200
1200
5A00
2400
0000
ENDCHAR

STARTCHAR Ca2eb
ENCODING 41707
SWIDTH 1000 0
DWIDTH 10 0
BBX 10 10 0 -2
BITMAP
0000
0000
0000
0000
0000
0000
0000
0000
0000
0000
ENDCHAR

STARTCHAR Ca2ec
ENCODING 41708
SWIDTH 1000 0
DWIDTH 10 0
BBX 10 10 0 -2
BITMAP
0000
0000
0000
0000
0000
0000
0000
0000
0000
0000
ENDCHAR

STARTCHAR Ca2ed
ENCODING 41709
SWIDTH 1000 0
DWIDTH 10 0
BBX 10 10 0 -2
BITMAP
0000
0000
0000
0000
0000
0000
0000
0000
0000
0000
ENDCHAR

STARTCHAR Ca2ee
ENCODING 41710
SWIDTH 1000 0
DWIDTH 10 0
BBX 10 10 0 -2
BITMAP
0000
0000
0000
0000
0000
0000
0000
0000
0000
0000
ENDCHAR

STARTCHAR Ca2ef
ENCODING 41711
SWIDTH 1000 0
DWIDTH 10 0
BBX 10 10 0 -2
BITMAP
0000
0000
0000
0000
0000
0000
0000
0000
0000
0000
ENDCHAR

STARTCHAR Ca2f0
ENCODING 41712
SWIDTH 1000 0
DWIDTH 10 0
BBX 10 10 0 -2
BITMAP
0000
0000
0000
0000
0000
0000
0000
0000
0000
0000
ENDCHAR

STARTCHAR Ca2f1
ENCODING 41713
SWIDTH 1000 0
DWIDTH 10 0
BBX 10 10 0 -2
BITMAP
0000
0000
0000
0000
0000
0000
0000
0000
0000
0000
ENDCHAR

STARTCHAR Ca2f2
ENCODING 41714
SWIDTH 1000 0
DWIDTH 10 0
BBX 10 10 0 -2
BITMAP
0000
0800
1400
0800
1400
2200
3E00
4100
0000
0000
ENDCHAR

STARTCHAR Ca2f3
ENCODING 41715
SWIDTH 1000 0
DWIDTH 10 0
BBX 10 10 0 -2
BITMAP
0000
2400
5400
5800
2800
1500
1A80
2A80
2500
0000
ENDCHAR

STARTCHAR Ca2f4
ENCODING 41716
SWIDTH 1000 0
DWIDTH 10 0
BBX 10 10 0 -2
BITMAP
0000
1400
1600
1C00
3400
1600
1C00
3400
1400
0000
ENDCHAR

STARTCHAR Ca2f5
ENCODING 41717
SWIDTH 1000 0
DWIDTH 10 0
BBX 10 10 0 -2
BITMAP
0000
1000
1000
1C00
1200
1200
1400
1800
0000
0000
ENDCHAR

STARTCHAR Ca2f6
ENCODING 41718
SWIDTH 1000 0
DWIDTH 10 0
BBX 10 10 0 -2
BITMAP
0000
0800
0C00
0A00
0900
0900
0A00
3800
3000
0000
ENDCHAR

STARTCHAR Ca2f7
ENCODING 41719
SWIDTH 1000 0
DWIDTH 10 0
BBX 10 10 0 -2
BITMAP
0000
0800
0800
3600
0800
0800
0800
0800
0800
0000
ENDCHAR

STARTCHAR Ca2f8
ENCODING 41720
SWIDTH 1000 0
DWIDTH 10 0
BBX 10 10 0 -2
BITMAP
0000
0800
3600
0800
0800
0800
0800
3600
0800
0000
ENDCHAR

STARTCHAR Ca2f9
ENCODING 41721
SWIDTH 1000 0
DWIDTH 10 0
BBX 10 10 0 -2
BITMAP
0000
1E00
3A00
3A00
1A00
0A00
0A00
0A00
0A00
0000
ENDCHAR

STARTCHAR Ca2fa
ENCODING 41722
SWIDTH 1000 0
DWIDTH 10 0
BBX 10 10 0 -2
BITMAP
0000
0000
0000
0000
0000
0000
0000
0000
0000
0000
ENDCHAR

STARTCHAR Ca2fb
ENCODING 41723
SWIDTH 1000 0
DWIDTH 10 0
BBX 10 10 0 -2
BITMAP
0000
0000
0000
0000
0000
0000
0000
0000
0000
0000
ENDCHAR

STARTCHAR Ca2fc
ENCODING 41724
SWIDTH 1000 0
DWIDTH 10 0
BBX 10 10 0 -2
BITMAP
0000
0000
0000
0000
0000
0000
0000
0000
0000
0000
ENDCHAR

STARTCHAR Ca2fd
ENCODING 41725
SWIDTH 1000 0
DWIDTH 10 0
BBX 10 10 0 -2
BITMAP
0000
0000
0000
0000
0000
0000
0000
0000
0000
0000
ENDCHAR

STARTCHAR Ca2fe
ENCODING 41726
SWIDTH 1000 0
DWIDTH 10 0
BBX 10 10 0 -2
BITMAP
0000
1E00
2100
4080
4080
4080
4080
2100
1E00
0000
ENDCHAR

STARTCHAR Ca3a2
ENCODING 41890
SWIDTH 1000 0
DWIDTH 10 0
BBX 10 10 0 -2
BITMAP
0000
0000
0000
0000
0000
0000
0000
0000
0000
0000
ENDCHAR

STARTCHAR Ca3a3
ENCODING 41891
SWIDTH 1000 0
DWIDTH 10 0
BBX 10 10 0 -2
BITMAP
0000
0000
0000
0000
0000
0000
0000
0000
0000
0000
ENDCHAR

STARTCHAR Ca3a4
ENCODING 41892
SWIDTH 1000 0
DWIDTH 10 0
BBX 10 10 0 -2
BITMAP
0000
0000
0000
0000
0000
0000
0000
0000
0000
0000
ENDCHAR

STARTCHAR Ca3a5
ENCODING 41893
SWIDTH 1000 0
DWIDTH 10 0
BBX 10 10 0 -2
BITMAP
0000
0000
0000
0000
0000
0000
0000
0000
0000
0000
ENDCHAR

STARTCHAR Ca3a6
ENCODING 41894
SWIDTH 1000 0
DWIDTH 10 0
BBX 10 10 0 -2
BITMAP
0000
0000
0000
0000
0000
0000
0000
0000
0000
0000
ENDCHAR

STARTCHAR Ca3a7
ENCODING 41895
SWIDTH 1000 0
DWIDTH 10 0
BBX 10 10 0 -2
BITMAP
0000
0000
0000
0000
0000
0000
0000
0000
0000
0000
ENDCHAR

STARTCHAR Ca3a8
ENCODING 41896
SWIDTH 1000 0
DWIDTH 10 0
BBX 10 10 0 -2
BITMAP
0000
0000
0000
0000
0000
0000
0000
0000
0000
0000
ENDCHAR

STARTCHAR Ca3a9
ENCODING 41897
SWIDTH 1000 0
DWIDTH 10 0
BBX 10 10 0 -2
BITMAP
0000
0000
0000
0000
0000
0000
0000
0000
0000
0000
ENDCHAR

STARTCHAR Ca3aa
ENCODING 41898
SWIDTH 1000 0
DWIDTH 10 0
BBX 10 10 0 -2
BITMAP
0000
0000
0000
0000
0000
0000
0000
0000
0000
0000
ENDCHAR

STARTCHAR Ca3ab
ENCODING 41899
SWIDTH 1000 0
DWIDTH 10 0
BBX 10 10 0 -2
BITMAP
0000
0000
0000
0000
0000
0000
0000
0000
0000
0000
ENDCHAR

STARTCHAR Ca3ac
ENCODING 41900
SWIDTH 1000 0
DWIDTH 10 0
BBX 10 10 0 -2
BITMAP
0000
0000
0000
0000
0000
0000
0000
0000
0000
0000
ENDCHAR

STARTCHAR Ca3ad
ENCODING 41901
SWIDTH 1000 0
DWIDTH 10 0
BBX 10 10 0 -2
BITMAP
0000
0000
0000
0000
0000
0000
0000
0000
0000
0000
ENDCHAR

STARTCHAR Ca3ae
ENCODING 41902
SWIDTH 1000 0
DWIDTH 10 0
BBX 10 10 0 -2
BITMAP
0000
0000
0000
0000
0000
0000
0000
0000
0000
0000
ENDCHAR

STARTCHAR Ca3af
ENCODING 41903
SWIDTH 1000 0
DWIDTH 10 0
BBX 10 10 0 -2
BITMAP
0000
0000
0000
0000
0000
0000
0000
0000
0000
0000
ENDCHAR

STARTCHAR Ca3b0
ENCODING 41904
SWIDTH 1000 0
DWIDTH 10 0
BBX 10 10 0 -2
BITMAP
0000
1C00
2200
2200
2200
2200
2200
1C00
0000
0000
ENDCHAR

STARTCHAR Ca3b1
ENCODING 41905
SWIDTH 1000 0
DWIDTH 10 0
BBX 10 10 0 -2
BITMAP
0000
0800
1800
0800
0800
0800
0800
0800
0000
0000
ENDCHAR

STARTCHAR Ca3b2
ENCODING 41906
SWIDTH 1000 0
DWIDTH 10 0
BBX 10 10 0 -2
BITMAP
0000
1C00
2200
2200
0C00
1000
2000
3E00
0000
0000
ENDCHAR

STARTCHAR Ca3b3
ENCODING 41907
SWIDTH 1000 0
DWIDTH 10 0
BBX 10 10 0 -2
BITMAP
0000
1C00
2200
0200
0C00
0200
2200
1C00
0000
0000
ENDCHAR

STARTCHAR Ca3b4
ENCODING 41908
SWIDTH 1000 0
DWIDTH 10 0
BBX 10 10 0 -2
BITMAP
0000
0400
0C00
1400
2400
3E00
0400
0400
0000
0000
ENDCHAR

STARTCHAR Ca3b5
ENCODING 41909
SWIDTH 1000 0
DWIDTH 10 0
BBX 10 10 0 -2
BITMAP
0000
3E00
2000
3C00
2200
0200
2200
1C00
0000
0000
ENDCHAR

STARTCHAR Ca3b6
ENCODING 41910
SWIDTH 1000 0
DWIDTH 10 0
BBX 10 10 0 -2
BITMAP
0000
1C00
2200
2000
3C00
2200
2200
1C00
0000
0000
ENDCHAR

STARTCHAR Ca3b7
ENCODING 41911
SWIDTH 1000 0
DWIDTH 10 0
BBX 10 10 0 -2
BITMAP
0000
3E00
0200
0400
0400
0800
0800
0800
0000
0000
ENDCHAR

STARTCHAR Ca3b8
ENCODING 41912
SWIDTH 1000 0
DWIDTH 10 0
BBX 10 10 0 -2
BITMAP
0000
1C00
2200
2200
1C00
2200
2200
1C00
0000
0000
ENDCHAR

STARTCHAR Ca3b9
ENCODING 41913
SWIDTH 1000 0
DWIDTH 10 0
BBX 10 10 0 -2
BITMAP
0000
1C00
2200
2200
1E00
0200
2200
1C00
0000
0000
ENDCHAR

STARTCHAR Ca3ba
ENCODING 41914
SWIDTH 1000 0
DWIDTH 10 0
BBX 10 10 0 -2
BITMAP
0000
0000
0000
0000
0000
0000
0000
0000
0000
0000
ENDCHAR

STARTCHAR Ca3bb
ENCODING 41915
SWIDTH 1000 0
DWIDTH 10 0
BBX 10 10 0 -2
BITMAP
0000
0000
0000
0000
0000
0000
0000
0000
0000
0000
ENDCHAR

STARTCHAR Ca3bc
ENCODING 41916
SWIDTH 1000 0
DWIDTH 10 0
BBX 10 10 0 -2
BITMAP
0000
0000
0000
0000
0000
0000
0000
0000
0000
0000
ENDCHAR

STARTCHAR Ca3bd
ENCODING 41917
SWIDTH 1000 0
DWIDTH 10 0
BBX 10 10 0 -2
BITMAP
0000
0000
0000
0000
0000
0000
0000
0000
0000
0000
ENDCHAR

STARTCHAR Ca3be
ENCODING 41918
SWIDTH 1000 0
DWIDTH 10 0
BBX 10 10 0 -2
BITMAP
0000
0000
0000
0000
0000
0000
0000
0000
0000
0000
ENDCHAR

STARTCHAR Ca3bf
ENCODING 41919
SWIDTH 1000 0
DWIDTH 10 0
BBX 10 10 0 -2
BITMAP
0000
0000
0000
0000
0000
0000
0000
0000
0000
0000
ENDCHAR

STARTCHAR Ca3c0
ENCODING 41920
SWIDTH 1000 0
DWIDTH 10 0
BBX 10 10 0 -2
BITMAP
0000
0000
0000
0000
0000
0000
0000
0000
0000
0000
ENDCHAR

STARTCHAR Ca3c1
ENCODING 41921
SWIDTH 1000 0
DWIDTH 10 0
BBX 10 10 0 -2
BITMAP
0000
0800
1400
1400
2200
3E00
4100
4100
0000
0000
ENDCHAR

STARTCHAR Ca3c2
ENCODING 41922
SWIDTH 1000 0
DWIDTH 10 0
BBX 10 10 0 -2
BITMAP
0000
3C00
2200
2200
3E00
2100
2100
3E00
0000
0000
ENDCHAR

STARTCHAR Ca3c3
ENCODING 41923
SWIDTH 1000 0
DWIDTH 10 0
BBX 10 10 0 -2
BITMAP
0000
0E00
1100
2000
2000
2000
1100
0E00
0000
0000
ENDCHAR

STARTCHAR Ca3c4
ENCODING 41924
SWIDTH 1000 0
DWIDTH 10 0
BBX 10 10 0 -2
BITMAP
0000
3C00
2200
2100
2100
2100
2200
3C00
0000
0000
ENDCHAR

STARTCHAR Ca3c5
ENCODING 41925
SWIDTH 1000 0
DWIDTH 10 0
BBX 10 10 0 -2
BITMAP
0000
3E00
2000
2000
3C00
2000
2000
3E00
0000
0000
ENDCHAR

STARTCHAR Ca3c6
ENCODING 41926
SWIDTH 1000 0
DWIDTH 10 0
BBX 10 10 0 -2
BITMAP
0000
3E00
2000
2000
3C00
2000
2000
2000
0000
0000
ENDCHAR

STARTCHAR Ca3c7
ENCODING 41927
SWIDTH 1000 0
DWIDTH 10 0
BBX 10 10 0 -2
BITMAP
0000
0E00
1100
2000
2700
2100
1300
0D00
0000
0000
ENDCHAR

STARTCHAR Ca3c8
ENCODING 41928
SWIDTH 1000 0
DWIDTH 10 0
BBX 10 10 0 -2
BITMAP
0000
2100
2100
2100
3F00
2100
2100
2100
0000
0000
ENDCHAR

STARTCHAR Ca3c9
ENCODING 41929
SWIDTH 1000 0
DWIDTH 10 0
BBX 10 10 0 -2
BITMAP
0000
0800
0800
0800
0800
0800
0800
0800
0000
0000
ENDCHAR

STARTCHAR Ca3ca
ENCODING 41930
SWIDTH 1000 0
DWIDTH 10 0
BBX 10 10 0 -2
BITMAP
0000
0200
0200
0200
0200
2200
2200
1C00
0000
0000
ENDCHAR

STARTCHAR Ca3cb
ENCODING 41931
SWIDTH 1000 0
DWIDTH 10 0
BBX 10 10 0 -2
BITMAP
0000
2200
2400
2800
3800
2400
2200
2100
0000
0000
ENDCHAR

STARTCHAR Ca3cc
ENCODING 41932
SWIDTH 1000 0
DWIDTH 10 0
BBX 10 10 0 -2
BITMAP
0000
1000
1000
1000
1000
1000
1000
1F00
0000
0000
ENDCHAR

STARTCHAR Ca3cd
ENCODING 41933
SWIDTH 1000 0
DWIDTH 10 0
BBX 10 10 0 -2
BITMAP
0000
4100
6300
5500
5500
4900
4900
4100
0000
0000
ENDCHAR

STARTCHAR Ca3ce
ENCODING 41934
SWIDTH 1000 0
DWIDTH 10 0
BBX 10 10 0 -2
BITMAP
0000
2100
3100
2900
2900
2500
2300
2100
0000
0000
ENDCHAR

STARTCHAR Ca3cf
ENCODING 41935
SWIDTH 1000 0
DWIDTH 10 0
BBX 10 10 0 -2
BITMAP
0000
1C00
2200
4100
4100
4100
2200
1C00
0000
0000
ENDCHAR

STARTCHAR Ca3d0
ENCODING 41936
SWIDTH 1000 0
DWIDTH 10 0
BBX 10 10 0 -2
BITMAP
0000
1E00
1100
1100
1E00
1000
1000
1000
0000
0000
ENDCHAR

STARTCHAR Ca3d1
ENCODING 41937
SWIDTH 1000 0
DWIDTH 10 0
BBX 10 10 0 -2
BITMAP
0000
1C00
2200
4100
4100
4500
2200
1D00
0000
0000
ENDCHAR

STARTCHAR Ca3d2
ENCODING 41938
SWIDTH 1000 0
DWIDTH 10 0
BBX 10 10 0 -2
BITMAP
0000
3E00
2100
2100
3E00
2400
2200
2100
0000
0000
ENDCHAR

STARTCHAR Ca3d3
ENCODING 41939
SWIDTH 1000 0
DWIDTH 10 0
BBX 10 10 0 -2
BITMAP
0000
1E00
2100
2000
1E00
0100
2100
1E00
0000
0000
ENDCHAR

STARTCHAR Ca3d4
ENCODING 41940
SWIDTH 1000 0
DWIDTH 10 0
BBX 10 10 0 -2
BITMAP
0000
7F00
0800
0800
0800
0800
0800
0800
0000
0000
ENDCHAR

STARTCHAR Ca3d5
ENCODING 41941
SWIDTH 1000 0
DWIDTH 10 0
BBX 10 10 0 -2
BITMAP
0000
2100
2100
2100
2100
2100
2100
1E00
0000
0000
ENDCHAR

STARTCHAR Ca3d6
ENCODING 41942
SWIDTH 1000 0
DWIDTH 10 0
BBX 10 10 0 -2
BITMAP
0000
4100
4100
2200
2200
1400
1400
0800
0000
0000
ENDCHAR

STARTCHAR Ca3d7
ENCODING 41943
SWIDTH 1000 0
DWIDTH 10 0
BBX 10 10 0 -2
BITMAP
0000
4900
4900
5500
5500
2200
2200
2200
0000
0000
ENDCHAR

STARTCHAR Ca3d8
ENCODING 41944
SWIDTH 1000 0
DWIDTH 10 0
BBX 10 10 0 -2
BITMAP
0000
4100
2200
1400
0800
1400
2200
4100
0000
0000
ENDCHAR

STARTCHAR Ca3d9
ENCODING 41945
SWIDTH 1000 0
DWIDTH 10 0
BBX 10 10 0 -2
BITMAP
0000
4100
2200
1400
0800
0800
0800
0800
0000
0000
ENDCHAR

STARTCHAR Ca3da
ENCODING 41946
SWIDTH 1000 0
DWIDTH 10 0
BBX 10 10 0 -2
BITMAP
0000
3F00
0200
0400
0800
1000
2000
3F00
0000
0000
ENDCHAR

STARTCHAR Ca3db
ENCODING 41947
SWIDTH 1000 0
DWIDTH 10 0
BBX 10 10 0 -2
BITMAP
0000
0000
0000
0000
0000
0000
0000
0000
0000
0000
ENDCHAR

STARTCHAR Ca3dc
ENCODING 41948
SWIDTH 1000 0
DWIDTH 10 0
BBX 10 10 0 -2
BITMAP
0000
0000
0000
0000
0000
0000
0000
0000
0000
0000
ENDCHAR

STARTCHAR Ca3dd
ENCODING 41949
SWIDTH 1000 0
DWIDTH 10 0
BBX 10 10 0 -2
BITMAP
0000
0000
0000
0000
0000
0000
0000
0000
0000
0000
ENDCHAR

STARTCHAR Ca3de
ENCODING 41950
SWIDTH 1000 0
DWIDTH 10 0
BBX 10 10 0 -2
BITMAP
0000
0000
0000
0000
0000
0000
0000
0000
0000
0000
ENDCHAR

STARTCHAR Ca3df
ENCODING 41951
SWIDTH 1000 0
DWIDTH 10 0
BBX 10 10 0 -2
BITMAP
0000
0000
0000
0000
0000
0000
0000
0000
0000
0000
ENDCHAR

STARTCHAR Ca3e0
ENCODING 41952
SWIDTH 1000 0
DWIDTH 10 0
BBX 10 10 0 -2
BITMAP
0000
0000
0000
0000
0000
0000
0000
0000
0000
0000
ENDCHAR

STARTCHAR Ca3e1
ENCODING 41953
SWIDTH 1000 0
DWIDTH 10 0
BBX 10 10 0 -2
BITMAP
0000
0000
0000
1800
2400
1C00
2400
1A00
0000
0000
ENDCHAR

STARTCHAR Ca3e2
ENCODING 41954
SWIDTH 1000 0
DWIDTH 10 0
BBX 10 10 0 -2
BITMAP
0000
1000
1000
1C00
1200
1200
1200
1C00
0000
0000
ENDCHAR

STARTCHAR Ca3e3
ENCODING 41955
SWIDTH 1000 0
DWIDTH 10 0
BBX 10 10 0 -2
BITMAP
0000
0000
0000
1C00
2200
2000
2200
1C00
0000
0000
ENDCHAR

STARTCHAR Ca3e4
ENCODING 41956
SWIDTH 1000 0
DWIDTH 10 0
BBX 10 10 0 -2
BITMAP
0000
0400
0400
1C00
2400
2400
2400
1C00
0000
0000
ENDCHAR

STARTCHAR Ca3e5
ENCODING 41957
SWIDTH 1000 0
DWIDTH 10 0
BBX 10 10 0 -2
BITMAP
0000
0000
0000
1C00
2200
3E00
2000
1E00
0000
0000
ENDCHAR

STARTCHAR Ca3e6
ENCODING 41958
SWIDTH 1000 0
DWIDTH 10 0
BBX 10 10 0 -2
BITMAP
0000
0600
0800
0800
1E00
0800
0800
0800
0000
0000
ENDCHAR

STARTCHAR Ca3e7
ENCODING 41959
SWIDTH 1000 0
DWIDTH 10 0
BBX 10 10 0 -2
BITMAP
0000
0000
0000
0E00
1200
1200
0E00
0200
1C00
0000
ENDCHAR

STARTCHAR Ca3e8
ENCODING 41960
SWIDTH 1000 0
DWIDTH 10 0
BBX 10 10 0 -2
BITMAP
0000
1000
1000
1C00
1200
1200
1200
1200
0000
0000
ENDCHAR

STARTCHAR Ca3e9
ENCODING 41961
SWIDTH 1000 0
DWIDTH 10 0
BBX 10 10 0 -2
BITMAP
0000
0800
0000
0800
0800
0800
0800
0800
0000
0000
ENDCHAR

STARTCHAR Ca3ea
ENCODING 41962
SWIDTH 1000 0
DWIDTH 10 0
BBX 10 10 0 -2
BITMAP
0000
0400
0000
0400
0400
0400
0400
0400
1800
0000
ENDCHAR

STARTCHAR Ca3eb
ENCODING 41963
SWIDTH 1000 0
DWIDTH 10 0
BBX 10 10 0 -2
BITMAP
0000
1000
1000
1200
1400
1C00
1200
1100
0000
0000
ENDCHAR

STARTCHAR Ca3ec
ENCODING 41964
SWIDTH 1000 0
DWIDTH 10 0
BBX 10 10 0 -2
BITMAP
0000
0800
0800
0800
0800
0800
0800
0800
0000
0000
ENDCHAR

STARTCHAR Ca3ed
ENCODING 41965
SWIDTH 1000 0
DWIDTH 10 0
BBX 10 10 0 -2
BITMAP
0000
0000
0000
3B00
2480
2480
2480
2480
0000
0000
ENDCHAR

STARTCHAR Ca3ee
ENCODING 41966
SWIDTH 1000 0
DWIDTH 10 0
BBX 10 10 0 -2
BITMAP
0000
0000
0000
3C00
2200
2200
2200
2200
0000
0000
ENDCHAR

STARTCHAR Ca3ef
ENCODING 41967
SWIDTH 1000 0
DWIDTH 10 0
BBX 10 10 0 -2
BITMAP
0000
0000
0000
1C00
2200
2200
2200
1C00
0000
0000
ENDCHAR

STARTCHAR Ca3f0
ENCODING 41968
SWIDTH 1000 0
DWIDTH 10 0
BBX 10 10 0 -2
BITMAP
0000
0000
0000
1C00
1200
1200
1C00
1000
1000
0000
ENDCHAR

STARTCHAR Ca3f1
ENCODING 41969
SWIDTH 1000 0
DWIDTH 10 0
BBX 10 10 0 -2
BITMAP
0000
0000
0000
1C00
2400
2400
1C00
0400
0400
0000
ENDCHAR

STARTCHAR Ca3f2
ENCODING 41970
SWIDTH 1000 0
DWIDTH 10 0
BBX 10 10 0 -2
BITMAP
0000
0000
0000
1600
1800
1000
1000
1000
0000
0000
ENDCHAR

STARTCHAR Ca3f3
ENCODING 41971
SWIDTH 1000 0
DWIDTH 10 0
BBX 10 10 0 -2
BITMAP
0000
0000
0000
1C00
2000
1C00
0200
3C00
0000
0000
ENDCHAR

STARTCHAR Ca3f4
ENCODING 41972
SWIDTH 1000 0
DWIDTH 10 0
BBX 10 10 0 -2
BITMAP
0000
1000
1000
3C00
1000
1000
1000
0C00
0000
0000
ENDCHAR

STARTCHAR Ca3f5
ENCODING 41973
SWIDTH 1000 0
DWIDTH 10 0
BBX 10 10 0 -2
BITMAP
0000
0000
0000
1200
1200
1200
1200
0E00
0000
0000
ENDCHAR

STARTCHAR Ca3f6
ENCODING 41974
SWIDTH 1000 0
DWIDTH 10 0
BBX 10 10 0 -2
BITMAP
0000
0000
0000
2200
2200
1400
1400
0800
0000
0000
ENDCHAR

STARTCHAR Ca3f7
ENCODING 41975
SWIDTH 1000 0
DWIDTH 10 0
BBX 10 10 0 -2
BITMAP
0000
0000
0000
4900
5500
5500
2200
2200
0000
0000
ENDCHAR

STARTCHAR Ca3f8
ENCODING 41976
SWIDTH 1000 0
DWIDTH 10 0
BBX 10 10 0 -2
BITMAP
0000
0000
0000
2200
1400
0800
1400
2200
0000
0000
ENDCHAR

STARTCHAR Ca3f9
ENCODING 41977
SWIDTH 1000 0
DWIDTH 10 0
BBX 10 10 0 -2
BITMAP
0000
0000
0000
2200
2200
1400
0800
1000
6000
0000
ENDCHAR

STARTCHAR Ca3fa
ENCODING 41978
SWIDTH 1000 0
DWIDTH 10 0
BBX 10 10 0 -2
BITMAP
0000
0000
0000
3E00
0400
0800
1000
3E00
0000
0000
ENDCHAR

STARTCHAR Ca4a1
ENCODING 42145
SWIDTH 1000 0
DWIDTH 10 0
BBX 10 10 0 -2
BITMAP
0000
0000
1000
3C00
1000
1E00
3500
5900
3600
0000
ENDCHAR

STARTCHAR Ca4a2
ENCODING 42146
SWIDTH 1000 0
DWIDTH 10 0
BBX 10 10 0 -2
BITMAP
0000
1000
1E00
7000
1F00
3480
5480
5880
3300
0000
ENDCHAR

STARTCHAR Ca4a3
ENCODING 42147
SWIDTH 1000 0
DWIDTH 10 0
BBX 10 10 0 -2
BITMAP
0000
0000
0000
2200
2200
2100
2900
1000
0000
0000
ENDCHAR

STARTCHAR Ca4a4
ENCODING 42148
SWIDTH 1000 0
DWIDTH 10 0
BBX 10 10 0 -2
BITMAP
0000
0000
4200
4100
4080
2880
3000
1000
0000
0000
ENDCHAR

STARTCHAR Ca4a5
ENCODING 42149
SWIDTH 1000 0
DWIDTH 10 0
BBX 10 10 0 -2
BITMAP
0000
0000
1C00
0000
1C00
2200
0200
0400
1800
0000
ENDCHAR

STARTCHAR Ca4a6
ENCODING 42150
SWIDTH 1000 0
DWIDTH 10 0
BBX 10 10 0 -2
BITMAP
0000
1E00
0000
0E00
3100
0100
0100
0200
1C00
0000
ENDCHAR

STARTCHAR Ca4a7
ENCODING 42151
SWIDTH 1000 0
DWIDTH 10 0
BBX 10 10 0 -2
BITMAP
0000
0000
1C00
0000
0E00
3400
0800
1400
2700
0000
ENDCHAR

STARTCHAR Ca4a8
ENCODING 42152
SWIDTH 1000 0
DWIDTH 10 0
BBX 10 10 0 -2
BITMAP
0000
1C00
0000
0E00
3400
0800
1400
2400
4380
0000
ENDCHAR

STARTCHAR Ca4a9
ENCODING 42153
SWIDTH 1000 0
DWIDTH 10 0
BBX 10 10 0 -2
BITMAP
0000
0000
0000
1000
3A00
1100
3C00
5200
3400
0000
ENDCHAR

STARTCHAR Ca4aa
ENCODING 42154
SWIDTH 1000 0
DWIDTH 10 0
BBX 10 10 0 -2
BITMAP
0000
1000
1D00
7080
1000
3E00
5100
5100
3600
0000
ENDCHAR

STARTCHAR Ca4ab
ENCODING 42155
SWIDTH 1000 0
DWIDTH 10 0
BBX 10 10 0 -2
BITMAP
0000
1000
1200
7900
2500
2480
2480
5400
4800
0000
ENDCHAR

STARTCHAR Ca4ac
ENCODING 42156
SWIDTH 1000 0
DWIDTH 10 0
BBX 10 10 0 -2
BITMAP
0000
1500
1280
7900
2500
2480
2480
5400
4800
0000
ENDCHAR

STARTCHAR Ca4ad
ENCODING 42157
SWIDTH 1000 0
DWIDTH 10 0
BBX 10 10 0 -2
BITMAP
0000
1000
0E00
3800
0700
7C00
2200
2000
1E00
0000
ENDCHAR

STARTCHAR Ca4ae
ENCODING 42158
SWIDTH 1000 0
DWIDTH 10 0
BBX 10 10 0 -2
BITMAP
0000
1500
0A80
3C00
0700
7C00
2200
2000
1E00
0000
ENDCHAR

STARTCHAR Ca4af
ENCODING 42159
SWIDTH 1000 0
DWIDTH 10 0
BBX 10 10 0 -2
BITMAP
0000
0400
0800
1000
2000
1000
0800
0400
0200
0000
ENDCHAR

STARTCHAR Ca4b0
ENCODING 42160
SWIDTH 1000 0
DWIDTH 10 0
BBX 10 10 0 -2
BITMAP
0000
0400
0800
1500
2280
1000
0800
0400
0200
0000
ENDCHAR

STARTCHAR Ca4b1
ENCODING 42161
SWIDTH 1000 0
DWIDTH 10 0
BBX 10 10 0 -2
BITMAP
0000
2200
2200
4F80
4200
4200
5200
6200
2400
0000
ENDCHAR

STARTCHAR Ca4b2
ENCODING 42162
SWIDTH 1000 0
DWIDTH 10 0
BBX 10 10 0 -2
BITMAP
0000
2500
2280
4F80
4200
4200
5200
6200
2400
0000
ENDCHAR

STARTCHAR Ca4b3
ENCODING 42163
SWIDTH 1000 0
DWIDTH 10 0
BBX 10 10 0 -2
BITMAP
0000
0000
3E00
0400
0000
0000
0000
4000
3F00
0000
ENDCHAR

STARTCHAR Ca4b4
ENCODING 42164
SWIDTH 1000 0
DWIDTH 10 0
BBX 10 10 0 -2
BITMAP
0000
0500
3E80
0400
0000
0000
0000
4000
3F00
0000
ENDCHAR

STARTCHAR Ca4b5
ENCODING 42165
SWIDTH 1000 0
DWIDTH 10 0
BBX 10 10 0 -2
BITMAP
0000
0800
0B00
7C00
0400
1E00
2100
2000
1E00
0000
ENDCHAR

STARTCHAR Ca4b6
ENCODING 42166
SWIDTH 1000 0
DWIDTH 10 0
BBX 10 10 0 -2
BITMAP
0000
0900
0A80
7F00
0400
1E00
2100
2000
1E00
0000
ENDCHAR

STARTCHAR Ca4b7
ENCODING 42167
SWIDTH 1000 0
DWIDTH 10 0
BBX 10 10 0 -2
BITMAP
0000
2000
2000
2000
2000
2100
2100
2200
1C00
0000
ENDCHAR

STARTCHAR Ca4b8
ENCODING 42168
SWIDTH 1000 0
DWIDTH 10 0
BBX 10 10 0 -2
BITMAP
0000
2000
2A00
2500
2000
2100
2100
2200
1C00
0000
ENDCHAR

STARTCHAR Ca4b9
ENCODING 42169
SWIDTH 1000 0
DWIDTH 10 0
BBX 10 10 0 -2
BITMAP
0000
0400
0400
7F80
1400
1400
0C00
0400
0800
0000
ENDCHAR

STARTCHAR Ca4ba
ENCODING 42170
SWIDTH 1000 0
DWIDTH 10 0
BBX 10 10 0 -2
BITMAP
0000
0600
0500
7F80
1400
1400
0C00
0400
0800
0000
ENDCHAR

STARTCHAR Ca4bb
ENCODING 42171
SWIDTH 1000 0
DWIDTH 10 0
BBX 10 10 0 -2
BITMAP
0000
2200
2200
7F80
2200
2600
2000
2000
1F00
0000
ENDCHAR

STARTCHAR Ca4bc
ENCODING 42172
SWIDTH 1000 0
DWIDTH 10 0
BBX 10 10 0 -2
BITMAP
0000
2500
2280
7F80
2200
2600
2000
2000
1F00
0000
ENDCHAR

STARTCHAR Ca4bd
ENCODING 42173
SWIDTH 1000 0
DWIDTH 10 0
BBX 10 10 0 -2
BITMAP
0000
1E00
0400
0800
1F80
6400
0800
0800
0600
0000
ENDCHAR

STARTCHAR Ca4be
ENCODING 42174
SWIDTH 1000 0
DWIDTH 10 0
BBX 10 10 0 -2
BITMAP
0000
1D00
0680
0800
1F80
6400
0800
0800
0600
0000
ENDCHAR

STARTCHAR Ca4bf
ENCODING 42175
SWIDTH 1000 0
DWIDTH 10 0
BBX 10 10 0 -2
BITMAP
0000
1000
1C00
7000
1700
2000
2000
4800
4700
0000
ENDCHAR

STARTCHAR Ca4c0
ENCODING 42176
SWIDTH 1000 0
DWIDTH 10 0
BBX 10 10 0 -2
BITMAP
0000
1500
1E80
7000
1700
2000
2000
4800
4700
0000
ENDCHAR

STARTCHAR Ca4c1
ENCODING 42177
SWIDTH 1000 0
DWIDTH 10 0
BBX 10 10 0 -2
BITMAP
0000
0800
0E00
7000
1000
1700
1880
0080
0700
0000
ENDCHAR

STARTCHAR Ca4c2
ENCODING 42178
SWIDTH 1000 0
DWIDTH 10 0
BBX 10 10 0 -2
BITMAP
0000
0D00
0A80
7E00
1000
1700
1880
0080
0700
0000
ENDCHAR

STARTCHAR Ca4c3
ENCODING 42179
SWIDTH 1000 0
DWIDTH 10 0
BBX 10 10 0 -2
BITMAP
0000
0000
0000
0000
0F00
3080
0080
0100
0E00
0000
ENDCHAR

STARTCHAR Ca4c4
ENCODING 42180
SWIDTH 1000 0
DWIDTH 10 0
BBX 10 10 0 -2
BITMAP
0000
0000
0000
0F00
7080
0080
0080
0300
1C00
0000
ENDCHAR

STARTCHAR Ca4c5
ENCODING 42181
SWIDTH 1000 0
DWIDTH 10 0
BBX 10 10 0 -2
BITMAP
0000
0500
0280
0F00
7080
0080
0080
0300
1C00
0000
ENDCHAR

STARTCHAR Ca4c6
ENCODING 42182
SWIDTH 1000 0
DWIDTH 10 0
BBX 10 10 0 -2
BITMAP
0000
0000
0700
7800
0800
1000
1000
0800
0600
0000
ENDCHAR

STARTCHAR Ca4c7
ENCODING 42183
SWIDTH 1000 0
DWIDTH 10 0
BBX 10 10 0 -2
BITMAP
0000
0000
0700
7D00
0A80
1000
1000
0800
0600
0000
ENDCHAR

STARTCHAR Ca4c8
ENCODING 42184
SWIDTH 1000 0
DWIDTH 10 0
BBX 10 10 0 -2
BITMAP
0000
2000
1000
1300
0C00
1000
2000
2000
1F00
0000
ENDCHAR

STARTCHAR Ca4c9
ENCODING 42185
SWIDTH 1000 0
DWIDTH 10 0
BBX 10 10 0 -2
BITMAP
0000
2500
1280
1300
0C00
1000
2000
2000
1F00
0000
ENDCHAR

STARTCHAR Ca4ca
ENCODING 42186
SWIDTH 1000 0
DWIDTH 10 0
BBX 10 10 0 -2
BITMAP
0000
1000
7D00
2080
2280
4200
4E00
1300
0C80
0000
ENDCHAR

STARTCHAR Ca4cb
ENCODING 42187
SWIDTH 1000 0
DWIDTH 10 0
BBX 10 10 0 -2
BITMAP
0000
2000
2780
4100
4000
4000
5000
6400
2380
0000
ENDCHAR

STARTCHAR Ca4cc
ENCODING 42188
SWIDTH 1000 0
DWIDTH 10 0
BBX 10 10 0 -2
BITMAP
0000
0800
2E00
3900
2880
2880
5280
5500
2280
0000
ENDCHAR

STARTCHAR Ca4cd
ENCODING 42189
SWIDTH 1000 0
DWIDTH 10 0
BBX 10 10 0 -2
BITMAP
0000
1000
1000
7700
1880
1080
3280
5500
1280
0000
ENDCHAR

STARTCHAR Ca4ce
ENCODING 42190
SWIDTH 1000 0
DWIDTH 10 0
BBX 10 10 0 -2
BITMAP
0000
0000
1E00
2900
4880
4880
5080
5100
2600
0000
ENDCHAR

STARTCHAR Ca4cf
ENCODING 42191
SWIDTH 1000 0
DWIDTH 10 0
BBX 10 10 0 -2
BITMAP
0000
2200
2200
4F80
4200
4200
4600
6B00
2680
0000
ENDCHAR

STARTCHAR Ca4d0
ENCODING 42192
SWIDTH 1000 0
DWIDTH 10 0
BBX 10 10 0 -2
BITMAP
0000
2500
2280
4F00
4200
4200
4600
6B00
2680
0000
ENDCHAR

STARTCHAR Ca4d1
ENCODING 42193
SWIDTH 1000 0
DWIDTH 10 0
BBX 10 10 0 -2
BITMAP
0000
2300
2280
4F80
4200
4200
4600
6B00
2680
0000
ENDCHAR

STARTCHAR Ca4d2
ENCODING 42194
SWIDTH 1000 0
DWIDTH 10 0
BBX 10 10 0 -2
BITMAP
0000
1200
6200
2100
4280
4200
4200
4400
3800
0000
ENDCHAR

STARTCHAR Ca4d3
ENCODING 42195
SWIDTH 1000 0
DWIDTH 10 0
BBX 10 10 0 -2
BITMAP
0000
1500
6280
2200
4300
4280
4200
4400
3800
0000
ENDCHAR

STARTCHAR Ca4d4
ENCODING 42196
SWIDTH 1000 0
DWIDTH 10 0
BBX 10 10 0 -2
BITMAP
0000
1100
6280
2300
4280
4200
4200
4400
3800
0000
ENDCHAR

STARTCHAR Ca4d5
ENCODING 42197
SWIDTH 1000 0
DWIDTH 10 0
BBX 10 10 0 -2
BITMAP
0000
1800
0600
0800
0800
2500
2280
5280
0C00
0000
ENDCHAR

STARTCHAR Ca4d6
ENCODING 42198
SWIDTH 1000 0
DWIDTH 10 0
BBX 10 10 0 -2
BITMAP
0000
1500
0E80
0800
0800
2500
2280
5280
0C00
0000
ENDCHAR

STARTCHAR Ca4d7
ENCODING 42199
SWIDTH 1000 0
DWIDTH 10 0
BBX 10 10 0 -2
BITMAP
0000
1900
0680
0900
0800
2500
2280
5280
0C00
0000
ENDCHAR

STARTCHAR Ca4d8
ENCODING 42200
SWIDTH 1000 0
DWIDTH 10 0
BBX 10 10 0 -2
BITMAP
0000
0000
0000
1800
2400
4200
0100
0080
0000
0000
ENDCHAR

STARTCHAR Ca4d9
ENCODING 42201
SWIDTH 1000 0
DWIDTH 10 0
BBX 10 10 0 -2
BITMAP
0000
0500
0280
1800
2400
4200
0100
0080
0000
0000
ENDCHAR

STARTCHAR Ca4da
ENCODING 42202
SWIDTH 1000 0
DWIDTH 10 0
BBX 10 10 0 -2
BITMAP
0000
0100
0280
1900
2400
4200
0100
0080
0000
0000
ENDCHAR

STARTCHAR Ca4db
ENCODING 42203
SWIDTH 1000 0
DWIDTH 10 0
BBX 10 10 0 -2
BITMAP
0000
2000
2F00
4200
4F80
4200
4600
6B00
2680
0000
ENDCHAR

STARTCHAR Ca4dc
ENCODING 42204
SWIDTH 1000 0
DWIDTH 10 0
BBX 10 10 0 -2
BITMAP
0000
2500
2E80
4200
4F80
4200
4600
6B00
2680
0000
ENDCHAR

STARTCHAR Ca4dd
ENCODING 42205
SWIDTH 1000 0
DWIDTH 10 0
BBX 10 10 0 -2
BITMAP
0000
2100
2E80
4100
4F80
4200
4600
6B00
2680
0000
ENDCHAR

STARTCHAR Ca4de
ENCODING 42206
SWIDTH 1000 0
DWIDTH 10 0
BBX 10 10 0 -2
BITMAP
0000
0800
7F00
0800
3E00
0800
3800
4E00
3900
0000
ENDCHAR

STARTCHAR Ca4df
ENCODING 42207
SWIDTH 1000 0
DWIDTH 10 0
BBX 10 10 0 -2
BITMAP
0000
0000
3800
0800
0900
3D00
5300
5280
6400
0000
ENDCHAR

STARTCHAR Ca4e0
ENCODING 42208
SWIDTH 1000 0
DWIDTH 10 0
BBX 10 10 0 -2
BITMAP
0000
1000
7900
1080
3080
5000
5100
2100
1E00
0000
ENDCHAR

STARTCHAR Ca4e1
ENCODING 42209
SWIDTH 1000 0
DWIDTH 10 0
BBX 10 10 0 -2
BITMAP
0000
0400
2400
3F00
2480
6880
5880
5100
2200
0000
ENDCHAR

STARTCHAR Ca4e2
ENCODING 42210
SWIDTH 1000 0
DWIDTH 10 0
BBX 10 10 0 -2
BITMAP
0000
0800
0800
7C00
1000
3C80
1080
1080
0F00
0000
ENDCHAR

STARTCHAR Ca4e3
ENCODING 42211
SWIDTH 1000 0
DWIDTH 10 0
BBX 10 10 0 -2
BITMAP
0000
0000
1800
4400
2E00
3100
5600
0800
0800
0000
ENDCHAR

STARTCHAR Ca4e4
ENCODING 42212
SWIDTH 1000 0
DWIDTH 10 0
BBX 10 10 0 -2
BITMAP
0000
0C00
2200
1700
1880
6880
0B00
0400
0400
0000
ENDCHAR

STARTCHAR Ca4e5
ENCODING 42213
SWIDTH 1000 0
DWIDTH 10 0
BBX 10 10 0 -2
BITMAP
0000
0000
0400
2E00
3500
2500
2E00
0400
0800
0000
ENDCHAR

STARTCHAR Ca4e6
ENCODING 42214
SWIDTH 1000 0
DWIDTH 10 0
BBX 10 10 0 -2
BITMAP
0000
2200
2700
4A80
5280
5280
2700
2200
0400
0000
ENDCHAR

STARTCHAR Ca4e7
ENCODING 42215
SWIDTH 1000 0
DWIDTH 10 0
BBX 10 10 0 -2
BITMAP
0000
0000
0400
0400
0700
0400
1C00
2600
1D00
0000
ENDCHAR

STARTCHAR Ca4e8
ENCODING 42216
SWIDTH 1000 0
DWIDTH 10 0
BBX 10 10 0 -2
BITMAP
0000
0800
0800
0F00
0800
0800
3800
4E00
3900
0000
ENDCHAR

STARTCHAR Ca4e9
ENCODING 42217
SWIDTH 1000 0
DWIDTH 10 0
BBX 10 10 0 -2
BITMAP
0000
1800
0400
1000
2000
2E00
3100
2100
0E00
0000
ENDCHAR

STARTCHAR Ca4ea
ENCODING 42218
SWIDTH 1000 0
DWIDTH 10 0
BBX 10 10 0 -2
BITMAP
0000
0400
2200
2200
2200
2200
0200
0400
0800
0000
ENDCHAR

STARTCHAR Ca4eb
ENCODING 42219
SWIDTH 1000 0
DWIDTH 10 0
BBX 10 10 0 -2
BITMAP
0000
3E00
0400
0800
1E00
3100
4900
1500
0E00
0000
ENDCHAR

STARTCHAR Ca4ec
ENCODING 42220
SWIDTH 1000 0
DWIDTH 10 0
BBX 10 10 0 -2
BITMAP
0000
2000
2400
6A00
3200
2200
6280
2280
2100
0000
ENDCHAR

STARTCHAR Ca4ed
ENCODING 42221
SWIDTH 1000 0
DWIDTH 10 0
BBX 10 10 0 -2
BITMAP
0000
3E00
0400
0800
1F00
3080
4080
0100
0E00
0000
ENDCHAR

STARTCHAR Ca4ee
ENCODING 42222
SWIDTH 1000 0
DWIDTH 10 0
BBX 10 10 0 -2
BITMAP
0000
0000
0000
1000
3600
1900
1100
3100
1200
0000
ENDCHAR

STARTCHAR Ca4ef
ENCODING 42223
SWIDTH 1000 0
DWIDTH 10 0
BBX 10 10 0 -2
BITMAP
0000
1000
1000
7700
1880
1080
3080
5100
1200
0000
ENDCHAR

STARTCHAR Ca4f0
ENCODING 42224
SWIDTH 1000 0
DWIDTH 10 0
BBX 10 10 0 -2
BITMAP
0000
1C00
0400
0600
1900
2880
5280
5580
2300
0000
ENDCHAR

STARTCHAR Ca4f1
ENCODING 42225
SWIDTH 1000 0
DWIDTH 10 0
BBX 10 10 0 -2
BITMAP
0000
1E00
0400
0E00
1100
2500
0A00
3F00
4480
0000
ENDCHAR

STARTCHAR Ca4f2
ENCODING 42226
SWIDTH 1000 0
DWIDTH 10 0
BBX 10 10 0 -2
BITMAP
0000
1000
7C00
2000
3300
4C00
1400
2000
1F00
0000
ENDCHAR

STARTCHAR Ca4f3
ENCODING 42227
SWIDTH 1000 0
DWIDTH 10 0
BBX 10 10 0 -2
BITMAP
0000
0800
0800
1000
1000
3800
2480
4480
4300
0000
ENDCHAR

STARTCHAR Ca5a1
ENCODING 42401
SWIDTH 1000 0
DWIDTH 10 0
BBX 10 10 0 -2
BITMAP
0000
0000
0000
3F00
0200
0C00
0800
0800
1000
0000
ENDCHAR

STARTCHAR Ca5a2
ENCODING 42402
SWIDTH 1000 0
DWIDTH 10 0
BBX 10 10 0 -2
BITMAP
0000
0000
7F00
0100
0A00
0C00
0800
0800
1000
0000
ENDCHAR

STARTCHAR Ca5a3
ENCODING 42403
SWIDTH 1000 0
DWIDTH 10 0
BBX 10 10 0 -2
BITMAP
0000
0000
0200
0200
0400
0C00
3400
0400
0400
0000
ENDCHAR

STARTCHAR Ca5a4
ENCODING 42404
SWIDTH 1000 0
DWIDTH 10 0
BBX 10 10 0 -2
BITMAP
0000
0100
0100
0200
0400
1C00
6400
0400
0400
0000
ENDCHAR

STARTCHAR Ca5a5
ENCODING 42405
SWIDTH 1000 0
DWIDTH 10 0
BBX 10 10 0 -2
BITMAP
0000
0000
0000
0800
3E00
2200
2200
0400
0800
0000
ENDCHAR

STARTCHAR Ca5a6
ENCODING 42406
SWIDTH 1000 0
DWIDTH 10 0
BBX 10 10 0 -2
BITMAP
0000
0800
0800
7F00
4100
4100
0200
0400
1800
0000
ENDCHAR

STARTCHAR Ca5a7
ENCODING 42407
SWIDTH 1000 0
DWIDTH 10 0
BBX 10 10 0 -2
BITMAP
0000
0000
0000
0000
3E00
0800
0800
7F00
0000
0000
ENDCHAR

STARTCHAR Ca5a8
ENCODING 42408
SWIDTH 1000 0
DWIDTH 10 0
BBX 10 10 0 -2
BITMAP
0000
0000
0000
3F00
0800
0800
0800
0800
7F80
0000
ENDCHAR

STARTCHAR Ca5a9
ENCODING 42409
SWIDTH 1000 0
DWIDTH 10 0
BBX 10 10 0 -2
BITMAP
0000
0000
0000
0400
0400
3E00
1400
1400
2C00
0000
ENDCHAR

STARTCHAR Ca5aa
ENCODING 42410
SWIDTH 1000 0
DWIDTH 10 0
BBX 10 10 0 -2
BITMAP
0000
0400
0400
7F00
1400
1400
2400
4400
0C00
0000
ENDCHAR

STARTCHAR Ca5ab
ENCODING 42411
SWIDTH 1000 0
DWIDTH 10 0
BBX 10 10 0 -2
BITMAP
0000
0800
0800
7F00
0900
1100
1100
2500
4200
0000
ENDCHAR

STARTCHAR Ca5ac
ENCODING 42412
SWIDTH 1000 0
DWIDTH 10 0
BBX 10 10 0 -2
BITMAP
0000
0D00
0A80
7F00
0900
1100
1100
2500
4200
0000
ENDCHAR

STARTCHAR Ca5ad
ENCODING 42413
SWIDTH 1000 0
DWIDTH 10 0
BBX 10 10 0 -2
BITMAP
0000
1000
1000
3E00
0800
0800
7F00
0400
0400
0000
ENDCHAR

STARTCHAR Ca5ae
ENCODING 42414
SWIDTH 1000 0
DWIDTH 10 0
BBX 10 10 0 -2
BITMAP
0000
1500
1280
3E00
0800
0800
7F00
0400
0400
0000
ENDCHAR

STARTCHAR Ca5af
ENCODING 42415
SWIDTH 1000 0
DWIDTH 10 0
BBX 10 10 0 -2
BITMAP
0000
1000
1F00
2100
4200
0200
0400
1800
6000
0000
ENDCHAR

STARTCHAR Ca5b0
ENCODING 42416
SWIDTH 1000 0
DWIDTH 10 0
BBX 10 10 0 -2
BITMAP
0000
1100
1E80
2100
4200
0200
0400
1800
6000
0000
ENDCHAR

STARTCHAR Ca5b1
ENCODING 42417
SWIDTH 1000 0
DWIDTH 10 0
BBX 10 10 0 -2
BITMAP
0000
1000
1000
1F00
2400
4400
0400
0800
1000
0000
ENDCHAR

STARTCHAR Ca5b2
ENCODING 42418
SWIDTH 1000 0
DWIDTH 10 0
BBX 10 10 0 -2
BITMAP
0000
1500
1280
1F00
2400
4400
0400
0800
1000
0000
ENDCHAR

STARTCHAR Ca5b3
ENCODING 42419
SWIDTH 1000 0
DWIDTH 10 0
BBX 10 10 0 -2
BITMAP
0000
0000
0000
3F00
0100
0100
0100
0100
3F00
0000
ENDCHAR

STARTCHAR Ca5b4
ENCODING 42420
SWIDTH 1000 0
DWIDTH 10 0
BBX 10 10 0 -2
BITMAP
0000
0500
0280
7E00
0200
0200
0200
0200
7E00
0000
ENDCHAR

STARTCHAR Ca5b5
ENCODING 42421
SWIDTH 1000 0
DWIDTH 10 0
BBX 10 10 0 -2
BITMAP
0000
1200
1200
7F80
1200
1200
0200
0400
1800
0000
ENDCHAR

STARTCHAR Ca5b6
ENCODING 42422
SWIDTH 1000 0
DWIDTH 10 0
BBX 10 10 0 -2
BITMAP
0000
1500
1280
7F80
1200
1200
0200
0400
1800
0000
ENDCHAR

STARTCHAR Ca5b7
ENCODING 42423
SWIDTH 1000 0
DWIDTH 10 0
BBX 10 10 0 -2
BITMAP
0000
0000
3000
0880
6080
1100
0200
0C00
3000
0000
ENDCHAR

STARTCHAR Ca5b8
ENCODING 42424
SWIDTH 1000 0
DWIDTH 10 0
BBX 10 10 0 -2
BITMAP
0000
0500
3280
0800
6080
1100
0200
0C00
3000
0000
ENDCHAR

STARTCHAR Ca5b9
ENCODING 42425
SWIDTH 1000 0
DWIDTH 10 0
BBX 10 10 0 -2
BITMAP
0000
0000
3E00
0200
0400
0400
0A00
1100
6080
0000
ENDCHAR

STARTCHAR Ca5ba
ENCODING 42426
SWIDTH 1000 0
DWIDTH 10 0
BBX 10 10 0 -2
BITMAP
0000
0500
3E80
0200
0400
0400
0A00
1100
6080
0000
ENDCHAR

STARTCHAR Ca5bb
ENCODING 42427
SWIDTH 1000 0
DWIDTH 10 0
BBX 10 10 0 -2
BITMAP
0000
1000
1000
1F80
7100
1200
1000
1000
0F00
0000
ENDCHAR

STARTCHAR Ca5bc
ENCODING 42428
SWIDTH 1000 0
DWIDTH 10 0
BBX 10 10 0 -2
BITMAP
0000
1500
1280
1F80
7100
1200
1000
1000
0F00
0000
ENDCHAR

STARTCHAR Ca5bd
ENCODING 42429
SWIDTH 1000 0
DWIDTH 10 0
BBX 10 10 0 -2
BITMAP
0000
0000
4100
2100
2200
0200
0400
0800
3000
0000
ENDCHAR

STARTCHAR Ca5be
ENCODING 42430
SWIDTH 1000 0
DWIDTH 10 0
BBX 10 10 0 -2
BITMAP
0000
0500
4280
2100
2200
0200
0400
0800
3000
0000
ENDCHAR

STARTCHAR Ca5bf
ENCODING 42431
SWIDTH 1000 0
DWIDTH 10 0
BBX 10 10 0 -2
BITMAP
0000
1000
1F00
2100
5200
0A00
0400
1800
6000
0000
ENDCHAR

STARTCHAR Ca5c0
ENCODING 42432
SWIDTH 1000 0
DWIDTH 10 0
BBX 10 10 0 -2
BITMAP
0000
1100
1E80
2100
5200
0A00
0400
1800
6000
0000
ENDCHAR

STARTCHAR Ca5c1
ENCODING 42433
SWIDTH 1000 0
DWIDTH 10 0
BBX 10 10 0 -2
BITMAP
0000
0100
0600
3C00
0400
7F80
0400
0400
1800
0000
ENDCHAR

STARTCHAR Ca5c2
ENCODING 42434
SWIDTH 1000 0
DWIDTH 10 0
BBX 10 10 0 -2
BITMAP
0000
0500
0280
3C00
0400
7F80
0400
0400
1800
0000
ENDCHAR

STARTCHAR Ca5c3
ENCODING 42435
SWIDTH 1000 0
DWIDTH 10 0
BBX 10 10 0 -2
BITMAP
0000
0000
0000
0000
1200
4A00
2200
0400
1800
0000
ENDCHAR

STARTCHAR Ca5c4
ENCODING 42436
SWIDTH 1000 0
DWIDTH 10 0
BBX 10 10 0 -2
BITMAP
0000
0000
1080
4880
2900
2100
0200
0400
1800
0000
ENDCHAR

STARTCHAR Ca5c5
ENCODING 42437
SWIDTH 1000 0
DWIDTH 10 0
BBX 10 10 0 -2
BITMAP
0000
0500
1280
4880
2900
2100
0200
0400
3800
0000
ENDCHAR

STARTCHAR Ca5c6
ENCODING 42438
SWIDTH 1000 0
DWIDTH 10 0
BBX 10 10 0 -2
BITMAP
0000
1E00
0000
0000
7F80
0400
0400
0800
3000
0000
ENDCHAR

STARTCHAR Ca5c7
ENCODING 42439
SWIDTH 1000 0
DWIDTH 10 0
BBX 10 10 0 -2
BITMAP
0000
1D00
0280
0000
7F80
0400
0400
0800
3000
0000
ENDCHAR

STARTCHAR Ca5c8
ENCODING 42440
SWIDTH 1000 0
DWIDTH 10 0
BBX 10 10 0 -2
BITMAP
0000
1000
1000
1000
1800
1600
1100
1000
1000
0000
ENDCHAR

STARTCHAR Ca5c9
ENCODING 42441
SWIDTH 1000 0
DWIDTH 10 0
BBX 10 10 0 -2
BITMAP
0000
1500
1280
1000
1800
1600
1100
1000
1000
0000
ENDCHAR

STARTCHAR Ca5ca
ENCODING 42442
SWIDTH 1000 0
DWIDTH 10 0
BBX 10 10 0 -2
BITMAP
0000
0400
0400
7F80
0400
0400
0400
0800
3000
0000
ENDCHAR

STARTCHAR Ca5cb
ENCODING 42443
SWIDTH 1000 0
DWIDTH 10 0
BBX 10 10 0 -2
BITMAP
0000
0000
0000
3F00
0000
0000
0000
7F80
0000
0000
ENDCHAR

STARTCHAR Ca5cc
ENCODING 42444
SWIDTH 1000 0
DWIDTH 10 0
BBX 10 10 0 -2
BITMAP
0000
0000
3F00
0100
1200
0A00
0400
1A00
6100
0000
ENDCHAR

STARTCHAR Ca5cd
ENCODING 42445
SWIDTH 1000 0
DWIDTH 10 0
BBX 10 10 0 -2
BITMAP
0000
0800
0800
3E00
0200
0400
1B00
6880
0800
0000
ENDCHAR

STARTCHAR Ca5ce
ENCODING 42446
SWIDTH 1000 0
DWIDTH 10 0
BBX 10 10 0 -2
BITMAP
0000
0200
0200
0200
0400
0400
0800
3000
0000
0000
ENDCHAR

STARTCHAR Ca5cf
ENCODING 42447
SWIDTH 1000 0
DWIDTH 10 0
BBX 10 10 0 -2
BITMAP
0000
0000
0000
1200
1100
2100
2080
4080
0000
0000
ENDCHAR

STARTCHAR Ca5d0
ENCODING 42448
SWIDTH 1000 0
DWIDTH 10 0
BBX 10 10 0 -2
BITMAP
0000
0500
0280
1000
1200
2100
2080
4080
0000
0000
ENDCHAR

STARTCHAR Ca5d1
ENCODING 42449
SWIDTH 1000 0
DWIDTH 10 0
BBX 10 10 0 -2
BITMAP
0000
0100
0280
1100
1200
2100
2080
4080
0000
0000
ENDCHAR

STARTCHAR Ca5d2
ENCODING 42450
SWIDTH 1000 0
DWIDTH 10 0
BBX 10 10 0 -2
BITMAP
0000
2000
2000
2300
3C00
2000
2000
2000
1F00
0000
ENDCHAR

STARTCHAR Ca5d3
ENCODING 42451
SWIDTH 1000 0
DWIDTH 10 0
BBX 10 10 0 -2
BITMAP
0000
2500
2280
2000
3F00
2000
2000
2000
1F00
0000
ENDCHAR

STARTCHAR Ca5d4
ENCODING 42452
SWIDTH 1000 0
DWIDTH 10 0
BBX 10 10 0 -2
BITMAP
0000
2100
2280
2300
3C00
2000
2000
2000
1F00
0000
ENDCHAR

STARTCHAR Ca5d5
ENCODING 42453
SWIDTH 1000 0
DWIDTH 10 0
BBX 10 10 0 -2
BITMAP
0000
0000
7F00
0100
0200
0200
0400
0800
3000
0000
ENDCHAR

STARTCHAR Ca5d6
ENCODING 42454
SWIDTH 1000 0
DWIDTH 10 0
BBX 10 10 0 -2
BITMAP
0000
0500
7E80
0100
0200
0200
0400
0800
3000
0000
ENDCHAR

STARTCHAR Ca5d7
ENCODING 42455
SWIDTH 1000 0
DWIDTH 10 0
BBX 10 10 0 -2
BITMAP
0000
0100
7E80
0100
0200
0200
0400
0800
3000
0000
ENDCHAR

STARTCHAR Ca5d8
ENCODING 42456
SWIDTH 1000 0
DWIDTH 10 0
BBX 10 10 0 -2
BITMAP
0000
0000
0000
0800
1400
2200
4100
0080
0000
0000
ENDCHAR

STARTCHAR Ca5d9
ENCODING 42457
SWIDTH 1000 0
DWIDTH 10 0
BBX 10 10 0 -2
BITMAP
0000
0500
0280
0800
1400
2200
4100
0080
0000
0000
ENDCHAR

STARTCHAR Ca5da
ENCODING 42458
SWIDTH 1000 0
DWIDTH 10 0
BBX 10 10 0 -2
BITMAP
0000
0100
0280
0900
1400
2200
4100
0080
0000
0000
ENDCHAR

STARTCHAR Ca5db
ENCODING 42459
SWIDTH 1000 0
DWIDTH 10 0
BBX 10 10 0 -2
BITMAP
0000
0800
0800
7F00
0800
2A00
2900
4900
1800
0000
ENDCHAR

STARTCHAR Ca5dc
ENCODING 42460
SWIDTH 1000 0
DWIDTH 10 0
BBX 10 10 0 -2
BITMAP
0000
0D00
0A80
7F00
0800
2A00
2900
4900
1800
0000
ENDCHAR

STARTCHAR Ca5dd
ENCODING 42461
SWIDTH 1000 0
DWIDTH 10 0
BBX 10 10 0 -2
BITMAP
0000
0900
0A80
7F00
0800
2A00
2900
4900
1800
0000
ENDCHAR

STARTCHAR Ca5de
ENCODING 42462
SWIDTH 1000 0
DWIDTH 10 0
BBX 10 10 0 -2
BITMAP
0000
0000
7F00
0100
0200
3400
0800
0400
0200
0000
ENDCHAR

STARTCHAR Ca5df
ENCODING 42463
SWIDTH 1000 0
DWIDTH 10 0
BBX 10 10 0 -2
BITMAP
0000
1800
0600
0000
1800
0600
0000
3800
0700
0000
ENDCHAR

STARTCHAR Ca5e0
ENCODING 42464
SWIDTH 1000 0
DWIDTH 10 0
BBX 10 10 0 -2
BITMAP
0000
0800
0800
1000
1200
1100
2100
2780
7880
0000
ENDCHAR

STARTCHAR Ca5e1
ENCODING 42465
SWIDTH 1000 0
DWIDTH 10 0
BBX 10 10 0 -2
BITMAP
0000
0100
0100
2200
1A00
0400
0A00
1100
6000
0000
ENDCHAR

STARTCHAR Ca5e2
ENCODING 42466
SWIDTH 1000 0
DWIDTH 10 0
BBX 10 10 0 -2
BITMAP
0000
0000
3E00
1000
1000
7F00
1000
1000
0F00
0000
ENDCHAR

STARTCHAR Ca5e3
ENCODING 42467
SWIDTH 1000 0
DWIDTH 10 0
BBX 10 10 0 -2
BITMAP
0000
0000
0000
1000
0F00
3A00
0800
0400
0400
0000
ENDCHAR

STARTCHAR Ca5e4
ENCODING 42468
SWIDTH 1000 0
DWIDTH 10 0
BBX 10 10 0 -2
BITMAP
0000
2000
2000
1F00
7100
1200
0800
0800
0800
0000
ENDCHAR

STARTCHAR Ca5e5
ENCODING 42469
SWIDTH 1000 0
DWIDTH 10 0
BBX 10 10 0 -2
BITMAP
0000
0000
0000
0000
0000
3C00
0400
0400
3E00
0000
ENDCHAR

STARTCHAR Ca5e6
ENCODING 42470
SWIDTH 1000 0
DWIDTH 10 0
BBX 10 10 0 -2
BITMAP
0000
0000
0000
3E00
0200
0200
0200
0200
7F80
0000
ENDCHAR

STARTCHAR Ca5e7
ENCODING 42471
SWIDTH 1000 0
DWIDTH 10 0
BBX 10 10 0 -2
BITMAP
0000
0000
0000
0000
1E00
0200
1E00
0200
1E00
0000
ENDCHAR

STARTCHAR Ca5e8
ENCODING 42472
SWIDTH 1000 0
DWIDTH 10 0
BBX 10 10 0 -2
BITMAP
0000
0000
3F00
0100
0100
1F00
0100
0100
3F00
0000
ENDCHAR

STARTCHAR Ca5e9
ENCODING 42473
SWIDTH 1000 0
DWIDTH 10 0
BBX 10 10 0 -2
BITMAP
0000
3E00
0000
0000
7F00
0100
0200
0400
1800
0000
ENDCHAR

STARTCHAR Ca5ea
ENCODING 42474
SWIDTH 1000 0
DWIDTH 10 0
BBX 10 10 0 -2
BITMAP
0000
0200
2200
2200
2200
2200
0200
0400
1800
0000
ENDCHAR

STARTCHAR Ca5eb
ENCODING 42475
SWIDTH 1000 0
DWIDTH 10 0
BBX 10 10 0 -2
BITMAP
0000
0400
2400
2400
2400
2480
2480
4500
4600
0000
ENDCHAR

STARTCHAR Ca5ec
ENCODING 42476
SWIDTH 1000 0
DWIDTH 10 0
BBX 10 10 0 -2
BITMAP
0000
2000
2000
2000
2100
2100
2200
2C00
3000
0000
ENDCHAR

STARTCHAR Ca5ed
ENCODING 42477
SWIDTH 1000 0
DWIDTH 10 0
BBX 10 10 0 -2
BITMAP
0000
0000
7F00
4100
4100
4100
4100
7F00
0000
0000
ENDCHAR

STARTCHAR Ca5ee
ENCODING 42478
SWIDTH 1000 0
DWIDTH 10 0
BBX 10 10 0 -2
BITMAP
0000
0000
0000
0000
3E00
2200
2200
0400
0800
0000
ENDCHAR

STARTCHAR Ca5ef
ENCODING 42479
SWIDTH 1000 0
DWIDTH 10 0
BBX 10 10 0 -2
BITMAP
0000
0000
7F00
4100
4100
0200
0200
0400
1800
0000
ENDCHAR

STARTCHAR Ca5f0
ENCODING 42480
SWIDTH 1000 0
DWIDTH 10 0
BBX 10 10 0 -2
BITMAP
0000
0200
0200
3F00
1200
1200
7F80
0200
0200
0000
ENDCHAR

STARTCHAR Ca5f1
ENCODING 42481
SWIDTH 1000 0
DWIDTH 10 0
BBX 10 10 0 -2
BITMAP
0000
0000
3F00
0200
0C00
0800
0800
7F80
0000
0000
ENDCHAR

STARTCHAR Ca5f2
ENCODING 42482
SWIDTH 1000 0
DWIDTH 10 0
BBX 10 10 0 -2
BITMAP
0000
0000
7F00
0100
0100
3E00
0200
0400
1800
0000
ENDCHAR

STARTCHAR Ca5f3
ENCODING 42483
SWIDTH 1000 0
DWIDTH 10 0
BBX 10 10 0 -2
BITMAP
0000
0000
6080
1080
0100
0100
0200
0C00
3000
0000
ENDCHAR

STARTCHAR Ca5f4
ENCODING 42484
SWIDTH 1000 0
DWIDTH 10 0
BBX 10 10 0 -2
BITMAP
0000
0D00
0A80
7F00
4100
4100
0200
0400
1800
0000
ENDCHAR

STARTCHAR Ca5f5
ENCODING 42485
SWIDTH 1000 0
DWIDTH 10 0
BBX 10 10 0 -2
BITMAP
0000
0000
0000
0800
1F00
0900
0900
1100
2600
0000
ENDCHAR

STARTCHAR Ca5f6
ENCODING 42486
SWIDTH 1000 0
DWIDTH 10 0
BBX 10 10 0 -2
BITMAP
0000
0000
0000
1000
1F00
2400
0400
0800
1000
0000
ENDCHAR

STARTCHAR Ca6a1
ENCODING 42657
SWIDTH 1000 0
DWIDTH 10 0
BBX 10 10 0 -2
BITMAP
0000
0800
1400
1400
2200
3E00
4100
4100
0000
0000
ENDCHAR

STARTCHAR Ca6a2
ENCODING 42658
SWIDTH 1000 0
DWIDTH 10 0
BBX 10 10 0 -2
BITMAP
0000
3C00
2200
2200
3E00
2100
2100
3E00
0000
0000
ENDCHAR

STARTCHAR Ca6a3
ENCODING 42659
SWIDTH 1000 0
DWIDTH 10 0
BBX 10 10 0 -2
BITMAP
0000
3E00
2000
2000
2000
2000
2000
2000
0000
0000
ENDCHAR

STARTCHAR Ca6a4
ENCODING 42660
SWIDTH 1000 0
DWIDTH 10 0
BBX 10 10 0 -2
BITMAP
0000
0800
1400
1400
2200
2200
4100
7F00
0000
0000
ENDCHAR

STARTCHAR Ca6a5
ENCODING 42661
SWIDTH 1000 0
DWIDTH 10 0
BBX 10 10 0 -2
BITMAP
0000
3E00
2000
2000
3C00
2000
2000
3E00
0000
0000
ENDCHAR

STARTCHAR Ca6a6
ENCODING 42662
SWIDTH 1000 0
DWIDTH 10 0
BBX 10 10 0 -2
BITMAP
0000
3F00
0200
0400
0800
1000
2000
3F00
0000
0000
ENDCHAR

STARTCHAR Ca6a7
ENCODING 42663
SWIDTH 1000 0
DWIDTH 10 0
BBX 10 10 0 -2
BITMAP
0000
2100
2100
2100
3F00
2100
2100
2100
0000
0000
ENDCHAR

STARTCHAR Ca6a8
ENCODING 42664
SWIDTH 1000 0
DWIDTH 10 0
BBX 10 10 0 -2
BITMAP
0000
1C00
2200
4100
5D00
4100
2200
1C00
0000
0000
ENDCHAR

STARTCHAR Ca6a9
ENCODING 42665
SWIDTH 1000 0
DWIDTH 10 0
BBX 10 10 0 -2
BITMAP
0000
0800
0800
0800
0800
0800
0800
0800
0000
0000
ENDCHAR

STARTCHAR Ca6aa
ENCODING 42666
SWIDTH 1000 0
DWIDTH 10 0
BBX 10 10 0 -2
BITMAP
0000
2200
2400
2800
3800
2400
2200
2100
0000
0000
ENDCHAR

STARTCHAR Ca6ab
ENCODING 42667
SWIDTH 1000 0
DWIDTH 10 0
BBX 10 10 0 -2
BITMAP
0000
0800
1400
1400
2200
2200
4100
4100
0000
0000
ENDCHAR

STARTCHAR Ca6ac
ENCODING 42668
SWIDTH 1000 0
DWIDTH 10 0
BBX 10 10 0 -2
BITMAP
0000
4100
6300
5500
5500
4900
4900
4100
0000
0000
ENDCHAR

STARTCHAR Ca6ad
ENCODING 42669
SWIDTH 1000 0
DWIDTH 10 0
BBX 10 10 0 -2
BITMAP
0000
2100
3100
2900
2900
2500
2300
2100
0000
0000
ENDCHAR

STARTCHAR Ca6ae
ENCODING 42670
SWIDTH 1000 0
DWIDTH 10 0
BBX 10 10 0 -2
BITMAP
0000
3F00
0000
0000
1E00
0000
0000
3F00
0000
0000
ENDCHAR

STARTCHAR Ca6af
ENCODING 42671
SWIDTH 1000 0
DWIDTH 10 0
BBX 10 10 0 -2
BITMAP
0000
1C00
2200
4100
4100
4100
2200
1C00
0000
0000
ENDCHAR

STARTCHAR Ca6b0
ENCODING 42672
SWIDTH 1000 0
DWIDTH 10 0
BBX 10 10 0 -2
BITMAP
0000
3F00
2100
2100
2100
2100
2100
2100
0000
0000
ENDCHAR

STARTCHAR Ca6b1
ENCODING 42673
SWIDTH 1000 0
DWIDTH 10 0
BBX 10 10 0 -2
BITMAP
0000
1E00
1100
1100
1E00
1000
1000
1000
0000
0000
ENDCHAR

STARTCHAR Ca6b2
ENCODING 42674
SWIDTH 1000 0
DWIDTH 10 0
BBX 10 10 0 -2
BITMAP
0000
7E00
2000
1000
0800
1000
2000
7E00
0000
0000
ENDCHAR

STARTCHAR Ca6b3
ENCODING 42675
SWIDTH 1000 0
DWIDTH 10 0
BBX 10 10 0 -2
BITMAP
0000
7F00
0800
0800
0800
0800
0800
0800
0000
0000
ENDCHAR

STARTCHAR Ca6b4
ENCODING 42676
SWIDTH 1000 0
DWIDTH 10 0
BBX 10 10 0 -2
BITMAP
0000
3600
4900
0800
0800
0800
0800
0800
0000
0000
ENDCHAR

STARTCHAR Ca6b5
ENCODING 42677
SWIDTH 1000 0
DWIDTH 10 0
BBX 10 10 0 -2
BITMAP
0000
0800
3E00
4900
4900
3E00
0800
0800
0000
0000
ENDCHAR

STARTCHAR Ca6b6
ENCODING 42678
SWIDTH 1000 0
DWIDTH 10 0
BBX 10 10 0 -2
BITMAP
0000
2200
1400
0800
0800
1400
2200
4100
0000
0000
ENDCHAR

STARTCHAR Ca6b7
ENCODING 42679
SWIDTH 1000 0
DWIDTH 10 0
BBX 10 10 0 -2
BITMAP
0000
4900
2A00
2A00
2A00
1C00
0800
0800
0000
0000
ENDCHAR

STARTCHAR Ca6b8
ENCODING 42680
SWIDTH 1000 0
DWIDTH 10 0
BBX 10 10 0 -2
BITMAP
0000
1C00
2200
4100
4100
2200
1400
7700
0000
0000
ENDCHAR

STARTCHAR Ca6b9
ENCODING 42681
SWIDTH 1000 0
DWIDTH 10 0
BBX 10 10 0 -2
BITMAP
0000
0000
0000
0000
0000
0000
0000
0000
0000
0000
ENDCHAR

STARTCHAR Ca6ba
ENCODING 42682
SWIDTH 1000 0
DWIDTH 10 0
BBX 10 10 0 -2
BITMAP
0000
0000
0000
0000
0000
0000
0000
0000
0000
0000
ENDCHAR

STARTCHAR Ca6bb
ENCODING 42683
SWIDTH 1000 0
DWIDTH 10 0
BBX 10 10 0 -2
BITMAP
0000
0000
0000
0000
0000
0000
0000
0000
0000
0000
ENDCHAR

STARTCHAR Ca6bc
ENCODING 42684
SWIDTH 1000 0
DWIDTH 10 0
BBX 10 10 0 -2
BITMAP
0000
0000
0000
0000
0000
0000
0000
0000
0000
0000
ENDCHAR

STARTCHAR Ca6bd
ENCODING 42685
SWIDTH 1000 0
DWIDTH 10 0
BBX 10 10 0 -2
BITMAP
0000
0000
0000
0000
0000
0000
0000
0000
0000
0000
ENDCHAR

STARTCHAR Ca6be
ENCODING 42686
SWIDTH 1000 0
DWIDTH 10 0
BBX 10 10 0 -2
BITMAP
0000
0000
0000
0000
0000
0000
0000
0000
0000
0000
ENDCHAR

STARTCHAR Ca6bf
ENCODING 42687
SWIDTH 1000 0
DWIDTH 10 0
BBX 10 10 0 -2
BITMAP
0000
0000
0000
0000
0000
0000
0000
0000
0000
0000
ENDCHAR

STARTCHAR Ca6c0
ENCODING 42688
SWIDTH 1000 0
DWIDTH 10 0
BBX 10 10 0 -2
BITMAP
0000
0000
0000
0000
0000
0000
0000
0000
0000
0000
ENDCHAR

STARTCHAR Ca6c1
ENCODING 42689
SWIDTH 1000 0
DWIDTH 10 0
BBX 10 10 0 -2
BITMAP
0000
0000
0000
0D00
1200
2200
2480
1B00
0000
0000
ENDCHAR

STARTCHAR Ca6c2
ENCODING 42690
SWIDTH 1000 0
DWIDTH 10 0
BBX 10 10 0 -2
BITMAP
0000
0600
0900
0900
1600
1100
1100
2E00
2000
0000
ENDCHAR

STARTCHAR Ca6c3
ENCODING 42691
SWIDTH 1000 0
DWIDTH 10 0
BBX 10 10 0 -2
BITMAP
0000
0000
0000
1100
2A00
0400
0400
0800
0800
0000
ENDCHAR

STARTCHAR Ca6c4
ENCODING 42692
SWIDTH 1000 0
DWIDTH 10 0
BBX 10 10 0 -2
BITMAP
0000
0C00
1200
0800
1400
2400
2400
1800
0000
0000
ENDCHAR

STARTCHAR Ca6c5
ENCODING 42693
SWIDTH 1000 0
DWIDTH 10 0
BBX 10 10 0 -2
BITMAP
0000
0000
0000
1C00
2200
1800
2200
1C00
0000
0000
ENDCHAR

STARTCHAR Ca6c6
ENCODING 42694
SWIDTH 1000 0
DWIDTH 10 0
BBX 10 10 0 -2
BITMAP
0000
1600
1C00
0800
1000
1000
0C00
0200
0C00
0000
ENDCHAR

STARTCHAR Ca6c7
ENCODING 42695
SWIDTH 1000 0
DWIDTH 10 0
BBX 10 10 0 -2
BITMAP
0000
0000
0000
2C00
1200
1200
2200
2400
0400
0000
ENDCHAR

STARTCHAR Ca6c8
ENCODING 42696
SWIDTH 1000 0
DWIDTH 10 0
BBX 10 10 0 -2
BITMAP
0000
0C00
1200
2200
3E00
2200
2400
1800
0000
0000
ENDCHAR

STARTCHAR Ca6c9
ENCODING 42697
SWIDTH 1000 0
DWIDTH 10 0
BBX 10 10 0 -2
BITMAP
0000
0000
0000
0800
0800
1000
1400
1800
0000
0000
ENDCHAR

STARTCHAR Ca6ca
ENCODING 42698
SWIDTH 1000 0
DWIDTH 10 0
BBX 10 10 0 -2
BITMAP
0000
0000
0000
1300
1400
1800
2500
2600
0000
0000
ENDCHAR

STARTCHAR Ca6cb
ENCODING 42699
SWIDTH 1000 0
DWIDTH 10 0
BBX 10 10 0 -2
BITMAP
0000
1800
2400
0400
0400
0A00
1200
2100
0000
0000
ENDCHAR

STARTCHAR Ca6cc
ENCODING 42700
SWIDTH 1000 0
DWIDTH 10 0
BBX 10 10 0 -2
BITMAP
0000
0000
0000
0900
0900
1200
1280
2D00
2000
0000
ENDCHAR

STARTCHAR Ca6cd
ENCODING 42701
SWIDTH 1000 0
DWIDTH 10 0
BBX 10 10 0 -2
BITMAP
0000
0000
0000
1100
0900
0900
0A00
1C00
0000
0000
ENDCHAR

STARTCHAR Ca6ce
ENCODING 42702
SWIDTH 1000 0
DWIDTH 10 0
BBX 10 10 0 -2
BITMAP
0000
0400
0E00
1000
0E00
1000
0C00
0200
1C00
0000
ENDCHAR

STARTCHAR Ca6cf
ENCODING 42703
SWIDTH 1000 0
DWIDTH 10 0
BBX 10 10 0 -2
BITMAP
0000
0000
0000
0C00
1200
1200
1200
0C00
0000
0000
ENDCHAR

STARTCHAR Ca6d0
ENCODING 42704
SWIDTH 1000 0
DWIDTH 10 0
BBX 10 10 0 -2
BITMAP
0000
0000
0000
0F00
3400
1400
1500
2200
0000
0000
ENDCHAR

STARTCHAR Ca6d1
ENCODING 42705
SWIDTH 1000 0
DWIDTH 10 0
BBX 10 10 0 -2
BITMAP
0000
0000
0000
0C00
1200
1200
1200
1C00
1000
0000
ENDCHAR

STARTCHAR Ca6d2
ENCODING 42706
SWIDTH 1000 0
DWIDTH 10 0
BBX 10 10 0 -2
BITMAP
0000
0000
0000
0F00
1200
1200
1200
0C00
0000
0000
ENDCHAR

STARTCHAR Ca6d3
ENCODING 42707
SWIDTH 1000 0
DWIDTH 10 0
BBX 10 10 0 -2
BITMAP
0000
0000
0000
1E00
2800
0800
0A00
0400
0000
0000
ENDCHAR

STARTCHAR Ca6d4
ENCODING 42708
SWIDTH 1000 0
DWIDTH 10 0
BBX 10 10 0 -2
BITMAP
0000
0000
0000
1A00
2900
1100
1200
0C00
0000
0000
ENDCHAR

STARTCHAR Ca6d5
ENCODING 42709
SWIDTH 1000 0
DWIDTH 10 0
BBX 10 10 0 -2
BITMAP
0000
0400
0400
3E00
4900
4900
3E00
1000
1000
0000
ENDCHAR

STARTCHAR Ca6d6
ENCODING 42710
SWIDTH 1000 0
DWIDTH 10 0
BBX 10 10 0 -2
BITMAP
0000
0000
1100
2A00
0C00
0800
0800
1500
2200
0000
ENDCHAR

STARTCHAR Ca6d7
ENCODING 42711
SWIDTH 1000 0
DWIDTH 10 0
BBX 10 10 0 -2
BITMAP
0000
0400
0400
2800
4900
4900
3E00
1000
1000
0000
ENDCHAR

STARTCHAR Ca6d8
ENCODING 42712
SWIDTH 1000 0
DWIDTH 10 0
BBX 10 10 0 -2
BITMAP
0000
0000
0000
1200
2100
2900
2900
1600
0000
0000
ENDCHAR

STARTCHAR Ca7a1
ENCODING 42913
SWIDTH 1000 0
DWIDTH 10 0
BBX 10 10 0 -2
BITMAP
0000
0800
1400
1400
2200
3E00
4100
4100
0000
0000
ENDCHAR

STARTCHAR Ca7a2
ENCODING 42914
SWIDTH 1000 0
DWIDTH 10 0
BBX 10 10 0 -2
BITMAP
0000
3E00
2000
2000
3E00
2100
2100
3E00
0000
0000
ENDCHAR

STARTCHAR Ca7a3
ENCODING 42915
SWIDTH 1000 0
DWIDTH 10 0
BBX 10 10 0 -2
BITMAP
0000
3C00
2200
2200
3E00
2100
2100
3E00
0000
0000
ENDCHAR

STARTCHAR Ca7a4
ENCODING 42916
SWIDTH 1000 0
DWIDTH 10 0
BBX 10 10 0 -2
BITMAP
0000
3E00
2000
2000
2000
2000
2000
2000
0000
0000
ENDCHAR

STARTCHAR Ca7a5
ENCODING 42917
SWIDTH 1000 0
DWIDTH 10 0
BBX 10 10 0 -2
BITMAP
0000
1E00
1200
1200
1200
2200
2200
7F00
4100
0000
ENDCHAR

STARTCHAR Ca7a6
ENCODING 42918
SWIDTH 1000 0
DWIDTH 10 0
BBX 10 10 0 -2
BITMAP
0000
3E00
2000
2000
3C00
2000
2000
3E00
0000
0000
ENDCHAR

STARTCHAR Ca7a7
ENCODING 42919
SWIDTH 1000 0
DWIDTH 10 0
BBX 10 10 0 -2
BITMAP
0000
1400
3E00
2000
3C00
2000
2000
3E00
0000
0000
ENDCHAR

STARTCHAR Ca7a8
ENCODING 42920
SWIDTH 1000 0
DWIDTH 10 0
BBX 10 10 0 -2
BITMAP
0000
4900
2A00
2A00
1C00
2A00
2A00
4900
0000
0000
ENDCHAR

STARTCHAR Ca7a9
ENCODING 42921
SWIDTH 1000 0
DWIDTH 10 0
BBX 10 10 0 -2
BITMAP
0000
1E00
2100
0100
0E00
0100
2100
1E00
0000
0000
ENDCHAR

STARTCHAR Ca7aa
ENCODING 42922
SWIDTH 1000 0
DWIDTH 10 0
BBX 10 10 0 -2
BITMAP
0000
2100
2300
2500
2500
2900
3100
2100
0000
0000
ENDCHAR

STARTCHAR Ca7ab
ENCODING 42923
SWIDTH 1000 0
DWIDTH 10 0
BBX 10 10 0 -2
BITMAP
0000
1200
2D00
2300
2500
2900
3100
2100
0000
0000
ENDCHAR

STARTCHAR Ca7ac
ENCODING 42924
SWIDTH 1000 0
DWIDTH 10 0
BBX 10 10 0 -2
BITMAP
0000
2200
2200
2400
3800
2400
2200
2100
0000
0000
ENDCHAR

STARTCHAR Ca7ad
ENCODING 42925
SWIDTH 1000 0
DWIDTH 10 0
BBX 10 10 0 -2
BITMAP
0000
0F00
0900
0900
0900
0900
4900
3100
0000
0000
ENDCHAR

STARTCHAR Ca7ae
ENCODING 42926
SWIDTH 1000 0
DWIDTH 10 0
BBX 10 10 0 -2
BITMAP
0000
4100
6300
5500
5500
4D00
4900
4100
0000
0000
ENDCHAR

STARTCHAR Ca7af
ENCODING 42927
SWIDTH 1000 0
DWIDTH 10 0
BBX 10 10 0 -2
BITMAP
0000
2100
2100
2100
3F00
2100
2100
2100
0000
0000
ENDCHAR

STARTCHAR Ca7b0
ENCODING 42928
SWIDTH 1000 0
DWIDTH 10 0
BBX 10 10 0 -2
BITMAP
0000
1C00
2200
4100
4100
4100
2200
1C00
0000
0000
ENDCHAR

STARTCHAR Ca7b1
ENCODING 42929
SWIDTH 1000 0
DWIDTH 10 0
BBX 10 10 0 -2
BITMAP
0000
3F00
2100
2100
2100
2100
2100
2100
0000
0000
ENDCHAR

STARTCHAR Ca7b2
ENCODING 42930
SWIDTH 1000 0
DWIDTH 10 0
BBX 10 10 0 -2
BITMAP
0000
1E00
1100
1100
1E00
1000
1000
1000
0000
0000
ENDCHAR

STARTCHAR Ca7b3
ENCODING 42931
SWIDTH 1000 0
DWIDTH 10 0
BBX 10 10 0 -2
BITMAP
0000
0E00
1100
2000
2000
2000
1100
0E00
0000
0000
ENDCHAR

STARTCHAR Ca7b4
ENCODING 42932
SWIDTH 1000 0
DWIDTH 10 0
BBX 10 10 0 -2
BITMAP
0000
7F00
0800
0800
0800
0800
0800
0800
0000
0000
ENDCHAR

STARTCHAR Ca7b5
ENCODING 42933
SWIDTH 1000 0
DWIDTH 10 0
BBX 10 10 0 -2
BITMAP
0000
2100
1200
0A00
0400
0800
0800
3000
0000
0000
ENDCHAR

STARTCHAR Ca7b6
ENCODING 42934
SWIDTH 1000 0
DWIDTH 10 0
BBX 10 10 0 -2
BITMAP
0000
0800
3E00
4900
4900
3E00
0800
0800
0000
0000
ENDCHAR

STARTCHAR Ca7b7
ENCODING 42935
SWIDTH 1000 0
DWIDTH 10 0
BBX 10 10 0 -2
BITMAP
0000
2200
1400
0800
0800
1400
2200
4100
0000
0000
ENDCHAR

STARTCHAR Ca7b8
ENCODING 42936
SWIDTH 1000 0
DWIDTH 10 0
BBX 10 10 0 -2
BITMAP
0000
2200
2200
2200
2200
2200
2200
3F00
0100
0000
ENDCHAR

STARTCHAR Ca7b9
ENCODING 42937
SWIDTH 1000 0
DWIDTH 10 0
BBX 10 10 0 -2
BITMAP
0000
2200
2200
2200
2200
1E00
0200
0200
0000
0000
ENDCHAR

STARTCHAR Ca7ba
ENCODING 42938
SWIDTH 1000 0
DWIDTH 10 0
BBX 10 10 0 -2
BITMAP
0000
4900
4900
4900
4900
4900
4900
7F00
0000
0000
ENDCHAR

STARTCHAR Ca7bb
ENCODING 42939
SWIDTH 1000 0
DWIDTH 10 0
BBX 10 10 0 -2
BITMAP
0000
4900
4900
4900
4900
4900
4900
7F80
0080
0000
ENDCHAR

STARTCHAR Ca7bc
ENCODING 42940
SWIDTH 1000 0
DWIDTH 10 0
BBX 10 10 0 -2
BITMAP
0000
7000
1000
1000
1E00
1100
1100
1E00
0000
0000
ENDCHAR

STARTCHAR Ca7bd
ENCODING 42941
SWIDTH 1000 0
DWIDTH 10 0
BBX 10 10 0 -2
BITMAP
0000
4100
4100
4100
7900
4500
4500
7900
0000
0000
ENDCHAR

STARTCHAR Ca7be
ENCODING 42942
SWIDTH 1000 0
DWIDTH 10 0
BBX 10 10 0 -2
BITMAP
0000
1000
1000
1000
1E00
1100
1100
1E00
0000
0000
ENDCHAR

STARTCHAR Ca7bf
ENCODING 42943
SWIDTH 1000 0
DWIDTH 10 0
BBX 10 10 0 -2
BITMAP
0000
1C00
2200
0100
1D00
0100
2200
1C00
0000
0000
ENDCHAR

STARTCHAR Ca7c0
ENCODING 42944
SWIDTH 1000 0
DWIDTH 10 0
BBX 10 10 0 -2
BITMAP
0000
4E00
5100
5100
7100
5100
5100
4E00
0000
0000
ENDCHAR

STARTCHAR Ca7c1
ENCODING 42945
SWIDTH 1000 0
DWIDTH 10 0
BBX 10 10 0 -2
BITMAP
0000
1F00
2100
2100
1F00
0900
1100
2100
0000
0000
ENDCHAR

STARTCHAR Ca7c2
ENCODING 42946
SWIDTH 1000 0
DWIDTH 10 0
BBX 10 10 0 -2
BITMAP
0000
0000
0000
0000
0000
0000
0000
0000
0000
0000
ENDCHAR

STARTCHAR Ca7c3
ENCODING 42947
SWIDTH 1000 0
DWIDTH 10 0
BBX 10 10 0 -2
BITMAP
0000
0000
0000
0000
0000
0000
0000
0000
0000
0000
ENDCHAR

STARTCHAR Ca7c4
ENCODING 42948
SWIDTH 1000 0
DWIDTH 10 0
BBX 10 10 0 -2
BITMAP
0000
0000
0000
0000
0000
0000
0000
0000
0000
0000
ENDCHAR

STARTCHAR Ca7c5
ENCODING 42949
SWIDTH 1000 0
DWIDTH 10 0
BBX 10 10 0 -2
BITMAP
0000
0000
0000
0000
0000
0000
0000
0000
0000
0000
ENDCHAR

STARTCHAR Ca7c6
ENCODING 42950
SWIDTH 1000 0
DWIDTH 10 0
BBX 10 10 0 -2
BITMAP
0000
0000
0000
0000
0000
0000
0000
0000
0000
0000
ENDCHAR

STARTCHAR Ca7c7
ENCODING 42951
SWIDTH 1000 0
DWIDTH 10 0
BBX 10 10 0 -2
BITMAP
0000
0000
0000
0000
0000
0000
0000
0000
0000
0000
ENDCHAR

STARTCHAR Ca7c8
ENCODING 42952
SWIDTH 1000 0
DWIDTH 10 0
BBX 10 10 0 -2
BITMAP
0000
0000
0000
0000
0000
0000
0000
0000
0000
0000
ENDCHAR

STARTCHAR Ca7c9
ENCODING 42953
SWIDTH 1000 0
DWIDTH 10 0
BBX 10 10 0 -2
BITMAP
0000
0000
0000
0000
0000
0000
0000
0000
0000
0000
ENDCHAR

STARTCHAR Ca7ca
ENCODING 42954
SWIDTH 1000 0
DWIDTH 10 0
BBX 10 10 0 -2
BITMAP
0000
0000
0000
0000
0000
0000
0000
0000
0000
0000
ENDCHAR

STARTCHAR Ca7cb
ENCODING 42955
SWIDTH 1000 0
DWIDTH 10 0
BBX 10 10 0 -2
BITMAP
0000
0000
0000
0000
0000
0000
0000
0000
0000
0000
ENDCHAR

STARTCHAR Ca7cc
ENCODING 42956
SWIDTH 1000 0
DWIDTH 10 0
BBX 10 10 0 -2
BITMAP
0000
0000
0000
0000
0000
0000
0000
0000
0000
0000
ENDCHAR

STARTCHAR Ca7cd
ENCODING 42957
SWIDTH 1000 0
DWIDTH 10 0
BBX 10 10 0 -2
BITMAP
0000
0000
0000
0000
0000
0000
0000
0000
0000
0000
ENDCHAR

STARTCHAR Ca7ce
ENCODING 42958
SWIDTH 1000 0
DWIDTH 10 0
BBX 10 10 0 -2
BITMAP
0000
0000
0000
0000
0000
0000
0000
0000
0000
0000
ENDCHAR

STARTCHAR Ca7cf
ENCODING 42959
SWIDTH 1000 0
DWIDTH 10 0
BBX 10 10 0 -2
BITMAP
0000
0000
0000
0000
0000
0000
0000
0000
0000
0000
ENDCHAR

STARTCHAR Ca7d0
ENCODING 42960
SWIDTH 1000 0
DWIDTH 10 0
BBX 10 10 0 -2
BITMAP
0000
0000
0000
0000
0000
0000
0000
0000
0000
0000
ENDCHAR

STARTCHAR Ca7d1
ENCODING 42961
SWIDTH 1000 0
DWIDTH 10 0
BBX 10 10 0 -2
BITMAP
0000
0000
0000
1800
2400
1C00
2400
1A00
0000
0000
ENDCHAR

STARTCHAR Ca7d2
ENCODING 42962
SWIDTH 1000 0
DWIDTH 10 0
BBX 10 10 0 -2
BITMAP
0000
1C00
2000
3800
2400
2400
2400
1800
0000
0000
ENDCHAR

STARTCHAR Ca7d3
ENCODING 42963
SWIDTH 1000 0
DWIDTH 10 0
BBX 10 10 0 -2
BITMAP
0000
0000
0000
1C00
1200
1C00
1200
1C00
0000
0000
ENDCHAR

STARTCHAR Ca7d4
ENCODING 42964
SWIDTH 1000 0
DWIDTH 10 0
BBX 10 10 0 -2
BITMAP
0000
0000
0000
1E00
1000
1000
1000
1000
0000
0000
ENDCHAR

STARTCHAR Ca7d5
ENCODING 42965
SWIDTH 1000 0
DWIDTH 10 0
BBX 10 10 0 -2
BITMAP
0000
0000
0000
0E00
0A00
0A00
1200
3F00
2100
0000
ENDCHAR

STARTCHAR Ca7d6
ENCODING 42966
SWIDTH 1000 0
DWIDTH 10 0
BBX 10 10 0 -2
BITMAP
0000
0000
0000
1C00
2200
3E00
2000
1E00
0000
0000
ENDCHAR

STARTCHAR Ca7d7
ENCODING 42967
SWIDTH 1000 0
DWIDTH 10 0
BBX 10 10 0 -2
BITMAP
0000
1400
0000
1C00
2200
3E00
2000
1E00
0000
0000
ENDCHAR

STARTCHAR Ca7d8
ENCODING 42968
SWIDTH 1000 0
DWIDTH 10 0
BBX 10 10 0 -2
BITMAP
0000
0000
0000
4900
2A00
1C00
2A00
4900
0000
0000
ENDCHAR

STARTCHAR Ca7d9
ENCODING 42969
SWIDTH 1000 0
DWIDTH 10 0
BBX 10 10 0 -2
BITMAP
0000
0000
0000
1C00
2200
0C00
2200
1C00
0000
0000
ENDCHAR

STARTCHAR Ca7da
ENCODING 42970
SWIDTH 1000 0
DWIDTH 10 0
BBX 10 10 0 -2
BITMAP
0000
0000
0000
2200
2600
2A00
3200
2200
0000
0000
ENDCHAR

STARTCHAR Ca7db
ENCODING 42971
SWIDTH 1000 0
DWIDTH 10 0
BBX 10 10 0 -2
BITMAP
0000
1200
0C00
2200
2600
2A00
3200
2200
0000
0000
ENDCHAR

STARTCHAR Ca7dc
ENCODING 42972
SWIDTH 1000 0
DWIDTH 10 0
BBX 10 10 0 -2
BITMAP
0000
0000
0000
1200
1200
1C00
1200
1100
0000
0000
ENDCHAR

STARTCHAR Ca7dd
ENCODING 42973
SWIDTH 1000 0
DWIDTH 10 0
BBX 10 10 0 -2
BITMAP
0000
0000
0000
0E00
0A00
0A00
2A00
1200
0000
0000
ENDCHAR

STARTCHAR Ca7de
ENCODING 42974
SWIDTH 1000 0
DWIDTH 10 0
BBX 10 10 0 -2
BITMAP
0000
0000
0000
2200
3600
2A00
2A00
2200
0000
0000
ENDCHAR

STARTCHAR Ca7df
ENCODING 42975
SWIDTH 1000 0
DWIDTH 10 0
BBX 10 10 0 -2
BITMAP
0000
0000
0000
1200
1200
1E00
1200
1200
0000
0000
ENDCHAR

STARTCHAR Ca7e0
ENCODING 42976
SWIDTH 1000 0
DWIDTH 10 0
BBX 10 10 0 -2
BITMAP
0000
0000
0000
1C00
2200
2200
2200
1C00
0000
0000
ENDCHAR

STARTCHAR Ca7e1
ENCODING 42977
SWIDTH 1000 0
DWIDTH 10 0
BBX 10 10 0 -2
BITMAP
0000
0000
0000
1E00
1200
1200
1200
1200
0000
0000
ENDCHAR

STARTCHAR Ca7e2
ENCODING 42978
SWIDTH 1000 0
DWIDTH 10 0
BBX 10 10 0 -2
BITMAP
0000
0000
0000
1C00
1200
1200
1C00
1000
1000
0000
ENDCHAR

STARTCHAR Ca7e3
ENCODING 42979
SWIDTH 1000 0
DWIDTH 10 0
BBX 10 10 0 -2
BITMAP
0000
0000
0000
1C00
2200
2000
2200
1C00
0000
0000
ENDCHAR

STARTCHAR Ca7e4
ENCODING 42980
SWIDTH 1000 0
DWIDTH 10 0
BBX 10 10 0 -2
BITMAP
0000
0000
0000
3E00
0800
0800
0800
0800
0000
0000
ENDCHAR

STARTCHAR Ca7e5
ENCODING 42981
SWIDTH 1000 0
DWIDTH 10 0
BBX 10 10 0 -2
BITMAP
0000
0000
0000
1100
0A00
0400
0400
0800
3000
0000
ENDCHAR

STARTCHAR Ca7e6
ENCODING 42982
SWIDTH 1000 0
DWIDTH 10 0
BBX 10 10 0 -2
BITMAP
0000
0800
2A00
5D00
4900
4900
5D00
2A00
0800
0000
ENDCHAR

STARTCHAR Ca7e7
ENCODING 42983
SWIDTH 1000 0
DWIDTH 10 0
BBX 10 10 0 -2
BITMAP
0000
0000
0000
2200
1400
0800
1400
2200
0000
0000
ENDCHAR

STARTCHAR Ca7e8
ENCODING 42984
SWIDTH 1000 0
DWIDTH 10 0
BBX 10 10 0 -2
BITMAP
0000
0000
0000
1200
1200
1200
1200
1F00
0100
0000
ENDCHAR

STARTCHAR Ca7e9
ENCODING 42985
SWIDTH 1000 0
DWIDTH 10 0
BBX 10 10 0 -2
BITMAP
0000
0000
0000
1200
1200
0E00
0200
0200
0000
0000
ENDCHAR

STARTCHAR Ca7ea
ENCODING 42986
SWIDTH 1000 0
DWIDTH 10 0
BBX 10 10 0 -2
BITMAP
0000
0000
0000
4900
4900
4900
4900
7F00
0000
0000
ENDCHAR

STARTCHAR Ca7eb
ENCODING 42987
SWIDTH 1000 0
DWIDTH 10 0
BBX 10 10 0 -2
BITMAP
0000
0000
0000
4900
4900
4900
4900
7F80
0080
0000
ENDCHAR

STARTCHAR Ca7ec
ENCODING 42988
SWIDTH 1000 0
DWIDTH 10 0
BBX 10 10 0 -2
BITMAP
0000
0000
0000
1800
0800
0E00
0900
0E00
0000
0000
ENDCHAR

STARTCHAR Ca7ed
ENCODING 42989
SWIDTH 1000 0
DWIDTH 10 0
BBX 10 10 0 -2
BITMAP
0000
0000
0000
2100
2100
3900
2500
3900
0000
0000
ENDCHAR

STARTCHAR Ca7ee
ENCODING 42990
SWIDTH 1000 0
DWIDTH 10 0
BBX 10 10 0 -2
BITMAP
0000
0000
0000
1000
1000
1C00
1200
1C00
0000
0000
ENDCHAR

STARTCHAR Ca7ef
ENCODING 42991
SWIDTH 1000 0
DWIDTH 10 0
BBX 10 10 0 -2
BITMAP
0000
0000
0000
1C00
0200
1A00
0200
1C00
0000
0000
ENDCHAR

STARTCHAR Ca7f0
ENCODING 42992
SWIDTH 1000 0
DWIDTH 10 0
BBX 10 10 0 -2
BITMAP
0000
0000
0000
2600
2900
3900
2900
2600
0000
0000
ENDCHAR

STARTCHAR Ca7f1
ENCODING 42993
SWIDTH 1000 0
DWIDTH 10 0
BBX 10 10 0 -2
BITMAP
0000
0000
0000
0E00
1200
0E00
0A00
1200
0000
0000
ENDCHAR

STARTCHAR Ca8a1
ENCODING 43169
SWIDTH 1000 0
DWIDTH 10 0
BBX 10 10 0 -2
BITMAP
0000
0000
0000
0000
FFC0
0000
0000
0000
0000
0000
ENDCHAR

STARTCHAR Ca8a2
ENCODING 43170
SWIDTH 1000 0
DWIDTH 10 0
BBX 10 10 0 -2
BITMAP
0800
0800
0800
0800
0800
0800
0800
0800
0800
0800
ENDCHAR

STARTCHAR Ca8a3
ENCODING 43171
SWIDTH 1000 0
DWIDTH 10 0
BBX 10 10 0 -2
BITMAP
0000
0000
0000
0000
0FC0
0800
0800
0800
0800
0800
ENDCHAR

STARTCHAR Ca8a4
ENCODING 43172
SWIDTH 1000 0
DWIDTH 10 0
BBX 10 10 0 -2
BITMAP
0000
0000
0000
0000
F800
0800
0800
0800
0800
0800
ENDCHAR

STARTCHAR Ca8a5
ENCODING 43173
SWIDTH 1000 0
DWIDTH 10 0
BBX 10 10 0 -2
BITMAP
0800
0800
0800
0800
F800
0000
0000
0000
0000
0000
ENDCHAR

STARTCHAR Ca8a6
ENCODING 43174
SWIDTH 1000 0
DWIDTH 10 0
BBX 10 10 0 -2
BITMAP
0800
0800
0800
0800
0FC0
0000
0000
0000
0000
0000
ENDCHAR

STARTCHAR Ca8a7
ENCODING 43175
SWIDTH 1000 0
DWIDTH 10 0
BBX 10 10 0 -2
BITMAP
0800
0800
0800
0800
0FC0
0800
0800
0800
0800
0800
ENDCHAR

STARTCHAR Ca8a8
ENCODING 43176
SWIDTH 1000 0
DWIDTH 10 0
BBX 10 10 0 -2
BITMAP
0000
0000
0000
0000
FFC0
0800
0800
0800
0800
0800
ENDCHAR

STARTCHAR Ca8a9
ENCODING 43177
SWIDTH 1000 0
DWIDTH 10 0
BBX 10 10 0 -2
BITMAP
0800
0800
0800
0800
F800
0800
0800
0800
0800
0800
ENDCHAR

STARTCHAR Ca8aa
ENCODING 43178
SWIDTH 1000 0
DWIDTH 10 0
BBX 10 10 0 -2
BITMAP
0800
0800
0800
0800
FFC0
0000
0000
0000
0000
0000
ENDCHAR

STARTCHAR Ca8ab
ENCODING 43179
SWIDTH 1000 0
DWIDTH 10 0
BBX 10 10 0 -2
BITMAP
0800
0800
0800
0800
FFC0
0800
0800
0800
0800
0800
ENDCHAR

STARTCHAR Ca8ac
ENCODING 43180
SWIDTH 1000 0
DWIDTH 10 0
BBX 10 10 0 -2
BITMAP
0000
0000
0000
0000
FFC0
FFC0
0000
0000
0000
0000
ENDCHAR

STARTCHAR Ca8ad
ENCODING 43181
SWIDTH 1000 0
DWIDTH 10 0
BBX 10 10 0 -2
BITMAP
0C00
0C00
0C00
0C00
0C00
0C00
0C00
0C00
0C00
0C00
ENDCHAR

STARTCHAR Ca8ae
ENCODING 43182
SWIDTH 1000 0
DWIDTH 10 0
BBX 10 10 0 -2
BITMAP
0000
0000
0000
0000
0FC0
0FC0
0C00
0C00
0C00
0C00
ENDCHAR

STARTCHAR Ca8af
ENCODING 43183
SWIDTH 1000 0
DWIDTH 10 0
BBX 10 10 0 -2
BITMAP
0000
0000
0000
0000
FC00
FC00
0C00
0C00
0C00
0C00
ENDCHAR

STARTCHAR Ca8b0
ENCODING 43184
SWIDTH 1000 0
DWIDTH 10 0
BBX 10 10 0 -2
BITMAP
0C00
0C00
0C00
0C00
FC00
FC00
0000
0000
0000
0000
ENDCHAR

STARTCHAR Ca8b1
ENCODING 43185
SWIDTH 1000 0
DWIDTH 10 0
BBX 10 10 0 -2
BITMAP
0C00
0C00
0C00
0C00
0FC0
0FC0
0000
0000
0000
0000
ENDCHAR

STARTCHAR Ca8b2
ENCODING 43186
SWIDTH 1000 0
DWIDTH 10 0
BBX 10 10 0 -2
BITMAP
0C00
0C00
0C00
0C00
0FC0
0FC0
0C00
0C00
0C00
0C00
ENDCHAR

STARTCHAR Ca8b3
ENCODING 43187
SWIDTH 1000 0
DWIDTH 10 0
BBX 10 10 0 -2
BITMAP
0000
0000
0000
0000
FFC0
FFC0
0C00
0C00
0C00
0C00
ENDCHAR

STARTCHAR Ca8b4
ENCODING 43188
SWIDTH 1000 0
DWIDTH 10 0
BBX 10 10 0 -2
BITMAP
0C00
0C00
0C00
0C00
FC00
FC00
0C00
0C00
0C00
0C00
ENDCHAR

STARTCHAR Ca8b5
ENCODING 43189
SWIDTH 1000 0
DWIDTH 10 0
BBX 10 10 0 -2
BITMAP
0C00
0C00
0C00
0C00
FFC0
FFC0
0000
0000
0000
0000
ENDCHAR

STARTCHAR Ca8b6
ENCODING 43190
SWIDTH 1000 0
DWIDTH 10 0
BBX 10 10 0 -2
BITMAP
0C00
0C00
0C00
0C00
FFC0
FFC0
0C00
0C00
0C00
0C00
ENDCHAR

STARTCHAR Ca8b7
ENCODING 43191
SWIDTH 1000 0
DWIDTH 10 0
BBX 10 10 0 -2
BITMAP
0C00
0C00
0C00
0C00
0FC0
0C00
0C00
0C00
0C00
0C00
ENDCHAR

STARTCHAR Ca8b8
ENCODING 43192
SWIDTH 1000 0
DWIDTH 10 0
BBX 10 10 0 -2
BITMAP
0000
0000
0000
0000
FFC0
FFC0
0800
0800
0800
0800
ENDCHAR

STARTCHAR Ca8b9
ENCODING 43193
SWIDTH 1000 0
DWIDTH 10 0
BBX 10 10 0 -2
BITMAP
0C00
0C00
0C00
0C00
FC00
0C00
0C00
0C00
0C00
0C00
ENDCHAR

STARTCHAR Ca8ba
ENCODING 43194
SWIDTH 1000 0
DWIDTH 10 0
BBX 10 10 0 -2
BITMAP
0800
0800
0800
0800
FFC0
FFC0
0000
0000
0000
0000
ENDCHAR

STARTCHAR Ca8bb
ENCODING 43195
SWIDTH 1000 0
DWIDTH 10 0
BBX 10 10 0 -2
BITMAP
0800
0800
0800
0800
FFC0
FFC0
0800
0800
0800
0800
ENDCHAR

STARTCHAR Ca8bc
ENCODING 43196
SWIDTH 1000 0
DWIDTH 10 0
BBX 10 10 0 -2
BITMAP
0800
0800
0800
0800
0FC0
0FC0
0800
0800
0800
0800
ENDCHAR

STARTCHAR Ca8bd
ENCODING 43197
SWIDTH 1000 0
DWIDTH 10 0
BBX 10 10 0 -2
BITMAP
0000
0000
0000
0000
FFC0
0C00
0C00
0C00
0C00
0C00
ENDCHAR

STARTCHAR Ca8be
ENCODING 43198
SWIDTH 1000 0
DWIDTH 10 0
BBX 10 10 0 -2
BITMAP
0800
0800
0800
0800
F800
F800
0800
0800
0800
0800
ENDCHAR

STARTCHAR Ca8bf
ENCODING 43199
SWIDTH 1000 0
DWIDTH 10 0
BBX 10 10 0 -2
BITMAP
0C00
0C00
0C00
0C00
FFC0
0000
0000
0000
0000
0000
ENDCHAR

STARTCHAR Ca8c0
ENCODING 43200
SWIDTH 1000 0
DWIDTH 10 0
BBX 10 10 0 -2
BITMAP
0C00
0C00
0C00
0C00
FFC0
0C00
0C00
0C00
0C00
0C00
ENDCHAR

STARTCHAR Cb0a1
ENCODING 45217
SWIDTH 1000 0
DWIDTH 10 0
BBX 10 10 0 -2
BITMAP
0000
7F00
1400
7F00
5500
5500
7F00
1400
7F80
0000
ENDCHAR

STARTCHAR Cb0a2
ENCODING 45218
SWIDTH 1000 0
DWIDTH 10 0
BBX 10 10 0 -2
BITMAP
0000
0F80
7500
5F80
5280
5F80
7500
0500
0F80
0000
ENDCHAR

STARTCHAR Cb0a3
ENCODING 45219
SWIDTH 1000 0
DWIDTH 10 0
BBX 10 10 0 -2
BITMAP
0000
2200
2700
7200
5F80
5200
3700
2200
5F80
0000
ENDCHAR

STARTCHAR Cb0a4
ENCODING 45220
SWIDTH 1000 0
DWIDTH 10 0
BBX 10 10 0 -2
BITMAP
0000
7780
5100
6700
5500
5700
6100
4100
4300
0000
ENDCHAR

STARTCHAR Cb0a5
ENCODING 45221
SWIDTH 1000 0
DWIDTH 10 0
BBX 10 10 0 -2
BITMAP
0000
0800
7F80
0000
3F00
2100
3F00
5200
3D80
0000
ENDCHAR

STARTCHAR Cb0a6
ENCODING 45222
SWIDTH 1000 0
DWIDTH 10 0
BBX 10 10 0 -2
BITMAP
0000
3F00
1500
7F80
5480
1F00
7100
0E00
7180
0000
ENDCHAR

STARTCHAR Cb0a7
ENCODING 45223
SWIDTH 1000 0
DWIDTH 10 0
BBX 10 10 0 -2
BITMAP
0000
2200
2480
7F80
2200
6F80
2200
2500
6880
0000
ENDCHAR

STARTCHAR Cb0a8
ENCODING 45224
SWIDTH 1000 0
DWIDTH 10 0
BBX 10 10 0 -2
BITMAP
0000
2200
2500
7880
5700
5000
3700
2500
5700
0000
ENDCHAR

STARTCHAR Cb0a9
ENCODING 45225
SWIDTH 1000 0
DWIDTH 10 0
BBX 10 10 0 -2
BITMAP
0000
4780
2D00
0200
0D80
6200
2700
2200
5F80
0000
ENDCHAR

STARTCHAR Cb0aa
ENCODING 45226
SWIDTH 1000 0
DWIDTH 10 0
BBX 10 10 0 -2
BITMAP
0000
1200
7F80
1200
3D00
4880
3F00
1200
6180
0000
ENDCHAR

STARTCHAR Cb0ab
ENCODING 45227
SWIDTH 1000 0
DWIDTH 10 0
BBX 10 10 0 -2
BITMAP
0000
1400
7F80
1400
7F80
5480
6780
4080
7F80
0000
ENDCHAR

STARTCHAR Cb0ac
ENCODING 45228
SWIDTH 1000 0
DWIDTH 10 0
BBX 10 10 0 -2
BITMAP
0000
1780
6D00
2200
7F80
2A80
6F80
2200
2380
0000
ENDCHAR

STARTCHAR Cb0ad
ENCODING 45229
SWIDTH 1000 0
DWIDTH 10 0
BBX 10 10 0 -2
BITMAP
0000
7F80
1400
7F00
5500
7F00
0900
5280
5E80
0000
ENDCHAR

STARTCHAR Cb0ae
ENCODING 45230
SWIDTH 1000 0
DWIDTH 10 0
BBX 10 10 0 -2
BITMAP
0000
2F80
2880
7F80
2900
3A80
6B80
2900
7380
0000
ENDCHAR

STARTCHAR Cb0af
ENCODING 45231
SWIDTH 1000 0
DWIDTH 10 0
BBX 10 10 0 -2
BITMAP
0000
4F80
2880
4F80
2900
0A80
2B80
4900
5380
0000
ENDCHAR

STARTCHAR Cb0b0
ENCODING 45232
SWIDTH 1000 0
DWIDTH 10 0
BBX 10 10 0 -2
BITMAP
0000
2000
2380
7A80
2B80
2A80
2B80
4880
4F80
0000
ENDCHAR

STARTCHAR Cb0b1
ENCODING 45233
SWIDTH 1000 0
DWIDTH 10 0
BBX 10 10 0 -2
BITMAP
0000
3F00
1200
7F80
2100
3F00
1400
7F80
0400
0000
ENDCHAR

STARTCHAR Cb0b2
ENCODING 45234
SWIDTH 1000 0
DWIDTH 10 0
BBX 10 10 0 -2
BITMAP
0000
7F80
1200
3F00
0000
3F00
2100
3F00
4000
0000
ENDCHAR

STARTCHAR Cb0b3
ENCODING 45235
SWIDTH 1000 0
DWIDTH 10 0
BBX 10 10 0 -2
BITMAP
0000
3500
5780
2200
7F80
5500
7A80
0500
5200
0000
ENDCHAR

STARTCHAR Cb0b4
ENCODING 45236
SWIDTH 1000 0
DWIDTH 10 0
BBX 10 10 0 -2
BITMAP
0000
2200
2F80
7500
2F80
3200
6F80
2200
2200
0000
ENDCHAR

STARTCHAR Cb0b5
ENCODING 45237
SWIDTH 1000 0
DWIDTH 10 0
BBX 10 10 0 -2
BITMAP
0000
3F80
2000
2200
2200
2F80
2200
4200
4F80
0000
ENDCHAR

STARTCHAR Cb0b6
ENCODING 45238
SWIDTH 1000 0
DWIDTH 10 0
BBX 10 10 0 -2
BITMAP
0000
2200
7500
2880
7500
5100
7500
2F80
7100
0000
ENDCHAR

STARTCHAR Cb0b7
ENCODING 45239
SWIDTH 1000 0
DWIDTH 10 0
BBX 10 10 0 -2
BITMAP
0000
2F00
2500
7580
2480
6A80
2900
3300
6480
0000
ENDCHAR

STARTCHAR Cb0b8
ENCODING 45240
SWIDTH 1000 0
DWIDTH 10 0
BBX 10 10 0 -2
BITMAP
0000
0800
7F80
4080
3B80
2A80
6A00
1280
6380
0000
ENDCHAR

STARTCHAR Cb0b9
ENCODING 45241
SWIDTH 1000 0
DWIDTH 10 0
BBX 10 10 0 -2
BITMAP
0000
2780
2480
7780
5480
5780
3480
2480
5F80
0000
ENDCHAR

STARTCHAR Cb0ba
ENCODING 45242
SWIDTH 1000 0
DWIDTH 10 0
BBX 10 10 0 -2
BITMAP
0000
2100
2100
7780
5400
7400
2400
3400
6B80
0000
ENDCHAR

STARTCHAR Cb0bb
ENCODING 45243
SWIDTH 1000 0
DWIDTH 10 0
BBX 10 10 0 -2
BITMAP
0000
1100
2900
7A80
2B80
3800
2380
2A80
7B80
0000
ENDCHAR

STARTCHAR Cb0bc
ENCODING 45244
SWIDTH 1000 0
DWIDTH 10 0
BBX 10 10 0 -2
BITMAP
0000
2400
5780
2880
4E80
7A80
2E80
7A80
2F00
0000
ENDCHAR

STARTCHAR Cb0bd
ENCODING 45245
SWIDTH 1000 0
DWIDTH 10 0
BBX 10 10 0 -2
BITMAP
0000
2200
5780
2200
5F80
7500
2D80
7200
2D80
0000
ENDCHAR

STARTCHAR Cb0be
ENCODING 45246
SWIDTH 1000 0
DWIDTH 10 0
BBX 10 10 0 -2
BITMAP
0000
3200
5200
2380
7200
5780
7480
0480
5780
0000
ENDCHAR

STARTCHAR Cb0bf
ENCODING 45247
SWIDTH 1000 0
DWIDTH 10 0
BBX 10 10 0 -2
BITMAP
0000
0500
7F80
0400
7500
5500
7200
1A80
6580
0000
ENDCHAR

STARTCHAR Cb0c0
ENCODING 45248
SWIDTH 1000 0
DWIDTH 10 0
BBX 10 10 0 -2
BITMAP
0000
7F80
1400
7F00
5500
7F00
2A00
7F80
4900
0000
ENDCHAR

STARTCHAR Cb0c1
ENCODING 45249
SWIDTH 1000 0
DWIDTH 10 0
BBX 10 10 0 -2
BITMAP
0000
2200
2500
7880
1700
2000
7700
2500
2700
0000
ENDCHAR

STARTCHAR Cb0c2
ENCODING 45250
SWIDTH 1000 0
DWIDTH 10 0
BBX 10 10 0 -2
BITMAP
0000
0800
7F80
4080
0800
7F80
1200
1C00
7300
0000
ENDCHAR

STARTCHAR Cb0c3
ENCODING 45251
SWIDTH 1000 0
DWIDTH 10 0
BBX 10 10 0 -2
BITMAP
0000
0400
7F80
4400
7F80
5500
5F00
4480
4780
0000
ENDCHAR

STARTCHAR Cb0c4
ENCODING 45252
SWIDTH 1000 0
DWIDTH 10 0
BBX 10 10 0 -2
BITMAP
0000
2200
2F80
7880
2200
2F80
6500
2200
6D80
0000
ENDCHAR

STARTCHAR Cb0c5
ENCODING 45253
SWIDTH 1000 0
DWIDTH 10 0
BBX 10 10 0 -2
BITMAP
0000
0200
0F80
7500
5F80
7500
5700
7500
0700
0000
ENDCHAR

STARTCHAR Cb0c6
ENCODING 45254
SWIDTH 1000 0
DWIDTH 10 0
BBX 10 10 0 -2
BITMAP
0000
0800
7F80
4880
3F00
1200
7F80
2A00
4980
0000
ENDCHAR

STARTCHAR Cb0c7
ENCODING 45255
SWIDTH 1000 0
DWIDTH 10 0
BBX 10 10 0 -2
BITMAP
0000
7780
5480
7780
5C80
5480
7E80
5480
5D80
0000
ENDCHAR

STARTCHAR Cb0c8
ENCODING 45256
SWIDTH 1000 0
DWIDTH 10 0
BBX 10 10 0 -2
BITMAP
0000
5200
5780
7C80
5200
7780
2500
7200
2D80
0000
ENDCHAR

STARTCHAR Cb0c9
ENCODING 45257
SWIDTH 1000 0
DWIDTH 10 0
BBX 10 10 0 -2
BITMAP
0000
0800
7F80
2A00
4980
3F00
2100
2100
3F00
0000
ENDCHAR

STARTCHAR Cb0ca
ENCODING 45258
SWIDTH 1000 0
DWIDTH 10 0
BBX 10 10 0 -2
BITMAP
0000
0100
2900
2500
2100
2200
3200
6500
0880
0000
ENDCHAR

STARTCHAR Cb0cb
ENCODING 45259
SWIDTH 1000 0
DWIDTH 10 0
BBX 10 10 0 -2
BITMAP
0000
1780
1280
2F80
2280
6780
2200
2200
2400
0000
ENDCHAR

STARTCHAR Cb0cc
ENCODING 45260
SWIDTH 1000 0
DWIDTH 10 0
BBX 10 10 0 -2
BITMAP
0000
1200
1200
2F80
2100
6500
2500
2500
2F80
0000
ENDCHAR

STARTCHAR Cb0cd
ENCODING 45261
SWIDTH 1000 0
DWIDTH 10 0
BBX 10 10 0 -2
BITMAP
0000
1200
1200
2F80
6A00
3A80
2900
2D00
3880
0000
ENDCHAR

STARTCHAR Cb0ce
ENCODING 45262
SWIDTH 1000 0
DWIDTH 10 0
BBX 10 10 0 -2
BITMAP
0000
1700
1500
2F80
2000
6700
2500
2F80
2100
0000
ENDCHAR

STARTCHAR Cb0cf
ENCODING 45263
SWIDTH 1000 0
DWIDTH 10 0
BBX 10 10 0 -2
BITMAP
0000
7F80
5480
7E80
5480
7E80
5480
5480
7F80
0000
ENDCHAR

STARTCHAR Cb0d0
ENCODING 45264
SWIDTH 1000 0
DWIDTH 10 0
BBX 10 10 0 -2
BITMAP
0000
7F80
0900
3F00
2800
3F00
0900
1600
6180
0000
ENDCHAR

STARTCHAR Cb0d1
ENCODING 45265
SWIDTH 1000 0
DWIDTH 10 0
BBX 10 10 0 -2
BITMAP
0000
3F00
0800
7F80
2A00
4900
7F80
1200
7D80
0000
ENDCHAR

STARTCHAR Cb0d2
ENCODING 45266
SWIDTH 1000 0
DWIDTH 10 0
BBX 10 10 0 -2
BITMAP
0000
0280
3F80
2200
2A80
3E80
5500
4900
5680
0000
ENDCHAR

STARTCHAR Cb0d3
ENCODING 45267
SWIDTH 1000 0
DWIDTH 10 0
BBX 10 10 0 -2
BITMAP
0000
7880
4880
7B80
4080
7A80
5280
7880
5180
0000
ENDCHAR

STARTCHAR Cb0d4
ENCODING 45268
SWIDTH 1000 0
DWIDTH 10 0
BBX 10 10 0 -2
BITMAP
0000
2A00
2F80
3A00
6F00
2A00
2F00
2A00
2F80
0000
ENDCHAR

STARTCHAR Cb0d5
ENCODING 45269
SWIDTH 1000 0
DWIDTH 10 0
BBX 10 10 0 -2
BITMAP
0000
0800
3F00
1200
7F80
1200
1E00
5100
5E80
0000
ENDCHAR

STARTCHAR Cb0d6
ENCODING 45270
SWIDTH 1000 0
DWIDTH 10 0
BBX 10 10 0 -2
BITMAP
0000
7880
4F80
7880
4280
7980
5400
1280
5E80
0000
ENDCHAR

STARTCHAR Cb0d7
ENCODING 45271
SWIDTH 1000 0
DWIDTH 10 0
BBX 10 10 0 -2
BITMAP
0000
3F00
2100
3F00
1000
3F80
4A80
1480
2B00
0000
ENDCHAR

STARTCHAR Cb0d8
ENCODING 45272
SWIDTH 1000 0
DWIDTH 10 0
BBX 10 10 0 -2
BITMAP
0000
2200
2F80
7500
2880
3F80
6A80
2E80
2180
0000
ENDCHAR

STARTCHAR Cb0d9
ENCODING 45273
SWIDTH 1000 0
DWIDTH 10 0
BBX 10 10 0 -2
BITMAP
0000
1400
3F00
0900
1200
3F80
4080
2A80
4B00
0000
ENDCHAR

STARTCHAR Cb0da
ENCODING 45274
SWIDTH 1000 0
DWIDTH 10 0
BBX 10 10 0 -2
BITMAP
0000
3F00
2900
3F00
2900
7F80
2500
3A00
6180
0000
ENDCHAR

STARTCHAR Cb0db
ENCODING 45275
SWIDTH 1000 0
DWIDTH 10 0
BBX 10 10 0 -2
BITMAP
0000
3F00
2900
3F00
1200
3F00
1200
7F80
2100
0000
ENDCHAR

STARTCHAR Cb0dc
ENCODING 45276
SWIDTH 1000 0
DWIDTH 10 0
BBX 10 10 0 -2
BITMAP
0000
1700
6D00
2200
7400
2B80
6680
2100
2600
0000
ENDCHAR

STARTCHAR Cb0dd
ENCODING 45277
SWIDTH 1000 0
DWIDTH 10 0
BBX 10 10 0 -2
BITMAP
0000
2500
5780
2D00
5780
7500
2780
7500
2780
0000
ENDCHAR

STARTCHAR Cb0de
ENCODING 45278
SWIDTH 1000 0
DWIDTH 10 0
BBX 10 10 0 -2
BITMAP
0000
2700
5500
2F80
5000
7700
2500
6F80
2100
0000
ENDCHAR

STARTCHAR Cb0df
ENCODING 45279
SWIDTH 1000 0
DWIDTH 10 0
BBX 10 10 0 -2
BITMAP
0000
7F00
4900
7F00
4900
7F00
2200
3E00
2200
0000
ENDCHAR

STARTCHAR Cb0e0
ENCODING 45280
SWIDTH 1000 0
DWIDTH 10 0
BBX 10 10 0 -2
BITMAP
0000
1200
7F80
1200
7F80
2900
3F00
5280
3D00
0000
ENDCHAR

STARTCHAR Cb0e1
ENCODING 45281
SWIDTH 1000 0
DWIDTH 10 0
BBX 10 10 0 -2
BITMAP
0000
0800
0800
7F80
1480
3500
5200
1900
6080
0000
ENDCHAR

STARTCHAR Cb0e2
ENCODING 45282
SWIDTH 1000 0
DWIDTH 10 0
BBX 10 10 0 -2
BITMAP
0000
2F80
7A80
0F80
7A80
0F80
7500
5700
7500
0000
ENDCHAR

STARTCHAR Cb0e3
ENCODING 45283
SWIDTH 1000 0
DWIDTH 10 0
BBX 10 10 0 -2
BITMAP
0000
4400
2F00
0500
0F80
6500
2F80
2100
5F80
0000
ENDCHAR

STARTCHAR Cb0e4
ENCODING 45284
SWIDTH 1000 0
DWIDTH 10 0
BBX 10 10 0 -2
BITMAP
0000
4200
2F80
0A80
0F80
6500
2700
2880
5F80
0000
ENDCHAR

STARTCHAR Cb0e5
ENCODING 45285
SWIDTH 1000 0
DWIDTH 10 0
BBX 10 10 0 -2
BITMAP
0000
7F80
5000
5F00
6400
5F00
4A00
5100
7F80
0000
ENDCHAR

STARTCHAR Cb0e6
ENCODING 45286
SWIDTH 1000 0
DWIDTH 10 0
BBX 10 10 0 -2
BITMAP
0000
1200
3F00
1200
1200
7F80
1200
2200
4200
0000
ENDCHAR

STARTCHAR Cb0e7
ENCODING 45287
SWIDTH 1000 0
DWIDTH 10 0
BBX 10 10 0 -2
BITMAP
0000
0800
7F80
1200
2400
1900
6200
0C00
3300
0000
ENDCHAR

STARTCHAR Cb0e8
ENCODING 45288
SWIDTH 1000 0
DWIDTH 10 0
BBX 10 10 0 -2
BITMAP
0000
2280
2F80
7200
2E80
2A80
2F00
3100
6680
0000
ENDCHAR

STARTCHAR Cb0e9
ENCODING 45289
SWIDTH 1000 0
DWIDTH 10 0
BBX 10 10 0 -2
BITMAP
0000
0800
7F80
1100
7F80
2100
3F00
2100
2300
0000
ENDCHAR

STARTCHAR Cb0ea
ENCODING 45290
SWIDTH 1000 0
DWIDTH 10 0
BBX 10 10 0 -2
BITMAP
0000
1000
7B80
2280
3B00
6A80
3A80
2B00
2A00
0000
ENDCHAR

STARTCHAR Cb0eb
ENCODING 45291
SWIDTH 1000 0
DWIDTH 10 0
BBX 10 10 0 -2
BITMAP
0000
0480
7900
2480
4900
7F80
5280
5900
7680
0000
ENDCHAR

STARTCHAR Cb0ec
ENCODING 45292
SWIDTH 1000 0
DWIDTH 10 0
BBX 10 10 0 -2
BITMAP
0000
0000
0000
0000
0000
7F80
0000
0000
0000
0000
ENDCHAR

STARTCHAR Cb0ed
ENCODING 45293
SWIDTH 1000 0
DWIDTH 10 0
BBX 10 10 0 -2
BITMAP
0000
0800
7F80
0800
7F80
5080
1E00
1100
1F00
0000
ENDCHAR

STARTCHAR Cb0ee
ENCODING 45294
SWIDTH 1000 0
DWIDTH 10 0
BBX 10 10 0 -2
BITMAP
0000
4A00
3F80
4A00
1100
2080
5F00
5500
7F80
0000
ENDCHAR

STARTCHAR Cb0ef
ENCODING 45295
SWIDTH 1000 0
DWIDTH 10 0
BBX 10 10 0 -2
BITMAP
0000
4780
2900
1F80
0A80
6F00
2580
2800
5F80
0000
ENDCHAR

STARTCHAR Cb0f0
ENCODING 45296
SWIDTH 1000 0
DWIDTH 10 0
BBX 10 10 0 -2
BITMAP
0000
1180
6E00
2500
7B80
2A80
6B80
2A80
2B80
0000
ENDCHAR

STARTCHAR Cb0f1
ENCODING 45297
SWIDTH 1000 0
DWIDTH 10 0
BBX 10 10 0 -2
BITMAP
0000
1200
7F80
1400
4780
2A80
0200
2500
4880
0000
ENDCHAR

STARTCHAR Cb0f2
ENCODING 45298
SWIDTH 1000 0
DWIDTH 10 0
BBX 10 10 0 -2
BITMAP
0000
1200
7F80
1200
3F00
0400
7F80
0400
0C00
0000
ENDCHAR

STARTCHAR Cb0f3
ENCODING 45299
SWIDTH 1000 0
DWIDTH 10 0
BBX 10 10 0 -2
BITMAP
0000
3780
5280
2780
7500
5780
7280
0780
5280
0000
ENDCHAR

STARTCHAR Cb0f4
ENCODING 45300
SWIDTH 1000 0
DWIDTH 10 0
BBX 10 10 0 -2
BITMAP
0000
0800
1100
7E80
0000
1200
1200
1280
6380
0000
ENDCHAR

STARTCHAR Cb0f5
ENCODING 45301
SWIDTH 1000 0
DWIDTH 10 0
BBX 10 10 0 -2
BITMAP
0000
1800
6780
4480
7480
4480
4480
7580
0400
0000
ENDCHAR

STARTCHAR Cb0f6
ENCODING 45302
SWIDTH 1000 0
DWIDTH 10 0
BBX 10 10 0 -2
BITMAP
0000
1F80
7480
5F80
5480
5680
7980
1080
1F80
0000
ENDCHAR

STARTCHAR Cb0f7
ENCODING 45303
SWIDTH 1000 0
DWIDTH 10 0
BBX 10 10 0 -2
BITMAP
0000
1E00
1200
3F00
2100
3F00
2100
3F00
6180
0000
ENDCHAR

STARTCHAR Cb0f8
ENCODING 45304
SWIDTH 1000 0
DWIDTH 10 0
BBX 10 10 0 -2
BITMAP
0000
7F80
4880
7E80
4880
5480
6280
4080
7F80
0000
ENDCHAR

STARTCHAR Cb0f9
ENCODING 45305
SWIDTH 1000 0
DWIDTH 10 0
BBX 10 10 0 -2
BITMAP
0000
2F80
2A80
7F80
4A80
5A80
2D80
2880
5F80
0000
ENDCHAR

STARTCHAR Cb0fa
ENCODING 45306
SWIDTH 1000 0
DWIDTH 10 0
BBX 10 10 0 -2
BITMAP
0000
7900
0900
3900
4100
7900
0900
0900
3100
0000
ENDCHAR

STARTCHAR Cb0fb
ENCODING 45307
SWIDTH 1000 0
DWIDTH 10 0
BBX 10 10 0 -2
BITMAP
0000
1200
2B80
7E80
2A00
3A00
2500
3500
6880
0000
ENDCHAR

STARTCHAR Cb0fc
ENCODING 45308
SWIDTH 1000 0
DWIDTH 10 0
BBX 10 10 0 -2
BITMAP
0000
4180
2E00
4080
2A80
0A00
2F80
4200
4F80
0000
ENDCHAR

STARTCHAR Cb0fd
ENCODING 45309
SWIDTH 1000 0
DWIDTH 10 0
BBX 10 10 0 -2
BITMAP
0000
4900
5500
4900
7F00
5500
5D00
5500
5480
0000
ENDCHAR

STARTCHAR Cb0fe
ENCODING 45310
SWIDTH 1000 0
DWIDTH 10 0
BBX 10 10 0 -2
BITMAP
0000
7F80
1200
7500
5F80
6200
5F80
6500
4E80
0000
ENDCHAR

STARTCHAR Cb1a1
ENCODING 45473
SWIDTH 1000 0
DWIDTH 10 0
BBX 10 10 0 -2
BITMAP
0000
7200
5F80
6880
5700
5000
6F80
4500
4980
0000
ENDCHAR

STARTCHAR Cb1a2
ENCODING 45474
SWIDTH 1000 0
DWIDTH 10 0
BBX 10 10 0 -2
BITMAP
0000
7200
5500
6A80
5700
5100
6F80
4500
4E80
0000
ENDCHAR

STARTCHAR Cb1a3
ENCODING 45475
SWIDTH 1000 0
DWIDTH 10 0
BBX 10 10 0 -2
BITMAP
0000
7780
5500
6780
5080
5780
6100
4480
5700
0000
ENDCHAR

STARTCHAR Cb1a4
ENCODING 45476
SWIDTH 1000 0
DWIDTH 10 0
BBX 10 10 0 -2
BITMAP
0000
2700
7D00
5780
7C80
0780
7480
5700
7480
0000
ENDCHAR

STARTCHAR Cb1a5
ENCODING 45477
SWIDTH 1000 0
DWIDTH 10 0
BBX 10 10 0 -2
BITMAP
0000
0100
7100
5F80
5100
5900
5500
7100
0300
0000
ENDCHAR

STARTCHAR Cb1a6
ENCODING 45478
SWIDTH 1000 0
DWIDTH 10 0
BBX 10 10 0 -2
BITMAP
0000
0800
7F80
1000
1000
3F00
5100
1100
1F00
0000
ENDCHAR

STARTCHAR Cb1a7
ENCODING 45479
SWIDTH 1000 0
DWIDTH 10 0
BBX 10 10 0 -2
BITMAP
0000
0800
7F80
4080
3E00
0800
7F80
0800
1800
0000
ENDCHAR

STARTCHAR Cb1a8
ENCODING 45480
SWIDTH 1000 0
DWIDTH 10 0
BBX 10 10 0 -2
BITMAP
0000
0800
3F00
2100
3F80
2000
3F80
5480
5300
0000
ENDCHAR

STARTCHAR Cb1a9
ENCODING 45481
SWIDTH 1000 0
DWIDTH 10 0
BBX 10 10 0 -2
BITMAP
0000
7F80
0880
4C80
2A80
0880
2A80
4C80
1980
0000
ENDCHAR

STARTCHAR Cb1aa
ENCODING 45482
SWIDTH 1000 0
DWIDTH 10 0
BBX 10 10 0 -2
BITMAP
0000
4F80
2200
0200
0F80
6200
2600
2000
5F80
0000
ENDCHAR

STARTCHAR Cb1ab
ENCODING 45483
SWIDTH 1000 0
DWIDTH 10 0
BBX 10 10 0 -2
BITMAP
0000
7F80
0800
7F80
4880
6A80
4880
6A80
4980
0000
ENDCHAR

STARTCHAR Cb1ac
ENCODING 45484
SWIDTH 1000 0
DWIDTH 10 0
BBX 10 10 0 -2
BITMAP
0000
1000
6780
5480
5480
5480
7580
2400
4400
0000
ENDCHAR

STARTCHAR Cb1ad
ENCODING 45485
SWIDTH 1000 0
DWIDTH 10 0
BBX 10 10 0 -2
BITMAP
0000
5100
7B80
2A80
7B80
4200
7F80
2880
5A80
0000
ENDCHAR

STARTCHAR Cb1ae
ENCODING 45486
SWIDTH 1000 0
DWIDTH 10 0
BBX 10 10 0 -2
BITMAP
0000
0800
7F80
5280
6F00
2900
7F00
2500
5980
0000
ENDCHAR

STARTCHAR Cb1af
ENCODING 45487
SWIDTH 1000 0
DWIDTH 10 0
BBX 10 10 0 -2
BITMAP
0000
3E00
1200
1200
7F80
1200
1200
1200
7F80
0000
ENDCHAR

STARTCHAR Cb1b0
ENCODING 45488
SWIDTH 1000 0
DWIDTH 10 0
BBX 10 10 0 -2
BITMAP
0000
0500
7780
2D00
4780
7500
5780
5500
7780
0000
ENDCHAR

STARTCHAR Cb1b1
ENCODING 45489
SWIDTH 1000 0
DWIDTH 10 0
BBX 10 10 0 -2
BITMAP
0000
1000
6700
4100
4100
7700
4100
4100
7F00
0000
ENDCHAR

STARTCHAR Cb1b2
ENCODING 45490
SWIDTH 1000 0
DWIDTH 10 0
BBX 10 10 0 -2
BITMAP
0000
2700
1500
4F80
2880
0E80
2A80
4E80
4880
0000
ENDCHAR

STARTCHAR Cb1b3
ENCODING 45491
SWIDTH 1000 0
DWIDTH 10 0
BBX 10 10 0 -2
BITMAP
0000
0200
7380
5200
5F80
5400
7780
1200
2F80
0000
ENDCHAR

STARTCHAR Cb1b4
ENCODING 45492
SWIDTH 1000 0
DWIDTH 10 0
BBX 10 10 0 -2
BITMAP
0000
0780
7480
5780
5480
5780
5480
7700
0C80
0000
ENDCHAR

STARTCHAR Cb1b5
ENCODING 45493
SWIDTH 1000 0
DWIDTH 10 0
BBX 10 10 0 -2
BITMAP
0000
2A80
7580
2A80
7F00
5500
7F80
2500
7300
0000
ENDCHAR

STARTCHAR Cb1b6
ENCODING 45494
SWIDTH 1000 0
DWIDTH 10 0
BBX 10 10 0 -2
BITMAP
0000
7F80
1200
7900
4F80
7900
4500
7900
5300
0000
ENDCHAR

STARTCHAR Cb1b7
ENCODING 45495
SWIDTH 1000 0
DWIDTH 10 0
BBX 10 10 0 -2
BITMAP
0000
3700
5500
2780
7480
5F80
7480
0300
5480
0000
ENDCHAR

STARTCHAR Cb1b8
ENCODING 45496
SWIDTH 1000 0
DWIDTH 10 0
BBX 10 10 0 -2
BITMAP
0000
2200
2700
7200
5F80
5400
3700
2480
5780
0000
ENDCHAR

STARTCHAR Cb1b9
ENCODING 45497
SWIDTH 1000 0
DWIDTH 10 0
BBX 10 10 0 -2
BITMAP
0000
7F80
4000
7780
5500
7F80
4200
5500
6980
0000
ENDCHAR

STARTCHAR Cb1ba
ENCODING 45498
SWIDTH 1000 0
DWIDTH 10 0
BBX 10 10 0 -2
BITMAP
0000
4500
3F80
4400
3F00
1500
3F00
5500
5500
0000
ENDCHAR

STARTCHAR Cb1bb
ENCODING 45499
SWIDTH 1000 0
DWIDTH 10 0
BBX 10 10 0 -2
BITMAP
0000
3F80
2900
2900
2900
2900
2900
4A80
5E80
0000
ENDCHAR

STARTCHAR Cb1bc
ENCODING 45500
SWIDTH 1000 0
DWIDTH 10 0
BBX 10 10 0 -2
BITMAP
0000
7780
5480
7780
5C80
4880
5C80
4880
5E80
0000
ENDCHAR

STARTCHAR Cb1bd
ENCODING 45501
SWIDTH 1000 0
DWIDTH 10 0
BBX 10 10 0 -2
BITMAP
0000
0500
0F80
7500
5D80
5080
7F80
0900
0300
0000
ENDCHAR

STARTCHAR Cb1be
ENCODING 45502
SWIDTH 1000 0
DWIDTH 10 0
BBX 10 10 0 -2
BITMAP
0000
3F00
0000
0000
7F80
1200
1100
2100
7E80
0000
ENDCHAR

STARTCHAR Cb1bf
ENCODING 45503
SWIDTH 1000 0
DWIDTH 10 0
BBX 10 10 0 -2
BITMAP
0000
4F80
2A80
0200
0F80
6A80
2F80
2200
5F80
0000
ENDCHAR

STARTCHAR Cb1c0
ENCODING 45504
SWIDTH 1000 0
DWIDTH 10 0
BBX 10 10 0 -2
BITMAP
0000
3F00
0800
7F80
4A80
0000
7F80
1100
7E80
0000
ENDCHAR

STARTCHAR Cb1c1
ENCODING 45505
SWIDTH 1000 0
DWIDTH 10 0
BBX 10 10 0 -2
BITMAP
0000
1200
7F80
1000
2F80
2200
6F80
2200
2F80
0000
ENDCHAR

STARTCHAR Cb1c2
ENCODING 45506
SWIDTH 1000 0
DWIDTH 10 0
BBX 10 10 0 -2
BITMAP
0000
1780
2A80
7B80
2A80
3B80
2280
2F80
7880
0000
ENDCHAR

STARTCHAR Cb1c3
ENCODING 45507
SWIDTH 1000 0
DWIDTH 10 0
BBX 10 10 0 -2
BITMAP
0000
3000
2780
7A80
4A80
2100
7900
2A80
3C80
0000
ENDCHAR

STARTCHAR Cb1c4
ENCODING 45508
SWIDTH 1000 0
DWIDTH 10 0
BBX 10 10 0 -2
BITMAP
0000
2900
7F80
5280
1E00
0800
3F00
2100
3F00
0000
ENDCHAR

STARTCHAR Cb1c5
ENCODING 45509
SWIDTH 1000 0
DWIDTH 10 0
BBX 10 10 0 -2
BITMAP
0000
7700
5500
7700
5500
7F80
1200
1C00
7300
0000
ENDCHAR

STARTCHAR Cb1c6
ENCODING 45510
SWIDTH 1000 0
DWIDTH 10 0
BBX 10 10 0 -2
BITMAP
0000
3900
2A00
7C80
2900
3A00
1080
5900
5600
0000
ENDCHAR

STARTCHAR Cb1c7
ENCODING 45511
SWIDTH 1000 0
DWIDTH 10 0
BBX 10 10 0 -2
BITMAP
0000
0400
7400
5F00
7500
5F80
7400
0A00
3180
0000
ENDCHAR

STARTCHAR Cb1c8
ENCODING 45512
SWIDTH 1000 0
DWIDTH 10 0
BBX 10 10 0 -2
BITMAP
0000
0800
3F00
2900
3F00
2900
3F00
0480
7B80
0000
ENDCHAR

STARTCHAR Cb1c9
ENCODING 45513
SWIDTH 1000 0
DWIDTH 10 0
BBX 10 10 0 -2
BITMAP
0000
2900
7F80
4080
0800
7F80
2A00
2900
4880
0000
ENDCHAR

STARTCHAR Cb1ca
ENCODING 45514
SWIDTH 1000 0
DWIDTH 10 0
BBX 10 10 0 -2
BITMAP
0000
0C00
0200
1C00
0680
7500
1500
2480
4C40
0000
ENDCHAR

STARTCHAR Cb1cb
ENCODING 45515
SWIDTH 1000 0
DWIDTH 10 0
BBX 10 10 0 -2
BITMAP
0000
4600
2100
4600
3A80
0B00
2A80
5280
4600
0000
ENDCHAR

STARTCHAR Cb1cc
ENCODING 45516
SWIDTH 1000 0
DWIDTH 10 0
BBX 10 10 0 -2
BITMAP
0000
4400
3F00
5500
3F00
1500
3F00
4200
5D80
0000
ENDCHAR

STARTCHAR Cb1cd
ENCODING 45517
SWIDTH 1000 0
DWIDTH 10 0
BBX 10 10 0 -2
BITMAP
0000
0900
7F80
2400
7F00
2500
3F80
6A00
1180
0000
ENDCHAR

STARTCHAR Cb1ce
ENCODING 45518
SWIDTH 1000 0
DWIDTH 10 0
BBX 10 10 0 -2
BITMAP
0000
3F00
1100
1B80
2880
5580
3F00
2900
7F80
0000
ENDCHAR

STARTCHAR Cb1cf
ENCODING 45519
SWIDTH 1000 0
DWIDTH 10 0
BBX 10 10 0 -2
BITMAP
0000
7780
4200
7780
1480
7F80
1480
3F00
5480
0000
ENDCHAR

STARTCHAR Cb1d0
ENCODING 45520
SWIDTH 1000 0
DWIDTH 10 0
BBX 10 10 0 -2
BITMAP
0000
7780
4200
7780
0480
7780
2480
7700
2480
0000
ENDCHAR

STARTCHAR Cb1d1
ENCODING 45521
SWIDTH 1000 0
DWIDTH 10 0
BBX 10 10 0 -2
BITMAP
0000
1200
7F80
1200
3F00
2900
7F80
1200
6180
0000
ENDCHAR

STARTCHAR Cb1d2
ENCODING 45522
SWIDTH 1000 0
DWIDTH 10 0
BBX 10 10 0 -2
BITMAP
0000
2980
5E00
0B80
3E80
6A80
2E80
2480
2E80
0000
ENDCHAR

STARTCHAR Cb1d3
ENCODING 45523
SWIDTH 1000 0
DWIDTH 10 0
BBX 10 10 0 -2
BITMAP
0000
2700
7000
0E00
7280
0B00
7A80
5280
7600
0000
ENDCHAR

STARTCHAR Cb1d4
ENCODING 45524
SWIDTH 1000 0
DWIDTH 10 0
BBX 10 10 0 -2
BITMAP
0000
2500
5780
7480
2480
7780
2500
3500
6980
0000
ENDCHAR

STARTCHAR Cb1d5
ENCODING 45525
SWIDTH 1000 0
DWIDTH 10 0
BBX 10 10 0 -2
BITMAP
0000
4400
3F80
4A00
2B80
1A80
2D80
4900
4E80
0000
ENDCHAR

STARTCHAR Cb1d6
ENCODING 45526
SWIDTH 1000 0
DWIDTH 10 0
BBX 10 10 0 -2
BITMAP
0000
0400
3F80
2A00
7180
2F00
6900
2600
5980
0000
ENDCHAR

STARTCHAR Cb1d7
ENCODING 45527
SWIDTH 1000 0
DWIDTH 10 0
BBX 10 10 0 -2
BITMAP
0000
2100
7F80
1200
2100
7F80
2900
2900
7F80
0000
ENDCHAR

STARTCHAR Cb1d8
ENCODING 45528
SWIDTH 1000 0
DWIDTH 10 0
BBX 10 10 0 -2
BITMAP
0000
7780
4480
7480
4780
7500
1500
5480
5880
0000
ENDCHAR

STARTCHAR Cb1d9
ENCODING 45529
SWIDTH 1000 0
DWIDTH 10 0
BBX 10 10 0 -2
BITMAP
0000
2500
2F80
3880
6880
2F80
2500
2500
2980
0000
ENDCHAR

STARTCHAR Cb1da
ENCODING 45530
SWIDTH 1000 0
DWIDTH 10 0
BBX 10 10 0 -2
BITMAP
0000
2700
7500
0500
7780
0C80
7680
5480
7680
0000
ENDCHAR

STARTCHAR Cb1db
ENCODING 45531
SWIDTH 1000 0
DWIDTH 10 0
BBX 10 10 0 -2
BITMAP
0000
1100
3F80
1500
7D80
1500
5E80
7000
5F80
0000
ENDCHAR

STARTCHAR Cb1dc
ENCODING 45532
SWIDTH 1000 0
DWIDTH 10 0
BBX 10 10 0 -2
BITMAP
0000
7780
5480
5480
7F80
5280
5E80
5480
6680
0000
ENDCHAR

STARTCHAR Cb1dd
ENCODING 45533
SWIDTH 1000 0
DWIDTH 10 0
BBX 10 10 0 -2
BITMAP
0000
2F80
2500
7700
2200
3700
6D00
2200
2D80
0000
ENDCHAR

STARTCHAR Cb1de
ENCODING 45534
SWIDTH 1000 0
DWIDTH 10 0
BBX 10 10 0 -2
BITMAP
0000
7F80
4000
7280
5F80
7200
5500
7500
5880
0000
ENDCHAR

STARTCHAR Cb1df
ENCODING 45535
SWIDTH 1000 0
DWIDTH 10 0
BBX 10 10 0 -2
BITMAP
0000
7F80
4880
4880
4880
7F80
4080
4080
4180
0000
ENDCHAR

STARTCHAR Cb1e0
ENCODING 45536
SWIDTH 1000 0
DWIDTH 10 0
BBX 10 10 0 -2
BITMAP
0000
7F80
4880
7E80
5580
5E80
6980
4880
7F80
0000
ENDCHAR

STARTCHAR Cb1e1
ENCODING 45537
SWIDTH 1000 0
DWIDTH 10 0
BBX 10 10 0 -2
BITMAP
0000
2F80
2900
7900
2F80
2A80
3900
6A80
0F80
0000
ENDCHAR

STARTCHAR Cb1e2
ENCODING 45538
SWIDTH 1000 0
DWIDTH 10 0
BBX 10 10 0 -2
BITMAP
0000
0800
7F80
1200
3F00
6A80
3E00
0880
0F80
0000
ENDCHAR

STARTCHAR Cb1e3
ENCODING 45539
SWIDTH 1000 0
DWIDTH 10 0
BBX 10 10 0 -2
BITMAP
0000
7F80
5280
1E00
0800
7F80
1200
0E00
7980
0000
ENDCHAR

STARTCHAR Cb1e4
ENCODING 45540
SWIDTH 1000 0
DWIDTH 10 0
BBX 10 10 0 -2
BITMAP
0000
7080
1700
2180
7500
1500
5780
2000
5F80
0000
ENDCHAR

STARTCHAR Cb1e5
ENCODING 45541
SWIDTH 1000 0
DWIDTH 10 0
BBX 10 10 0 -2
BITMAP
0000
3B80
2A80
5A00
1380
6400
1500
5080
5E80
0000
ENDCHAR

STARTCHAR Cb1e6
ENCODING 45542
SWIDTH 1000 0
DWIDTH 10 0
BBX 10 10 0 -2
BITMAP
0000
2400
3F80
6900
3E80
2A00
6E00
2480
6780
0000
ENDCHAR

STARTCHAR Cb1e7
ENCODING 45543
SWIDTH 1000 0
DWIDTH 10 0
BBX 10 10 0 -2
BITMAP
0000
2F00
2A80
7F80
2200
6F80
2480
2B00
6480
0000
ENDCHAR

STARTCHAR Cb1e8
ENCODING 45544
SWIDTH 1000 0
DWIDTH 10 0
BBX 10 10 0 -2
BITMAP
0000
4900
2900
5080
2000
0F00
2900
4900
4F00
0000
ENDCHAR

STARTCHAR Cb1e9
ENCODING 45545
SWIDTH 1000 0
DWIDTH 10 0
BBX 10 10 0 -2
BITMAP
0000
4200
2F80
4880
2700
0A80
2F80
4A80
4F80
0000
ENDCHAR

STARTCHAR Cb1ea
ENCODING 45546
SWIDTH 1000 0
DWIDTH 10 0
BBX 10 10 0 -2
BITMAP
0000
2900
4A00
1600
6180
2900
4A00
1400
6380
0000
ENDCHAR

STARTCHAR Cb1eb
ENCODING 45547
SWIDTH 1000 0
DWIDTH 10 0
BBX 10 10 0 -2
BITMAP
0000
2780
2480
2900
6380
2A80
2B80
5A80
4B80
0000
ENDCHAR

STARTCHAR Cb1ec
ENCODING 45548
SWIDTH 1000 0
DWIDTH 10 0
BBX 10 10 0 -2
BITMAP
0000
2F80
2500
2F80
6A80
2A80
2F80
5200
4F80
0000
ENDCHAR

STARTCHAR Cb1ed
ENCODING 45549
SWIDTH 1000 0
DWIDTH 10 0
BBX 10 10 0 -2
BITMAP
0000
1200
7F80
1200
6D80
2500
6D80
2000
4A80
0000
ENDCHAR

STARTCHAR Cb1ee
ENCODING 45550
SWIDTH 1000 0
DWIDTH 10 0
BBX 10 10 0 -2
BITMAP
0000
5200
2700
5200
1F80
3500
5780
1D00
6680
0000
ENDCHAR

STARTCHAR Cb1ef
ENCODING 45551
SWIDTH 1000 0
DWIDTH 10 0
BBX 10 10 0 -2
BITMAP
0000
2700
5100
2F80
5400
7A80
2700
6A80
2600
0000
ENDCHAR

STARTCHAR Cb1f0
ENCODING 45552
SWIDTH 1000 0
DWIDTH 10 0
BBX 10 10 0 -2
BITMAP
0000
2B80
7D00
4B80
7E80
0380
3A00
2A80
7B80
0000
ENDCHAR

STARTCHAR Cb1f1
ENCODING 45553
SWIDTH 1000 0
DWIDTH 10 0
BBX 10 10 0 -2
BITMAP
0000
1200
7F80
1200
3B80
2A80
5A00
1280
6380
0000
ENDCHAR

STARTCHAR Cb1f2
ENCODING 45554
SWIDTH 1000 0
DWIDTH 10 0
BBX 10 10 0 -2
BITMAP
0000
1200
7F80
1200
7F80
5480
5C80
4A80
7F80
0000
ENDCHAR

STARTCHAR Cb1f3
ENCODING 45555
SWIDTH 1000 0
DWIDTH 10 0
BBX 10 10 0 -2
BITMAP
0000
4200
2F80
0200
0F80
6500
2700
2A80
5F80
0000
ENDCHAR

STARTCHAR Cb1f4
ENCODING 45556
SWIDTH 1000 0
DWIDTH 10 0
BBX 10 10 0 -2
BITMAP
0000
2500
5500
7880
2880
7700
2500
3500
6700
0000
ENDCHAR

STARTCHAR Cb1f5
ENCODING 45557
SWIDTH 1000 0
DWIDTH 10 0
BBX 10 10 0 -2
BITMAP
0000
3B80
6A80
1200
3F80
6100
3F80
5480
4300
0000
ENDCHAR

STARTCHAR Cb1f6
ENCODING 45558
SWIDTH 1000 0
DWIDTH 10 0
BBX 10 10 0 -2
BITMAP
0000
0400
2700
2800
7700
2500
3F80
6A80
1F80
0000
ENDCHAR

STARTCHAR Cb1f7
ENCODING 45559
SWIDTH 1000 0
DWIDTH 10 0
BBX 10 10 0 -2
BITMAP
0000
2200
2500
7880
2200
3900
2800
4A00
5900
0000
ENDCHAR

STARTCHAR Cb1f8
ENCODING 45560
SWIDTH 1000 0
DWIDTH 10 0
BBX 10 10 0 -2
BITMAP
0000
4F00
2400
5F80
2400
0700
2900
4100
4600
0000
ENDCHAR

STARTCHAR Cb1f9
ENCODING 45561
SWIDTH 1000 0
DWIDTH 10 0
BBX 10 10 0 -2
BITMAP
0000
1780
5480
7C80
1780
3A00
1780
1A80
6580
0000
ENDCHAR

STARTCHAR Cb1fa
ENCODING 45562
SWIDTH 1000 0
DWIDTH 10 0
BBX 10 10 0 -2
BITMAP
0000
7380
5280
5280
5E80
4080
4080
7F80
4080
0000
ENDCHAR

STARTCHAR Cb1fb
ENCODING 45563
SWIDTH 1000 0
DWIDTH 10 0
BBX 10 10 0 -2
BITMAP
0000
0800
3F00
2900
2900
7F80
0800
1600
6180
0000
ENDCHAR

STARTCHAR Cb1fc
ENCODING 45564
SWIDTH 1000 0
DWIDTH 10 0
BBX 10 10 0 -2
BITMAP
0000
1000
3F00
2900
3500
2900
7F80
1200
6180
0000
ENDCHAR

STARTCHAR Cb1fd
ENCODING 45565
SWIDTH 1000 0
DWIDTH 10 0
BBX 10 10 0 -2
BITMAP
0000
1200
2F80
4200
1200
2700
6200
2200
2F80
0000
ENDCHAR

STARTCHAR Cb1fe
ENCODING 45566
SWIDTH 1000 0
DWIDTH 10 0
BBX 10 10 0 -2
BITMAP
0000
0400
3F80
2800
2400
2900
2880
5A80
6E00
0000
ENDCHAR

STARTCHAR Cb2a1
ENCODING 45729
SWIDTH 1000 0
DWIDTH 10 0
BBX 10 10 0 -2
BITMAP
0000
2F80
2A80
7F80
2A80
3F80
6200
2200
6200
0000
ENDCHAR

STARTCHAR Cb2a2
ENCODING 45730
SWIDTH 1000 0
DWIDTH 10 0
BBX 10 10 0 -2
BITMAP
0000
7F80
5200
5200
7F80
5200
5200
7200
0F80
0000
ENDCHAR

STARTCHAR Cb2a3
ENCODING 45731
SWIDTH 1000 0
DWIDTH 10 0
BBX 10 10 0 -2
BITMAP
0000
2F80
2500
7F80
2200
6F80
3A80
2F80
2500
0000
ENDCHAR

STARTCHAR Cb2a4
ENCODING 45732
SWIDTH 1000 0
DWIDTH 10 0
BBX 10 10 0 -2
BITMAP
0000
0400
7780
4A80
6A00
5200
6D00
4500
6880
0000
ENDCHAR

STARTCHAR Cb2a5
ENCODING 45733
SWIDTH 1000 0
DWIDTH 10 0
BBX 10 10 0 -2
BITMAP
0000
7700
4500
6980
5000
6F00
4500
7200
0D80
0000
ENDCHAR

STARTCHAR Cb2a6
ENCODING 45734
SWIDTH 1000 0
DWIDTH 10 0
BBX 10 10 0 -2
BITMAP
0000
7F00
0800
0800
3E00
0800
0800
0800
7F80
0000
ENDCHAR

STARTCHAR Cb2a7
ENCODING 45735
SWIDTH 1000 0
DWIDTH 10 0
BBX 10 10 0 -2
BITMAP
0000
1200
6980
1E00
0000
7F80
2A80
1980
2A80
0000
ENDCHAR

STARTCHAR Cb2a8
ENCODING 45736
SWIDTH 1000 0
DWIDTH 10 0
BBX 10 10 0 -2
BITMAP
0000
2200
7780
1480
2480
3200
6F80
2200
2D80
0000
ENDCHAR

STARTCHAR Cb2a9
ENCODING 45737
SWIDTH 1000 0
DWIDTH 10 0
BBX 10 10 0 -2
BITMAP
0000
2900
7F80
5280
1E00
1000
1F80
4080
5580
0000
ENDCHAR

STARTCHAR Cb2aa
ENCODING 45738
SWIDTH 1000 0
DWIDTH 10 0
BBX 10 10 0 -2
BITMAP
0000
0200
7700
4500
6F80
5400
6F80
4080
6A80
0000
ENDCHAR

STARTCHAR Cb2ab
ENCODING 45739
SWIDTH 1000 0
DWIDTH 10 0
BBX 10 10 0 -2
BITMAP
0000
1200
3F00
1200
7F80
2900
2900
3F00
6180
0000
ENDCHAR

STARTCHAR Cb2ac
ENCODING 45740
SWIDTH 1000 0
DWIDTH 10 0
BBX 10 10 0 -2
BITMAP
0000
7F80
5480
4880
7F80
4880
4A80
5E80
4180
0000
ENDCHAR

STARTCHAR Cb2ad
ENCODING 45741
SWIDTH 1000 0
DWIDTH 10 0
BBX 10 10 0 -2
BITMAP
0000
2200
1F80
4A80
2A80
0F80
2200
4200
4200
0000
ENDCHAR

STARTCHAR Cb2ae
ENCODING 45742
SWIDTH 1000 0
DWIDTH 10 0
BBX 10 10 0 -2
BITMAP
0000
1200
7F80
5200
2680
5200
3500
5500
2880
0000
ENDCHAR

STARTCHAR Cb2af
ENCODING 45743
SWIDTH 1000 0
DWIDTH 10 0
BBX 10 10 0 -2
BITMAP
0000
1200
1F80
2500
2F80
6500
2700
3480
2700
0000
ENDCHAR

STARTCHAR Cb2b0
ENCODING 45744
SWIDTH 1000 0
DWIDTH 10 0
BBX 10 10 0 -2
BITMAP
0000
3F80
2080
3F80
2400
2900
3E80
2400
5F80
0000
ENDCHAR

STARTCHAR Cb2b1
ENCODING 45745
SWIDTH 1000 0
DWIDTH 10 0
BBX 10 10 0 -2
BITMAP
0000
2200
2F80
3500
6F80
2500
2700
3480
2700
0000
ENDCHAR

STARTCHAR Cb2b2
ENCODING 45746
SWIDTH 1000 0
DWIDTH 10 0
BBX 10 10 0 -2
BITMAP
0000
7200
5F80
7500
5F80
7500
5700
5C80
5700
0000
ENDCHAR

STARTCHAR Cb2b3
ENCODING 45747
SWIDTH 1000 0
DWIDTH 10 0
BBX 10 10 0 -2
BITMAP
0000
2F80
2100
7F80
2A80
6F80
3A80
2F80
2A80
0000
ENDCHAR

STARTCHAR Cb2b4
ENCODING 45748
SWIDTH 1000 0
DWIDTH 10 0
BBX 10 10 0 -2
BITMAP
0000
1200
5200
7A00
1780
1A00
7200
1200
1F80
0000
ENDCHAR

STARTCHAR Cb2b5
ENCODING 45749
SWIDTH 1000 0
DWIDTH 10 0
BBX 10 10 0 -2
BITMAP
0000
0000
3F00
0200
0400
0800
1080
2080
3F80
0000
ENDCHAR

STARTCHAR Cb2b6
ENCODING 45750
SWIDTH 1000 0
DWIDTH 10 0
BBX 10 10 0 -2
BITMAP
0000
1200
1F80
2500
2F80
7900
2F00
2200
2380
0000
ENDCHAR

STARTCHAR Cb2b7
ENCODING 45751
SWIDTH 1000 0
DWIDTH 10 0
BBX 10 10 0 -2
BITMAP
0000
2000
3B80
5280
7A80
1280
5B80
5200
7A00
0000
ENDCHAR

STARTCHAR Cb2b8
ENCODING 45752
SWIDTH 1000 0
DWIDTH 10 0
BBX 10 10 0 -2
BITMAP
0000
3F00
2900
3F00
2900
3500
1F00
5000
5E80
0000
ENDCHAR

STARTCHAR Cb2b9
ENCODING 45753
SWIDTH 1000 0
DWIDTH 10 0
BBX 10 10 0 -2
BITMAP
0000
4F00
2900
4F00
2900
0F80
2A80
4A80
5F80
0000
ENDCHAR

STARTCHAR Cb2ba
ENCODING 45754
SWIDTH 1000 0
DWIDTH 10 0
BBX 10 10 0 -2
BITMAP
0000
1780
6500
2F80
7080
2F80
3100
6480
2700
0000
ENDCHAR

STARTCHAR Cb2bb
ENCODING 45755
SWIDTH 1000 0
DWIDTH 10 0
BBX 10 10 0 -2
BITMAP
0000
0800
3F00
1200
7F80
2100
3F00
2100
3F00
0000
ENDCHAR

STARTCHAR Cb2bc
ENCODING 45756
SWIDTH 1000 0
DWIDTH 10 0
BBX 10 10 0 -2
BITMAP
0000
0000
7F80
0800
0C00
0A00
0900
0800
0800
0000
ENDCHAR

STARTCHAR Cb2bd
ENCODING 45757
SWIDTH 1000 0
DWIDTH 10 0
BBX 10 10 0 -2
BITMAP
0000
1400
1400
2480
2700
6400
2400
2480
2780
0000
ENDCHAR

STARTCHAR Cb2be
ENCODING 45758
SWIDTH 1000 0
DWIDTH 10 0
BBX 10 10 0 -2
BITMAP
0000
1780
1400
2400
2780
6480
2A80
2900
3680
0000
ENDCHAR

STARTCHAR Cb2bf
ENCODING 45759
SWIDTH 1000 0
DWIDTH 10 0
BBX 10 10 0 -2
BITMAP
0000
1000
1780
2080
2E80
6A80
2E80
2080
2180
0000
ENDCHAR

STARTCHAR Cb2c0
ENCODING 45760
SWIDTH 1000 0
DWIDTH 10 0
BBX 10 10 0 -2
BITMAP
0000
2800
2B80
3E80
6A80
2A80
2A80
2A80
3780
0000
ENDCHAR

STARTCHAR Cb2c1
ENCODING 45761
SWIDTH 1000 0
DWIDTH 10 0
BBX 10 10 0 -2
BITMAP
0000
1000
1F80
2500
2F80
6A80
2A80
2A80
2F80
0000
ENDCHAR

STARTCHAR Cb2c2
ENCODING 45762
SWIDTH 1000 0
DWIDTH 10 0
BBX 10 10 0 -2
BITMAP
0000
1200
1700
2200
2F80
6200
2700
2200
2F80
0000
ENDCHAR

STARTCHAR Cb2c3
ENCODING 45763
SWIDTH 1000 0
DWIDTH 10 0
BBX 10 10 0 -2
BITMAP
0000
2000
2380
7A80
2A80
2A80
2A80
4B80
5A80
0000
ENDCHAR

STARTCHAR Cb2c4
ENCODING 45764
SWIDTH 1000 0
DWIDTH 10 0
BBX 10 10 0 -2
BITMAP
0000
0000
7F80
0100
3D00
2500
3D00
0100
0300
0000
ENDCHAR

STARTCHAR Cb2c5
ENCODING 45765
SWIDTH 1000 0
DWIDTH 10 0
BBX 10 10 0 -2
BITMAP
0000
0800
3F00
0800
7F80
1200
7F80
2A80
5B80
0000
ENDCHAR

STARTCHAR Cb2c6
ENCODING 45766
SWIDTH 1000 0
DWIDTH 10 0
BBX 10 10 0 -2
BITMAP
0000
7F80
0800
3F00
2100
1F00
7100
0E00
7180
0000
ENDCHAR

STARTCHAR Cb2c7
ENCODING 45767
SWIDTH 1000 0
DWIDTH 10 0
BBX 10 10 0 -2
BITMAP
0000
2200
2F80
7880
5700
5280
3500
2180
5300
0000
ENDCHAR

STARTCHAR Cb2c8
ENCODING 45768
SWIDTH 1000 0
DWIDTH 10 0
BBX 10 10 0 -2
BITMAP
0000
0800
7F80
4080
3E00
1100
2A00
5500
2C00
0000
ENDCHAR

STARTCHAR Cb2c9
ENCODING 45769
SWIDTH 1000 0
DWIDTH 10 0
BBX 10 10 0 -2
BITMAP
0000
0800
7F80
5280
1E00
3300
5E80
1200
2600
0000
ENDCHAR

STARTCHAR Cb2ca
ENCODING 45770
SWIDTH 1000 0
DWIDTH 10 0
BBX 10 10 0 -2
BITMAP
0000
1100
6500
2100
7500
2100
6F80
2100
2100
0000
ENDCHAR

STARTCHAR Cb2cb
ENCODING 45771
SWIDTH 1000 0
DWIDTH 10 0
BBX 10 10 0 -2
BITMAP
0000
1D80
7480
5D80
7000
5B80
7280
1900
1280
0000
ENDCHAR

STARTCHAR Cb2cc
ENCODING 45772
SWIDTH 1000 0
DWIDTH 10 0
BBX 10 10 0 -2
BITMAP
0000
3F00
2900
3F00
2900
7F80
2A00
2900
4880
0000
ENDCHAR

STARTCHAR Cb2cd
ENCODING 45773
SWIDTH 1000 0
DWIDTH 10 0
BBX 10 10 0 -2
BITMAP
0000
2000
7B80
2A80
5B80
0800
7F80
2A00
4980
0000
ENDCHAR

STARTCHAR Cb2ce
ENCODING 45774
SWIDTH 1000 0
DWIDTH 10 0
BBX 10 10 0 -2
BITMAP
0000
7A00
1380
5680
0200
7A00
1500
5500
1880
0000
ENDCHAR

STARTCHAR Cb2cf
ENCODING 45775
SWIDTH 1000 0
DWIDTH 10 0
BBX 10 10 0 -2
BITMAP
0000
4F80
2080
4E80
2A80
0A80
2E80
4080
4180
0000
ENDCHAR

STARTCHAR Cb2d0
ENCODING 45776
SWIDTH 1000 0
DWIDTH 10 0
BBX 10 10 0 -2
BITMAP
0000
0800
0900
2900
2A00
5400
1400
2200
4180
0000
ENDCHAR

STARTCHAR Cb2d1
ENCODING 45777
SWIDTH 1000 0
DWIDTH 10 0
BBX 10 10 0 -2
BITMAP
0000
0F80
7080
2E80
2A80
7A80
2E80
3080
6180
0000
ENDCHAR

STARTCHAR Cb2d2
ENCODING 45778
SWIDTH 1000 0
DWIDTH 10 0
BBX 10 10 0 -2
BITMAP
0000
2700
2500
7500
1F80
2880
7E80
2A80
2E80
0000
ENDCHAR

STARTCHAR Cb2d3
ENCODING 45779
SWIDTH 1000 0
DWIDTH 10 0
BBX 10 10 0 -2
BITMAP
0000
0700
7800
0800
7F80
2A00
2900
4880
0800
0000
ENDCHAR

STARTCHAR Cb2d4
ENCODING 45780
SWIDTH 1000 0
DWIDTH 10 0
BBX 10 10 0 -2
BITMAP
0000
1200
6F80
2880
7F00
2480
6B00
2580
2B00
0000
ENDCHAR

STARTCHAR Cb2d5
ENCODING 45781
SWIDTH 1000 0
DWIDTH 10 0
BBX 10 10 0 -2
BITMAP
0000
1200
7F80
1200
7F80
4880
5C80
5480
7F80
0000
ENDCHAR

STARTCHAR Cb2d6
ENCODING 45782
SWIDTH 1000 0
DWIDTH 10 0
BBX 10 10 0 -2
BITMAP
0000
1200
7F80
1200
1400
2500
6600
2480
2780
0000
ENDCHAR

STARTCHAR Cb2d7
ENCODING 45783
SWIDTH 1000 0
DWIDTH 10 0
BBX 10 10 0 -2
BITMAP
0000
1200
7F80
1200
7F80
0100
3D00
2500
3F00
0000
ENDCHAR

STARTCHAR Cb2d8
ENCODING 45784
SWIDTH 1000 0
DWIDTH 10 0
BBX 10 10 0 -2
BITMAP
0000
1200
7F80
1200
7B80
2A80
2A80
2A80
5B80
0000
ENDCHAR

STARTCHAR Cb2d9
ENCODING 45785
SWIDTH 1000 0
DWIDTH 10 0
BBX 10 10 0 -2
BITMAP
0000
1200
7F80
1200
1F80
2080
6E80
2A80
2E80
0000
ENDCHAR

STARTCHAR Cb2da
ENCODING 45786
SWIDTH 1000 0
DWIDTH 10 0
BBX 10 10 0 -2
BITMAP
0000
7F80
1200
7F00
2A00
7F80
2A00
7F00
0800
0000
ENDCHAR

STARTCHAR Cb2db
ENCODING 45787
SWIDTH 1000 0
DWIDTH 10 0
BBX 10 10 0 -2
BITMAP
0000
1200
7F80
2900
3F00
2900
7F80
2A00
4980
0000
ENDCHAR

STARTCHAR Cb2dc
ENCODING 45788
SWIDTH 1000 0
DWIDTH 10 0
BBX 10 10 0 -2
BITMAP
0000
2F80
2A80
7F80
4800
7F80
2A80
3D00
6A80
0000
ENDCHAR

STARTCHAR Cb2dd
ENCODING 45789
SWIDTH 1000 0
DWIDTH 10 0
BBX 10 10 0 -2
BITMAP
0000
2F80
7A80
0F80
7A80
0F80
7200
5700
7A80
0000
ENDCHAR

STARTCHAR Cb2de
ENCODING 45790
SWIDTH 1000 0
DWIDTH 10 0
BBX 10 10 0 -2
BITMAP
0000
1F00
0A00
7F80
5500
5F80
5500
7F80
0400
0000
ENDCHAR

STARTCHAR Cb2df
ENCODING 45791
SWIDTH 1000 0
DWIDTH 10 0
BBX 10 10 0 -2
BITMAP
0000
1500
2600
6480
3F80
2100
2100
3F00
6180
0000
ENDCHAR

STARTCHAR Cb2e0
ENCODING 45792
SWIDTH 1000 0
DWIDTH 10 0
BBX 10 10 0 -2
BITMAP
0000
4800
3F80
0A80
0A80
6A80
3780
2000
5F80
0000
ENDCHAR

STARTCHAR Cb2e1
ENCODING 45793
SWIDTH 1000 0
DWIDTH 10 0
BBX 10 10 0 -2
BITMAP
0000
4700
2500
0500
0F80
6A80
2E80
2800
5F80
0000
ENDCHAR

STARTCHAR Cb2e2
ENCODING 45794
SWIDTH 1000 0
DWIDTH 10 0
BBX 10 10 0 -2
BITMAP
0000
3F00
0800
7F80
4A80
7700
5500
7200
4D80
0000
ENDCHAR

STARTCHAR Cb2e3
ENCODING 45795
SWIDTH 1000 0
DWIDTH 10 0
BBX 10 10 0 -2
BITMAP
0000
2200
2200
7F80
5500
7500
2200
3500
6880
0000
ENDCHAR

STARTCHAR Cb2e4
ENCODING 45796
SWIDTH 1000 0
DWIDTH 10 0
BBX 10 10 0 -2
BITMAP
0000
1300
1D80
2500
7F80
2500
2D80
2500
2C80
0000
ENDCHAR

STARTCHAR Cb2e5
ENCODING 45797
SWIDTH 1000 0
DWIDTH 10 0
BBX 10 10 0 -2
BITMAP
0000
1300
1D80
5500
5F80
5500
7D80
0500
0C80
0000
ENDCHAR

STARTCHAR Cb2e6
ENCODING 45798
SWIDTH 1000 0
DWIDTH 10 0
BBX 10 10 0 -2
BITMAP
0000
1A00
7280
1F80
7200
1A80
7100
1300
3480
0000
ENDCHAR

STARTCHAR Cb2e7
ENCODING 45799
SWIDTH 1000 0
DWIDTH 10 0
BBX 10 10 0 -2
BITMAP
0000
3F00
2200
2200
7F80
0A00
1200
6200
0600
0000
ENDCHAR

STARTCHAR Cb2e8
ENCODING 45800
SWIDTH 1000 0
DWIDTH 10 0
BBX 10 10 0 -2
BITMAP
0000
7F80
0800
5E80
5280
5280
5E80
4080
7F80
0000
ENDCHAR

STARTCHAR Cb2e9
ENCODING 45801
SWIDTH 1000 0
DWIDTH 10 0
BBX 10 10 0 -2
BITMAP
0000
7A00
5200
7A00
4A00
7A00
5500
7D00
0880
0000
ENDCHAR

STARTCHAR Cb2ea
ENCODING 45802
SWIDTH 1000 0
DWIDTH 10 0
BBX 10 10 0 -2
BITMAP
0000
1200
7F80
1200
7F00
2200
7F80
1200
6600
0000
ENDCHAR

STARTCHAR Cb2eb
ENCODING 45803
SWIDTH 1000 0
DWIDTH 10 0
BBX 10 10 0 -2
BITMAP
0000
2300
2D80
7500
5F80
7500
2D80
3500
6E80
0000
ENDCHAR

STARTCHAR Cb2ec
ENCODING 45804
SWIDTH 1000 0
DWIDTH 10 0
BBX 10 10 0 -2
BITMAP
0000
1000
7B80
2A80
7F80
2100
2100
3F00
6180
0000
ENDCHAR

STARTCHAR Cb2ed
ENCODING 45805
SWIDTH 1000 0
DWIDTH 10 0
BBX 10 10 0 -2
BITMAP
0000
7500
5780
5500
7F80
1500
3780
5500
1780
0000
ENDCHAR

STARTCHAR Cb2ee
ENCODING 45806
SWIDTH 1000 0
DWIDTH 10 0
BBX 10 10 0 -2
BITMAP
0000
2300
5D80
7500
5F80
7500
4D80
5500
6E80
0000
ENDCHAR

STARTCHAR Cb2ef
ENCODING 45807
SWIDTH 1000 0
DWIDTH 10 0
BBX 10 10 0 -2
BITMAP
0000
2000
7B80
2A80
7F80
2400
3F80
4080
5580
0000
ENDCHAR

STARTCHAR Cb2f0
ENCODING 45808
SWIDTH 1000 0
DWIDTH 10 0
BBX 10 10 0 -2
BITMAP
0000
0C00
1200
6180
0200
2200
2200
2200
4200
0000
ENDCHAR

STARTCHAR Cb2f1
ENCODING 45809
SWIDTH 1000 0
DWIDTH 10 0
BBX 10 10 0 -2
BITMAP
0000
0C00
1200
6180
1E00
0000
7F80
1200
3D00
0000
ENDCHAR

STARTCHAR Cb2f2
ENCODING 45810
SWIDTH 1000 0
DWIDTH 10 0
BBX 10 10 0 -2
BITMAP
0000
3780
5280
2580
7A00
4B80
7D00
4B80
4900
0000
ENDCHAR

STARTCHAR Cb2f3
ENCODING 45811
SWIDTH 1000 0
DWIDTH 10 0
BBX 10 10 0 -2
BITMAP
0000
7F80
4080
5E80
5280
5E80
4080
7F80
4080
0000
ENDCHAR

STARTCHAR Cb2f4
ENCODING 45812
SWIDTH 1000 0
DWIDTH 10 0
BBX 10 10 0 -2
BITMAP
0000
2400
2F80
7A80
2F80
3A80
6F80
0A00
3380
0000
ENDCHAR

STARTCHAR Cb2f5
ENCODING 45813
SWIDTH 1000 0
DWIDTH 10 0
BBX 10 10 0 -2
BITMAP
0000
2F80
2200
7F80
2A80
2F80
3500
6D00
0680
0000
ENDCHAR

STARTCHAR Cb2f6
ENCODING 45814
SWIDTH 1000 0
DWIDTH 10 0
BBX 10 10 0 -2
BITMAP
0000
6F80
2880
4E80
6A80
2A80
6F80
3000
4F80
0000
ENDCHAR

STARTCHAR Cb2f7
ENCODING 45815
SWIDTH 1000 0
DWIDTH 10 0
BBX 10 10 0 -2
BITMAP
0000
2400
2F00
3500
6500
3F80
2400
2A00
3180
0000
ENDCHAR

STARTCHAR Cb2f8
ENCODING 45816
SWIDTH 1000 0
DWIDTH 10 0
BBX 10 10 0 -2
BITMAP
0000
2F80
2500
3200
6D80
2200
2700
2200
2F80
0000
ENDCHAR

STARTCHAR Cb2f9
ENCODING 45817
SWIDTH 1000 0
DWIDTH 10 0
BBX 10 10 0 -2
BITMAP
0000
2800
2F80
3000
6F80
2A80
3F80
2A80
2F80
0000
ENDCHAR

STARTCHAR Cb2fa
ENCODING 45818
SWIDTH 1000 0
DWIDTH 10 0
BBX 10 10 0 -2
BITMAP
0000
2F80
2800
3A00
6A80
2A80
3200
2500
2880
0000
ENDCHAR

STARTCHAR Cb2fb
ENCODING 45819
SWIDTH 1000 0
DWIDTH 10 0
BBX 10 10 0 -2
BITMAP
0000
2F80
2200
3F80
6A80
2F80
2500
2D00
2680
0000
ENDCHAR

STARTCHAR Cb2fc
ENCODING 45820
SWIDTH 1000 0
DWIDTH 10 0
BBX 10 10 0 -2
BITMAP
0000
0500
7F80
0400
2A80
7A80
2900
4300
0480
0000
ENDCHAR

STARTCHAR Cb2fd
ENCODING 45821
SWIDTH 1000 0
DWIDTH 10 0
BBX 10 10 0 -2
BITMAP
0000
2700
2500
7700
2000
6F80
2480
2480
6B00
0000
ENDCHAR

STARTCHAR Cb2fe
ENCODING 45822
SWIDTH 1000 0
DWIDTH 10 0
BBX 10 10 0 -2
BITMAP
0000
7400
1780
1D00
7500
4200
5200
7500
0880
0000
ENDCHAR

STARTCHAR Cb3a1
ENCODING 45985
SWIDTH 1000 0
DWIDTH 10 0
BBX 10 10 0 -2
BITMAP
0000
4100
7500
5100
7500
5100
7780
5100
5F80
0000
ENDCHAR

STARTCHAR Cb3a2
ENCODING 45986
SWIDTH 1000 0
DWIDTH 10 0
BBX 10 10 0 -2
BITMAP
0000
0400
7780
5800
7700
5500
5F80
7500
0780
0000
ENDCHAR

STARTCHAR Cb3a3
ENCODING 45987
SWIDTH 1000 0
DWIDTH 10 0
BBX 10 10 0 -2
BITMAP
0000
2280
2F80
7200
2A00
3E80
6900
2900
2280
0000
ENDCHAR

STARTCHAR Cb3a4
ENCODING 45988
SWIDTH 1000 0
DWIDTH 10 0
BBX 10 10 0 -2
BITMAP
0000
4800
2F80
5000
2F80
0A80
2F80
4A80
4F80
0000
ENDCHAR

STARTCHAR Cb3a5
ENCODING 45989
SWIDTH 1000 0
DWIDTH 10 0
BBX 10 10 0 -2
BITMAP
0000
3F80
2000
2200
2A80
2B00
2200
4500
5880
0000
ENDCHAR

STARTCHAR Cb3a6
ENCODING 45990
SWIDTH 1000 0
DWIDTH 10 0
BBX 10 10 0 -2
BITMAP
0000
3F00
2900
3F00
2900
3F00
5280
1200
2200
0000
ENDCHAR

STARTCHAR Cb3a7
ENCODING 45991
SWIDTH 1000 0
DWIDTH 10 0
BBX 10 10 0 -2
BITMAP
0000
2200
3B80
2200
7B80
0800
3F00
2100
3F00
0000
ENDCHAR

STARTCHAR Cb3a8
ENCODING 45992
SWIDTH 1000 0
DWIDTH 10 0
BBX 10 10 0 -2
BITMAP
0000
2200
4500
2F80
5000
7F80
2400
6900
2E80
0000
ENDCHAR

STARTCHAR Cb3a9
ENCODING 45993
SWIDTH 1000 0
DWIDTH 10 0
BBX 10 10 0 -2
BITMAP
0000
7F80
1200
0800
1600
6180
1200
1200
2200
0000
ENDCHAR

STARTCHAR Cb3aa
ENCODING 45994
SWIDTH 1000 0
DWIDTH 10 0
BBX 10 10 0 -2
BITMAP
0000
3F80
5280
3D80
2900
2B80
5D00
0900
7E80
0000
ENDCHAR

STARTCHAR Cb3ab
ENCODING 45995
SWIDTH 1000 0
DWIDTH 10 0
BBX 10 10 0 -2
BITMAP
0000
7780
5480
7780
5C80
5480
7E80
5480
5580
0000
ENDCHAR

STARTCHAR Cb3ac
ENCODING 45996
SWIDTH 1000 0
DWIDTH 10 0
BBX 10 10 0 -2
BITMAP
0000
7200
5B80
7200
5B80
5400
6F00
4900
4F00
0000
ENDCHAR

STARTCHAR Cb3ad
ENCODING 45997
SWIDTH 1000 0
DWIDTH 10 0
BBX 10 10 0 -2
BITMAP
0000
3F00
2100
3F00
2100
3F00
2100
3F00
6180
0000
ENDCHAR

STARTCHAR Cb3ae
ENCODING 45998
SWIDTH 1000 0
DWIDTH 10 0
BBX 10 10 0 -2
BITMAP
0000
5700
7500
0500
7500
5500
7500
2500
7980
0000
ENDCHAR

STARTCHAR Cb3af
ENCODING 45999
SWIDTH 1000 0
DWIDTH 10 0
BBX 10 10 0 -2
BITMAP
0000
2200
7A00
2780
5280
2A80
5280
2A80
4D80
0000
ENDCHAR

STARTCHAR Cb3b0
ENCODING 46000
SWIDTH 1000 0
DWIDTH 10 0
BBX 10 10 0 -2
BITMAP
0000
2200
3A00
2A00
6E00
5B00
1280
2200
4200
0000
ENDCHAR

STARTCHAR Cb3b1
ENCODING 46001
SWIDTH 1000 0
DWIDTH 10 0
BBX 10 10 0 -2
BITMAP
0000
0200
7F80
5500
5200
5480
5900
7280
0C80
0000
ENDCHAR

STARTCHAR Cb3b2
ENCODING 46002
SWIDTH 1000 0
DWIDTH 10 0
BBX 10 10 0 -2
BITMAP
0000
0800
7F80
4880
3E00
0800
7F80
2200
3E00
0000
ENDCHAR

STARTCHAR Cb3b3
ENCODING 46003
SWIDTH 1000 0
DWIDTH 10 0
BBX 10 10 0 -2
BITMAP
0000
2500
3F00
0000
3F80
2400
3F00
2400
5F80
0000
ENDCHAR

STARTCHAR Cb3b4
ENCODING 46004
SWIDTH 1000 0
DWIDTH 10 0
BBX 10 10 0 -2
BITMAP
0000
2F80
2A80
3E80
6B80
2E80
2900
2B00
2D80
0000
ENDCHAR

STARTCHAR Cb3b5
ENCODING 46005
SWIDTH 1000 0
DWIDTH 10 0
BBX 10 10 0 -2
BITMAP
0000
2F80
2A80
7E80
2B80
6E80
3900
2B00
2D80
0000
ENDCHAR

STARTCHAR Cb3b6
ENCODING 46006
SWIDTH 1000 0
DWIDTH 10 0
BBX 10 10 0 -2
BITMAP
0000
4F80
2A00
4F00
2A00
0F80
2A00
4A00
5780
0000
ENDCHAR

STARTCHAR Cb3b7
ENCODING 46007
SWIDTH 1000 0
DWIDTH 10 0
BBX 10 10 0 -2
BITMAP
0000
7700
2500
4700
7500
5F80
5500
7100
0300
0000
ENDCHAR

STARTCHAR Cb3b8
ENCODING 46008
SWIDTH 1000 0
DWIDTH 10 0
BBX 10 10 0 -2
BITMAP
0000
1200
7F80
1200
3D00
0000
3F00
2900
7F80
0000
ENDCHAR

STARTCHAR Cb3b9
ENCODING 46009
SWIDTH 1000 0
DWIDTH 10 0
BBX 10 10 0 -2
BITMAP
0000
2580
4E00
1400
2F80
6480
2E80
2480
2E80
0000
ENDCHAR

STARTCHAR Cb3ba
ENCODING 46010
SWIDTH 1000 0
DWIDTH 10 0
BBX 10 10 0 -2
BITMAP
0000
2200
7780
0500
7200
0480
7900
5280
7480
0000
ENDCHAR

STARTCHAR Cb3bb
ENCODING 46011
SWIDTH 1000 0
DWIDTH 10 0
BBX 10 10 0 -2
BITMAP
0000
2A80
5F80
7000
2F80
7500
2700
3200
6F80
0000
ENDCHAR

STARTCHAR Cb3bc
ENCODING 46012
SWIDTH 1000 0
DWIDTH 10 0
BBX 10 10 0 -2
BITMAP
0000
3900
2B80
7D00
4680
3900
2A80
3900
2A80
0000
ENDCHAR

STARTCHAR Cb3bd
ENCODING 46013
SWIDTH 1000 0
DWIDTH 10 0
BBX 10 10 0 -2
BITMAP
0000
4F80
2A80
4F80
2A80
0F80
2200
4200
5F80
0000
ENDCHAR

STARTCHAR Cb3be
ENCODING 46014
SWIDTH 1000 0
DWIDTH 10 0
BBX 10 10 0 -2
BITMAP
0000
2700
7580
2F00
7500
5200
7F00
5280
1E00
0000
ENDCHAR

STARTCHAR Cb3bf
ENCODING 46015
SWIDTH 1000 0
DWIDTH 10 0
BBX 10 10 0 -2
BITMAP
0000
2200
2700
7200
5F80
7200
2700
3200
6F80
0000
ENDCHAR

STARTCHAR Cb3c0
ENCODING 46016
SWIDTH 1000 0
DWIDTH 10 0
BBX 10 10 0 -2
BITMAP
0000
2F80
2000
7700
2500
2500
3700
6000
0F80
0000
ENDCHAR

STARTCHAR Cb3c1
ENCODING 46017
SWIDTH 1000 0
DWIDTH 10 0
BBX 10 10 0 -2
BITMAP
0000
2200
2F80
7200
2F80
6A80
3A80
2B80
2200
0000
ENDCHAR

STARTCHAR Cb3c2
ENCODING 46018
SWIDTH 1000 0
DWIDTH 10 0
BBX 10 10 0 -2
BITMAP
0000
2780
2400
7780
5400
7780
2A80
2A80
7580
0000
ENDCHAR

STARTCHAR Cb3c3
ENCODING 46019
SWIDTH 1000 0
DWIDTH 10 0
BBX 10 10 0 -2
BITMAP
0000
2400
5780
7880
2480
7A80
2E80
3080
6300
0000
ENDCHAR

STARTCHAR Cb3c4
ENCODING 46020
SWIDTH 1000 0
DWIDTH 10 0
BBX 10 10 0 -2
BITMAP
0000
2080
7A80
2A80
7E80
2A80
7A80
4880
7980
0000
ENDCHAR

STARTCHAR Cb3c5
ENCODING 46021
SWIDTH 1000 0
DWIDTH 10 0
BBX 10 10 0 -2
BITMAP
0000
0500
7F80
5500
5F80
5500
7580
1500
2B00
0000
ENDCHAR

STARTCHAR Cb3c6
ENCODING 46022
SWIDTH 1000 0
DWIDTH 10 0
BBX 10 10 0 -2
BITMAP
0000
1000
1F00
3200
4C00
1200
3F00
5280
1E00
0000
ENDCHAR

STARTCHAR Cb3c7
ENCODING 46023
SWIDTH 1000 0
DWIDTH 10 0
BBX 10 10 0 -2
BITMAP
0000
1000
7F80
4A80
7B00
5280
7A80
5300
5200
0000
ENDCHAR

STARTCHAR Cb3c8
ENCODING 46024
SWIDTH 1000 0
DWIDTH 10 0
BBX 10 10 0 -2
BITMAP
0000
2200
2F80
7800
2A00
3A00
6A80
2F80
7080
0000
ENDCHAR

STARTCHAR Cb3c9
ENCODING 46025
SWIDTH 1000 0
DWIDTH 10 0
BBX 10 10 0 -2
BITMAP
0000
2500
2F80
7880
2700
3500
6700
2500
6980
0000
ENDCHAR

STARTCHAR Cb3ca
ENCODING 46026
SWIDTH 1000 0
DWIDTH 10 0
BBX 10 10 0 -2
BITMAP
0000
2400
2700
7D00
2200
6500
3F80
2500
2700
0000
ENDCHAR

STARTCHAR Cb3cb
ENCODING 46027
SWIDTH 1000 0
DWIDTH 10 0
BBX 10 10 0 -2
BITMAP
0000
2200
2F80
7500
2200
3480
6900
2280
2C80
0000
ENDCHAR

STARTCHAR Cb3cc
ENCODING 46028
SWIDTH 1000 0
DWIDTH 10 0
BBX 10 10 0 -2
BITMAP
0000
2700
7D00
2580
7800
0700
7500
5200
5D80
0000
ENDCHAR

STARTCHAR Cb3cd
ENCODING 46029
SWIDTH 1000 0
DWIDTH 10 0
BBX 10 10 0 -2
BITMAP
0000
5F80
2500
5780
1D00
3780
5480
1300
6C80
0000
ENDCHAR

STARTCHAR Cb3ce
ENCODING 46030
SWIDTH 1000 0
DWIDTH 10 0
BBX 10 10 0 -2
BITMAP
0000
0200
7F80
2A80
4780
7D00
5780
5500
7780
0000
ENDCHAR

STARTCHAR Cb3cf
ENCODING 46031
SWIDTH 1000 0
DWIDTH 10 0
BBX 10 10 0 -2
BITMAP
0000
1F80
6500
2780
7D00
2780
3480
6300
2C80
0000
ENDCHAR

STARTCHAR Cb3d0
ENCODING 46032
SWIDTH 1000 0
DWIDTH 10 0
BBX 10 10 0 -2
BITMAP
0000
2900
7F80
5280
1E00
1200
1E00
1280
6380
0000
ENDCHAR

STARTCHAR Cb3d1
ENCODING 46033
SWIDTH 1000 0
DWIDTH 10 0
BBX 10 10 0 -2
BITMAP
0000
1E00
1400
3F00
6900
3F00
2900
3F00
4100
0000
ENDCHAR

STARTCHAR Cb3d2
ENCODING 46034
SWIDTH 1000 0
DWIDTH 10 0
BBX 10 10 0 -2
BITMAP
0000
1200
3F00
1200
7F80
2500
6D80
2500
4B00
0000
ENDCHAR

STARTCHAR Cb3d3
ENCODING 46035
SWIDTH 1000 0
DWIDTH 10 0
BBX 10 10 0 -2
BITMAP
0000
2200
7F80
2500
7880
5500
7200
2500
7880
0000
ENDCHAR

STARTCHAR Cb3d4
ENCODING 46036
SWIDTH 1000 0
DWIDTH 10 0
BBX 10 10 0 -2
BITMAP
0000
1000
7F80
2A80
3B00
1280
7A80
1300
3200
0000
ENDCHAR

STARTCHAR Cb3d5
ENCODING 46037
SWIDTH 1000 0
DWIDTH 10 0
BBX 10 10 0 -2
BITMAP
0000
7780
5480
7F80
5480
6880
5C80
7680
5D80
0000
ENDCHAR

STARTCHAR Cb3d6
ENCODING 46038
SWIDTH 1000 0
DWIDTH 10 0
BBX 10 10 0 -2
BITMAP
0000
7F80
5500
6700
5000
5F80
6880
4F80
4A80
0000
ENDCHAR

STARTCHAR Cb3d7
ENCODING 46039
SWIDTH 1000 0
DWIDTH 10 0
BBX 10 10 0 -2
BITMAP
0000
7F80
1200
3F00
2900
3F00
0800
7F80
0800
0000
ENDCHAR

STARTCHAR Cb3d8
ENCODING 46040
SWIDTH 1000 0
DWIDTH 10 0
BBX 10 10 0 -2
BITMAP
0000
2900
7F80
4080
1E00
0400
7F80
0400
0C00
0000
ENDCHAR

STARTCHAR Cb3d9
ENCODING 46041
SWIDTH 1000 0
DWIDTH 10 0
BBX 10 10 0 -2
BITMAP
0000
3E00
2000
3F00
2200
7F80
0800
4900
7F00
0000
ENDCHAR

STARTCHAR Cb3da
ENCODING 46042
SWIDTH 1000 0
DWIDTH 10 0
BBX 10 10 0 -2
BITMAP
0000
0800
5E80
3300
5E80
0800
7F80
2A00
4980
0000
ENDCHAR

STARTCHAR Cb3db
ENCODING 46043
SWIDTH 1000 0
DWIDTH 10 0
BBX 10 10 0 -2
BITMAP
0000
1780
7A00
4B80
3A80
6B80
3280
6B00
3A80
0000
ENDCHAR

STARTCHAR Cb3dc
ENCODING 46044
SWIDTH 1000 0
DWIDTH 10 0
BBX 10 10 0 -2
BITMAP
0000
7F80
5200
7F80
0480
7780
2480
3700
1480
0000
ENDCHAR

STARTCHAR Cb3dd
ENCODING 46045
SWIDTH 1000 0
DWIDTH 10 0
BBX 10 10 0 -2
BITMAP
0000
2500
2F00
7500
2F80
3500
6F00
2500
6F00
0000
ENDCHAR

STARTCHAR Cb3de
ENCODING 46046
SWIDTH 1000 0
DWIDTH 10 0
BBX 10 10 0 -2
BITMAP
0000
2200
3B80
5500
0800
3F00
1200
1200
7F80
0000
ENDCHAR

STARTCHAR Cb3df
ENCODING 46047
SWIDTH 1000 0
DWIDTH 10 0
BBX 10 10 0 -2
BITMAP
0000
2F80
2A80
7900
2E80
3200
6F80
2200
2F80
0000
ENDCHAR

STARTCHAR Cb3e0
ENCODING 46048
SWIDTH 1000 0
DWIDTH 10 0
BBX 10 10 0 -2
BITMAP
0000
2F80
2000
7700
2500
3F80
6500
2500
2F80
0000
ENDCHAR

STARTCHAR Cb3e1
ENCODING 46049
SWIDTH 1000 0
DWIDTH 10 0
BBX 10 10 0 -2
BITMAP
0000
2F80
2880
7F80
2900
3A00
6F80
2A00
3380
0000
ENDCHAR

STARTCHAR Cb3e2
ENCODING 46050
SWIDTH 1000 0
DWIDTH 10 0
BBX 10 10 0 -2
BITMAP
0000
3300
5D00
2580
7F00
5500
7500
0E80
5480
0000
ENDCHAR

STARTCHAR Cb3e3
ENCODING 46051
SWIDTH 1000 0
DWIDTH 10 0
BBX 10 10 0 -2
BITMAP
0000
4400
2B00
4900
2B00
0900
2F80
4080
5580
0000
ENDCHAR

STARTCHAR Cb3e4
ENCODING 46052
SWIDTH 1000 0
DWIDTH 10 0
BBX 10 10 0 -2
BITMAP
0000
1080
7E80
5280
3A80
1280
7A80
2880
3980
0000
ENDCHAR

STARTCHAR Cb3e5
ENCODING 46053
SWIDTH 1000 0
DWIDTH 10 0
BBX 10 10 0 -2
BITMAP
0000
0F00
0900
7F00
5400
5F80
5480
7680
0180
0000
ENDCHAR

STARTCHAR Cb3e6
ENCODING 46054
SWIDTH 1000 0
DWIDTH 10 0
BBX 10 10 0 -2
BITMAP
0000
2600
2900
3080
6F00
2000
2F00
2900
2F00
0000
ENDCHAR

STARTCHAR Cb3e7
ENCODING 46055
SWIDTH 1000 0
DWIDTH 10 0
BBX 10 10 0 -2
BITMAP
0000
2300
2E00
7200
2F80
3200
6F80
2880
6F80
0000
ENDCHAR

STARTCHAR Cb3e8
ENCODING 46056
SWIDTH 1000 0
DWIDTH 10 0
BBX 10 10 0 -2
BITMAP
0000
4300
2E00
4200
2F80
0200
2F80
4880
4F80
0000
ENDCHAR

STARTCHAR Cb3e9
ENCODING 46057
SWIDTH 1000 0
DWIDTH 10 0
BBX 10 10 0 -2
BITMAP
0000
5F00
3100
5F00
2800
1F80
2880
4C80
4300
0000
ENDCHAR

STARTCHAR Cb3ea
ENCODING 46058
SWIDTH 1000 0
DWIDTH 10 0
BBX 10 10 0 -2
BITMAP
0000
4F00
2900
5F80
3080
0F00
2900
4F00
4900
0000
ENDCHAR

STARTCHAR Cb3eb
ENCODING 46059
SWIDTH 1000 0
DWIDTH 10 0
BBX 10 10 0 -2
BITMAP
0000
1200
7F80
1200
3F00
2100
3F80
5080
1B80
0000
ENDCHAR

STARTCHAR Cb3ec
ENCODING 46060
SWIDTH 1000 0
DWIDTH 10 0
BBX 10 10 0 -2
BITMAP
0000
2F00
2900
7F00
1400
2F80
7480
2680
2180
0000
ENDCHAR

STARTCHAR Cb3ed
ENCODING 46061
SWIDTH 1000 0
DWIDTH 10 0
BBX 10 10 0 -2
BITMAP
0000
2200
7F80
2A80
7700
5200
7F80
2500
7700
0000
ENDCHAR

STARTCHAR Cb3ee
ENCODING 46062
SWIDTH 1000 0
DWIDTH 10 0
BBX 10 10 0 -2
BITMAP
0000
3F00
2100
3F00
2100
3F00
2100
2100
7F80
0000
ENDCHAR

STARTCHAR Cb3ef
ENCODING 46063
SWIDTH 1000 0
DWIDTH 10 0
BBX 10 10 0 -2
BITMAP
0000
2F80
5A80
2900
7E80
5200
7700
0200
5780
0000
ENDCHAR

STARTCHAR Cb3f0
ENCODING 46064
SWIDTH 1000 0
DWIDTH 10 0
BBX 10 10 0 -2
BITMAP
0000
0200
7200
5200
5F80
5200
5200
7200
0200
0000
ENDCHAR

STARTCHAR Cb3f1
ENCODING 46065
SWIDTH 1000 0
DWIDTH 10 0
BBX 10 10 0 -2
BITMAP
0000
2500
2F80
7100
2500
2D80
6500
2500
2580
0000
ENDCHAR

STARTCHAR Cb3f2
ENCODING 46066
SWIDTH 1000 0
DWIDTH 10 0
BBX 10 10 0 -2
BITMAP
0000
2F80
2500
7F80
2500
6F80
3200
2F80
2200
0000
ENDCHAR

STARTCHAR Cb3f3
ENCODING 46067
SWIDTH 1000 0
DWIDTH 10 0
BBX 10 10 0 -2
BITMAP
0000
5400
7780
5880
7780
2500
7700
2480
2780
0000
ENDCHAR

STARTCHAR Cb3f4
ENCODING 46068
SWIDTH 1000 0
DWIDTH 10 0
BBX 10 10 0 -2
BITMAP
0000
2A00
2F00
7200
2F80
6200
3700
2A80
2200
0000
ENDCHAR

STARTCHAR Cb3f5
ENCODING 46069
SWIDTH 1000 0
DWIDTH 10 0
BBX 10 10 0 -2
BITMAP
0000
2800
5F00
5500
5D00
7700
1C00
1480
6780
0000
ENDCHAR

STARTCHAR Cb3f6
ENCODING 46070
SWIDTH 1000 0
DWIDTH 10 0
BBX 10 10 0 -2
BITMAP
0000
0800
7F80
5480
2A00
7F00
2A00
3A80
0F80
0000
ENDCHAR

STARTCHAR Cb3f7
ENCODING 46071
SWIDTH 1000 0
DWIDTH 10 0
BBX 10 10 0 -2
BITMAP
0000
7F80
1200
4F80
2200
4F80
2A80
2F80
4A80
0000
ENDCHAR

STARTCHAR Cb3f8
ENCODING 46072
SWIDTH 1000 0
DWIDTH 10 0
BBX 10 10 0 -2
BITMAP
0000
1200
6180
1400
1E00
6980
1E00
2900
7F80
0000
ENDCHAR

STARTCHAR Cb3f9
ENCODING 46073
SWIDTH 1000 0
DWIDTH 10 0
BBX 10 10 0 -2
BITMAP
0000
2500
5F80
6A00
2F80
7A80
2F80
3A00
6A80
0000
ENDCHAR

STARTCHAR Cb3fa
ENCODING 46074
SWIDTH 1000 0
DWIDTH 10 0
BBX 10 10 0 -2
BITMAP
0000
0400
1700
7400
5F80
5500
7B00
1500
1F00
0000
ENDCHAR

STARTCHAR Cb3fb
ENCODING 46075
SWIDTH 1000 0
DWIDTH 10 0
BBX 10 10 0 -2
BITMAP
0000
7200
5700
7500
5780
7400
2780
2A80
2980
0000
ENDCHAR

STARTCHAR Cb3fc
ENCODING 46076
SWIDTH 1000 0
DWIDTH 10 0
BBX 10 10 0 -2
BITMAP
0000
2F80
2200
7780
2480
6780
3480
2480
2780
0000
ENDCHAR

STARTCHAR Cb3fd
ENCODING 46077
SWIDTH 1000 0
DWIDTH 10 0
BBX 10 10 0 -2
BITMAP
0000
1200
7F80
1200
3F00
0200
7F80
1480
6C00
0000
ENDCHAR

STARTCHAR Cb3fe
ENCODING 46078
SWIDTH 1000 0
DWIDTH 10 0
BBX 10 10 0 -2
BITMAP
0000
1200
7F80
1200
7F80
5280
1E00
1200
7F80
0000
ENDCHAR

STARTCHAR Cb4a1
ENCODING 46241
SWIDTH 1000 0
DWIDTH 10 0
BBX 10 10 0 -2
BITMAP
0000
6B80
3880
6B80
5E00
6B80
2C80
3A80
6980
0000
ENDCHAR

STARTCHAR Cb4a2
ENCODING 46242
SWIDTH 1000 0
DWIDTH 10 0
BBX 10 10 0 -2
BITMAP
0000
0880
4A80
2A80
1280
1280
2880
2880
4180
0000
ENDCHAR

STARTCHAR Cb4a3
ENCODING 46243
SWIDTH 1000 0
DWIDTH 10 0
BBX 10 10 0 -2
BITMAP
0000
1200
7F80
1200
4880
2A80
1280
2880
4180
0000
ENDCHAR

STARTCHAR Cb4a4
ENCODING 46244
SWIDTH 1000 0
DWIDTH 10 0
BBX 10 10 0 -2
BITMAP
0000
3F00
1000
1E00
1200
1A00
2A00
2280
7F80
0000
ENDCHAR

STARTCHAR Cb4a5
ENCODING 46245
SWIDTH 1000 0
DWIDTH 10 0
BBX 10 10 0 -2
BITMAP
0000
2400
7780
2800
7700
5100
7200
2480
7780
0000
ENDCHAR

STARTCHAR Cb4a6
ENCODING 46246
SWIDTH 1000 0
DWIDTH 10 0
BBX 10 10 0 -2
BITMAP
0000
1780
1480
2780
2000
6500
2500
2500
2980
0000
ENDCHAR

STARTCHAR Cb4a7
ENCODING 46247
SWIDTH 1000 0
DWIDTH 10 0
BBX 10 10 0 -2
BITMAP
0000
7F80
4280
7780
0200
7600
5200
5280
5F80
0000
ENDCHAR

STARTCHAR Cb4a8
ENCODING 46248
SWIDTH 1000 0
DWIDTH 10 0
BBX 10 10 0 -2
BITMAP
0000
0800
7F80
5280
3F00
1200
3F00
4080
1E00
0000
ENDCHAR

STARTCHAR Cb4a9
ENCODING 46249
SWIDTH 1000 0
DWIDTH 10 0
BBX 10 10 0 -2
BITMAP
0000
0080
3A80
1280
1280
7E80
1280
1080
1180
0000
ENDCHAR

STARTCHAR Cb4aa
ENCODING 46250
SWIDTH 1000 0
DWIDTH 10 0
BBX 10 10 0 -2
BITMAP
0000
2A00
7A00
2F80
3A80
2A80
7E80
5280
7D80
0000
ENDCHAR

STARTCHAR Cb4ab
ENCODING 46251
SWIDTH 1000 0
DWIDTH 10 0
BBX 10 10 0 -2
BITMAP
0000
4200
7A00
2780
7A80
5280
7A80
5280
7D80
0000
ENDCHAR

STARTCHAR Cb4ac
ENCODING 46252
SWIDTH 1000 0
DWIDTH 10 0
BBX 10 10 0 -2
BITMAP
0000
2A00
3F00
1200
7F80
2500
5C80
1200
1E00
0000
ENDCHAR

STARTCHAR Cb4ad
ENCODING 46253
SWIDTH 1000 0
DWIDTH 10 0
BBX 10 10 0 -2
BITMAP
0000
0F00
7100
5E00
4B00
5100
7F80
0A00
3180
0000
ENDCHAR

STARTCHAR Cb4ae
ENCODING 46254
SWIDTH 1000 0
DWIDTH 10 0
BBX 10 10 0 -2
BITMAP
0000
2500
2F80
7500
2700
2500
3F80
6A00
0F80
0000
ENDCHAR

STARTCHAR Cb4af
ENCODING 46255
SWIDTH 1000 0
DWIDTH 10 0
BBX 10 10 0 -2
BITMAP
0000
0800
3F00
1400
3B00
2200
7F80
5500
6E80
0000
ENDCHAR

STARTCHAR Cb4b0
ENCODING 46256
SWIDTH 1000 0
DWIDTH 10 0
BBX 10 10 0 -2
BITMAP
0000
0800
7F80
4080
1E00
0000
7F80
1200
6380
0000
ENDCHAR

STARTCHAR Cb4b1
ENCODING 46257
SWIDTH 1000 0
DWIDTH 10 0
BBX 10 10 0 -2
BITMAP
0000
0800
7F80
5280
1E00
1000
1F00
1100
1F00
0000
ENDCHAR

STARTCHAR Cb4b2
ENCODING 46258
SWIDTH 1000 0
DWIDTH 10 0
BBX 10 10 0 -2
BITMAP
0000
0800
7F80
5280
3F00
2100
3F00
1280
6380
0000
ENDCHAR

STARTCHAR Cb4b3
ENCODING 46259
SWIDTH 1000 0
DWIDTH 10 0
BBX 10 10 0 -2
BITMAP
0000
0000
3F00
0800
0800
7F80
0800
0800
0800
0000
ENDCHAR

STARTCHAR Cb4b4
ENCODING 46260
SWIDTH 1000 0
DWIDTH 10 0
BBX 10 10 0 -2
BITMAP
0000
2200
7500
2880
7700
5200
7F80
2200
7200
0000
ENDCHAR

STARTCHAR Cb4b5
ENCODING 46261
SWIDTH 1000 0
DWIDTH 10 0
BBX 10 10 0 -2
BITMAP
0000
0400
1F00
1500
3F80
2480
3F80
2900
4E80
0000
ENDCHAR

STARTCHAR Cb4b6
ENCODING 46262
SWIDTH 1000 0
DWIDTH 10 0
BBX 10 10 0 -2
BITMAP
0000
0200
3F80
2A80
3900
4280
1400
5100
5E80
0000
ENDCHAR

STARTCHAR Cb4b7
ENCODING 46263
SWIDTH 1000 0
DWIDTH 10 0
BBX 10 10 0 -2
BITMAP
0000
2F00
3980
2F00
6000
2F00
2900
2F00
3980
0000
ENDCHAR

STARTCHAR Cb4b8
ENCODING 46264
SWIDTH 1000 0
DWIDTH 10 0
BBX 10 10 0 -2
BITMAP
0000
2100
2F80
2900
6D00
3080
2500
2C80
3700
0000
ENDCHAR

STARTCHAR Cb4b9
ENCODING 46265
SWIDTH 1000 0
DWIDTH 10 0
BBX 10 10 0 -2
BITMAP
0000
2780
2880
7700
2D80
2880
7F80
2500
6880
0000
ENDCHAR

STARTCHAR Cb4ba
ENCODING 46266
SWIDTH 1000 0
DWIDTH 10 0
BBX 10 10 0 -2
BITMAP
0000
3A00
1380
7E80
2A80
3900
2900
7A80
0C80
0000
ENDCHAR

STARTCHAR Cb4bb
ENCODING 46267
SWIDTH 1000 0
DWIDTH 10 0
BBX 10 10 0 -2
BITMAP
0000
2900
2F80
7900
2900
6F00
3900
2900
2F00
0000
ENDCHAR

STARTCHAR Cb4bc
ENCODING 46268
SWIDTH 1000 0
DWIDTH 10 0
BBX 10 10 0 -2
BITMAP
0000
2F80
2000
7700
2500
6500
3700
2000
2F80
0000
ENDCHAR

STARTCHAR Cb4bd
ENCODING 46269
SWIDTH 1000 0
DWIDTH 10 0
BBX 10 10 0 -2
BITMAP
0000
2200
2F80
7880
2700
6500
3780
2480
2780
0000
ENDCHAR

STARTCHAR Cb4be
ENCODING 46270
SWIDTH 1000 0
DWIDTH 10 0
BBX 10 10 0 -2
BITMAP
0000
2200
7B80
2680
7200
0200
7500
2500
6880
0000
ENDCHAR

STARTCHAR Cb4bf
ENCODING 46271
SWIDTH 1000 0
DWIDTH 10 0
BBX 10 10 0 -2
BITMAP
0000
4200
7B80
2680
7A00
5200
7D00
5500
7880
0000
ENDCHAR

STARTCHAR Cb4c0
ENCODING 46272
SWIDTH 1000 0
DWIDTH 10 0
BBX 10 10 0 -2
BITMAP
0000
2000
1F80
4200
2200
1F80
2200
4200
4200
0000
ENDCHAR

STARTCHAR Cb4c1
ENCODING 46273
SWIDTH 1000 0
DWIDTH 10 0
BBX 10 10 0 -2
BITMAP
0000
4500
2F80
4500
2F80
0A80
2F80
4200
4D80
0000
ENDCHAR

STARTCHAR Cb4c2
ENCODING 46274
SWIDTH 1000 0
DWIDTH 10 0
BBX 10 10 0 -2
BITMAP
0000
5F80
3480
5F80
3280
1E80
3280
5E80
5180
0000
ENDCHAR

STARTCHAR Cb4c3
ENCODING 46275
SWIDTH 1000 0
DWIDTH 10 0
BBX 10 10 0 -2
BITMAP
0000
4800
2F80
4500
2F80
1A00
2F00
4A00
4F80
0000
ENDCHAR

STARTCHAR Cb4c4
ENCODING 46276
SWIDTH 1000 0
DWIDTH 10 0
BBX 10 10 0 -2
BITMAP
0000
0F80
7A80
2F80
7500
2700
3D80
6500
0E80
0000
ENDCHAR

STARTCHAR Cb4c5
ENCODING 46277
SWIDTH 1000 0
DWIDTH 10 0
BBX 10 10 0 -2
BITMAP
0000
2100
7F80
2100
2100
3F00
2100
2100
3F00
0000
ENDCHAR

STARTCHAR Cb4c6
ENCODING 46278
SWIDTH 1000 0
DWIDTH 10 0
BBX 10 10 0 -2
BITMAP
0000
7A00
5380
7C00
4B80
7800
2F00
2900
7F80
0000
ENDCHAR

STARTCHAR Cb4c7
ENCODING 46279
SWIDTH 1000 0
DWIDTH 10 0
BBX 10 10 0 -2
BITMAP
0000
0700
3C00
0800
7F80
1100
3F00
5100
1F00
0000
ENDCHAR

STARTCHAR Cb4c8
ENCODING 46280
SWIDTH 1000 0
DWIDTH 10 0
BBX 10 10 0 -2
BITMAP
0000
2200
3B80
5500
3E00
0800
7F80
0800
0800
0000
ENDCHAR

STARTCHAR Cb4c9
ENCODING 46281
SWIDTH 1000 0
DWIDTH 10 0
BBX 10 10 0 -2
BITMAP
0000
2400
3F80
4900
7F80
5280
1F00
1100
1F00
0000
ENDCHAR

STARTCHAR Cb4ca
ENCODING 46282
SWIDTH 1000 0
DWIDTH 10 0
BBX 10 10 0 -2
BITMAP
0000
4400
7F80
1100
7780
5480
7F80
5480
5D80
0000
ENDCHAR

STARTCHAR Cb4cb
ENCODING 46283
SWIDTH 1000 0
DWIDTH 10 0
BBX 10 10 0 -2
BITMAP
0000
2F80
5500
2F80
5200
7F80
2480
6B00
2480
0000
ENDCHAR

STARTCHAR Cb4cc
ENCODING 46284
SWIDTH 1000 0
DWIDTH 10 0
BBX 10 10 0 -2
BITMAP
0000
2000
3F00
4800
7F80
0800
4900
4900
7F00
0000
ENDCHAR

STARTCHAR Cb4cd
ENCODING 46285
SWIDTH 1000 0
DWIDTH 10 0
BBX 10 10 0 -2
BITMAP
0000
2200
7D00
2880
7000
5D80
7480
2D80
7480
0000
ENDCHAR

STARTCHAR Cb4ce
ENCODING 46286
SWIDTH 1000 0
DWIDTH 10 0
BBX 10 10 0 -2
BITMAP
0000
7700
5200
7200
5200
7F80
5200
5200
5200
0000
ENDCHAR

STARTCHAR Cb4cf
ENCODING 46287
SWIDTH 1000 0
DWIDTH 10 0
BBX 10 10 0 -2
BITMAP
0000
2D00
7980
4E00
6B80
4E00
7B80
4A80
4F80
0000
ENDCHAR

STARTCHAR Cb4d0
ENCODING 46288
SWIDTH 1000 0
DWIDTH 10 0
BBX 10 10 0 -2
BITMAP
0000
1200
7F80
1200
7F80
4080
3F00
1480
6780
0000
ENDCHAR

STARTCHAR Cb4d1
ENCODING 46289
SWIDTH 1000 0
DWIDTH 10 0
BBX 10 10 0 -2
BITMAP
0000
4780
7480
2780
7C80
5780
7500
5500
7980
0000
ENDCHAR

STARTCHAR Cb4d2
ENCODING 46290
SWIDTH 1000 0
DWIDTH 10 0
BBX 10 10 0 -2
BITMAP
0000
2F80
7200
0F80
7A80
0F80
7200
5700
7A80
0000
ENDCHAR

STARTCHAR Cb4d3
ENCODING 46291
SWIDTH 1000 0
DWIDTH 10 0
BBX 10 10 0 -2
BITMAP
0000
3F00
6980
3F00
0000
3F00
2100
3F00
6180
0000
ENDCHAR

STARTCHAR Cb4d4
ENCODING 46292
SWIDTH 1000 0
DWIDTH 10 0
BBX 10 10 0 -2
BITMAP
0000
4F80
2A80
1F80
0500
6700
2A80
2200
5F80
0000
ENDCHAR

STARTCHAR Cb4d5
ENCODING 46293
SWIDTH 1000 0
DWIDTH 10 0
BBX 10 10 0 -2
BITMAP
0000
2D00
5980
6E00
2B80
7C00
2780
3480
6F80
0000
ENDCHAR

STARTCHAR Cb4d6
ENCODING 46294
SWIDTH 1000 0
DWIDTH 10 0
BBX 10 10 0 -2
BITMAP
0000
7780
5480
5480
7F80
5280
5E80
5280
5E80
0000
ENDCHAR

STARTCHAR Cb4d7
ENCODING 46295
SWIDTH 1000 0
DWIDTH 10 0
BBX 10 10 0 -2
BITMAP
0000
7780
5480
5480
7F80
4880
5C80
6A80
4080
0000
ENDCHAR

STARTCHAR Cb4d8
ENCODING 46296
SWIDTH 1000 0
DWIDTH 10 0
BBX 10 10 0 -2
BITMAP
0000
7780
5480
7780
5C80
4880
5C80
4880
5680
0000
ENDCHAR

STARTCHAR Cb4d9
ENCODING 46297
SWIDTH 1000 0
DWIDTH 10 0
BBX 10 10 0 -2
BITMAP
0000
7380
5480
6900
5780
5480
7780
5480
5780
0000
ENDCHAR

STARTCHAR Cb4da
ENCODING 46298
SWIDTH 1000 0
DWIDTH 10 0
BBX 10 10 0 -2
BITMAP
0000
2400
7F00
2500
7F80
5500
7700
2100
7780
0000
ENDCHAR

STARTCHAR Cb4db
ENCODING 46299
SWIDTH 1000 0
DWIDTH 10 0
BBX 10 10 0 -2
BITMAP
0000
2200
5780
7C80
5700
7500
4780
5480
7780
0000
ENDCHAR

STARTCHAR Cb4dc
ENCODING 46300
SWIDTH 1000 0
DWIDTH 10 0
BBX 10 10 0 -2
BITMAP
0000
2200
5F80
2880
7700
2500
7780
5480
7780
0000
ENDCHAR

STARTCHAR Cb4dd
ENCODING 46301
SWIDTH 1000 0
DWIDTH 10 0
BBX 10 10 0 -2
BITMAP
0000
1000
1000
7E00
1200
5200
3200
2A80
4380
0000
ENDCHAR

STARTCHAR Cb4de
ENCODING 46302
SWIDTH 1000 0
DWIDTH 10 0
BBX 10 10 0 -2
BITMAP
0000
0C00
1200
6980
3E00
0400
3F00
2100
3F00
0000
ENDCHAR

STARTCHAR Cb4df
ENCODING 46303
SWIDTH 1000 0
DWIDTH 10 0
BBX 10 10 0 -2
BITMAP
0000
2480
3F80
0000
3F80
2400
3F80
2400
4400
0000
ENDCHAR

STARTCHAR Cb4e0
ENCODING 46304
SWIDTH 1000 0
DWIDTH 10 0
BBX 10 10 0 -2
BITMAP
0000
4900
7F00
2A00
7F80
5500
5500
7A00
5580
0000
ENDCHAR

STARTCHAR Cb4e1
ENCODING 46305
SWIDTH 1000 0
DWIDTH 10 0
BBX 10 10 0 -2
BITMAP
0000
7700
2000
2000
7F80
2500
2500
3500
6980
0000
ENDCHAR

STARTCHAR Cb4e2
ENCODING 46306
SWIDTH 1000 0
DWIDTH 10 0
BBX 10 10 0 -2
BITMAP
0000
0400
3F80
2500
6F80
2A80
6F80
3480
5F80
0000
ENDCHAR

STARTCHAR Cb4e3
ENCODING 46307
SWIDTH 1000 0
DWIDTH 10 0
BBX 10 10 0 -2
BITMAP
0000
7780
5480
7780
5480
7700
5580
7500
0E80
0000
ENDCHAR

STARTCHAR Cb4e4
ENCODING 46308
SWIDTH 1000 0
DWIDTH 10 0
BBX 10 10 0 -2
BITMAP
0000
2900
3F00
0000
7F80
1000
3F00
5100
1F00
0000
ENDCHAR

STARTCHAR Cb4e5
ENCODING 46309
SWIDTH 1000 0
DWIDTH 10 0
BBX 10 10 0 -2
BITMAP
0000
7B80
2800
7800
2F80
0500
7D00
4900
7980
0000
ENDCHAR

STARTCHAR Cb4e6
ENCODING 46310
SWIDTH 1000 0
DWIDTH 10 0
BBX 10 10 0 -2
BITMAP
0000
7F80
5500
7780
5500
5F80
4900
4F00
5980
0000
ENDCHAR

STARTCHAR Cb4e7
ENCODING 46311
SWIDTH 1000 0
DWIDTH 10 0
BBX 10 10 0 -2
BITMAP
0000
7F80
5500
5F80
7500
5780
5500
5500
5780
0000
ENDCHAR

STARTCHAR Cb4e8
ENCODING 46312
SWIDTH 1000 0
DWIDTH 10 0
BBX 10 10 0 -2
BITMAP
0000
7780
0200
0780
7C80
5780
5480
5F00
4480
0000
ENDCHAR

STARTCHAR Cb4e9
ENCODING 46313
SWIDTH 1000 0
DWIDTH 10 0
BBX 10 10 0 -2
BITMAP
0000
1780
7A00
2780
7C80
5780
6C80
5700
2480
0000
ENDCHAR

STARTCHAR Cb4ea
ENCODING 46314
SWIDTH 1000 0
DWIDTH 10 0
BBX 10 10 0 -2
BITMAP
0000
3F80
2100
3B80
2A80
3B80
5280
7B00
1280
0000
ENDCHAR

STARTCHAR Cb4eb
ENCODING 46315
SWIDTH 1000 0
DWIDTH 10 0
BBX 10 10 0 -2
BITMAP
0000
0800
1600
6180
0800
2E00
2800
2800
7F80
0000
ENDCHAR

STARTCHAR Cb4ec
ENCODING 46316
SWIDTH 1000 0
DWIDTH 10 0
BBX 10 10 0 -2
BITMAP
0000
1200
1F80
2200
2F80
6880
2500
2200
2D80
0000
ENDCHAR

STARTCHAR Cb4ed
ENCODING 46317
SWIDTH 1000 0
DWIDTH 10 0
BBX 10 10 0 -2
BITMAP
0000
1F00
2200
7F80
2000
2F00
2900
2880
4F80
0000
ENDCHAR

STARTCHAR Cb4ee
ENCODING 46318
SWIDTH 1000 0
DWIDTH 10 0
BBX 10 10 0 -2
BITMAP
0000
0800
7F80
0800
3F00
1200
7F80
2100
3F00
0000
ENDCHAR

STARTCHAR Cb4ef
ENCODING 46319
SWIDTH 1000 0
DWIDTH 10 0
BBX 10 10 0 -2
BITMAP
0000
3F00
2900
7F80
1200
3F00
6980
2900
3F00
0000
ENDCHAR

STARTCHAR Cb4f0
ENCODING 46320
SWIDTH 1000 0
DWIDTH 10 0
BBX 10 10 0 -2
BITMAP
0000
1200
3F00
1200
1E00
1200
7F80
2900
5E80
0000
ENDCHAR

STARTCHAR Cb4f1
ENCODING 46321
SWIDTH 1000 0
DWIDTH 10 0
BBX 10 10 0 -2
BITMAP
0000
0800
3F00
1400
2200
7F80
2500
3D00
0300
0000
ENDCHAR

STARTCHAR Cb4f2
ENCODING 46322
SWIDTH 1000 0
DWIDTH 10 0
BBX 10 10 0 -2
BITMAP
0000
2200
2F80
7200
5F80
5500
3F80
2500
5700
0000
ENDCHAR

STARTCHAR Cb4f3
ENCODING 46323
SWIDTH 1000 0
DWIDTH 10 0
BBX 10 10 0 -2
BITMAP
0000
0800
7F80
4880
3F00
1400
7F80
2900
3B00
0000
ENDCHAR

STARTCHAR Cb4f4
ENCODING 46324
SWIDTH 1000 0
DWIDTH 10 0
BBX 10 10 0 -2
BITMAP
0000
1200
1F80
5200
5F80
5480
5500
7200
0D80
0000
ENDCHAR

STARTCHAR Cb4f5
ENCODING 46325
SWIDTH 1000 0
DWIDTH 10 0
BBX 10 10 0 -2
BITMAP
0000
1200
0C00
1200
7F80
1400
3F00
5500
1500
0000
ENDCHAR

STARTCHAR Cb4f6
ENCODING 46326
SWIDTH 1000 0
DWIDTH 10 0
BBX 10 10 0 -2
BITMAP
0000
2900
4A00
2900
4A80
7F80
2500
2200
5580
0000
ENDCHAR

STARTCHAR Cb4f7
ENCODING 46327
SWIDTH 1000 0
DWIDTH 10 0
BBX 10 10 0 -2
BITMAP
0000
3F00
0100
3F00
2080
3F80
1500
5080
5E80
0000
ENDCHAR

STARTCHAR Cb4f8
ENCODING 46328
SWIDTH 1000 0
DWIDTH 10 0
BBX 10 10 0 -2
BITMAP
0000
2F80
2A80
7700
2500
3700
6200
2F80
6200
0000
ENDCHAR

STARTCHAR Cb4f9
ENCODING 46329
SWIDTH 1000 0
DWIDTH 10 0
BBX 10 10 0 -2
BITMAP
0000
2000
2700
7500
2500
6500
3500
2500
2980
0000
ENDCHAR

STARTCHAR Cb4fa
ENCODING 46330
SWIDTH 1000 0
DWIDTH 10 0
BBX 10 10 0 -2
BITMAP
0000
2400
2780
7D00
2700
3500
5F80
5500
5880
0000
ENDCHAR

STARTCHAR Cb4fb
ENCODING 46331
SWIDTH 1000 0
DWIDTH 10 0
BBX 10 10 0 -2
BITMAP
0000
7780
5500
7500
5780
7200
4300
5500
6980
0000
ENDCHAR

STARTCHAR Cb4fc
ENCODING 46332
SWIDTH 1000 0
DWIDTH 10 0
BBX 10 10 0 -2
BITMAP
0000
2B80
7E80
2B80
3A80
2B80
7E80
2A80
4580
0000
ENDCHAR

STARTCHAR Cb4fd
ENCODING 46333
SWIDTH 1000 0
DWIDTH 10 0
BBX 10 10 0 -2
BITMAP
0000
2500
2F80
7500
2700
6500
3F80
2500
2880
0000
ENDCHAR

STARTCHAR Cb4fe
ENCODING 46334
SWIDTH 1000 0
DWIDTH 10 0
BBX 10 10 0 -2
BITMAP
0000
0800
7F80
1200
3F00
2A00
7F00
2A00
4980
0000
ENDCHAR

STARTCHAR Cb5a1
ENCODING 46497
SWIDTH 1000 0
DWIDTH 10 0
BBX 10 10 0 -2
BITMAP
0000
2480
2900
7480
2900
6F80
3A80
2900
3680
0000
ENDCHAR

STARTCHAR Cb5a2
ENCODING 46498
SWIDTH 1000 0
DWIDTH 10 0
BBX 10 10 0 -2
BITMAP
0000
1700
5100
5700
5100
1F80
2A80
2B80
4200
0000
ENDCHAR

STARTCHAR Cb5a3
ENCODING 46499
SWIDTH 1000 0
DWIDTH 10 0
BBX 10 10 0 -2
BITMAP
0000
1000
7F80
2A80
7C00
2380
5280
2900
5A80
0000
ENDCHAR

STARTCHAR Cb5a4
ENCODING 46500
SWIDTH 1000 0
DWIDTH 10 0
BBX 10 10 0 -2
BITMAP
0000
2000
3F00
4000
3E00
0200
2A00
1280
6980
0000
ENDCHAR

STARTCHAR Cb5a5
ENCODING 46501
SWIDTH 1000 0
DWIDTH 10 0
BBX 10 10 0 -2
BITMAP
0000
4800
0F00
5000
2E00
0000
2E00
4280
4380
0000
ENDCHAR

STARTCHAR Cb5a6
ENCODING 46502
SWIDTH 1000 0
DWIDTH 10 0
BBX 10 10 0 -2
BITMAP
0000
2900
4A00
2900
7F80
0880
7500
5200
7D80
0000
ENDCHAR

STARTCHAR Cb5a7
ENCODING 46503
SWIDTH 1000 0
DWIDTH 10 0
BBX 10 10 0 -2
BITMAP
0000
2100
2600
7400
1780
2500
7500
2500
2900
0000
ENDCHAR

STARTCHAR Cb5a8
ENCODING 46504
SWIDTH 1000 0
DWIDTH 10 0
BBX 10 10 0 -2
BITMAP
0000
3F00
0800
7F80
2A00
5D00
0480
3F00
0800
0000
ENDCHAR

STARTCHAR Cb5a9
ENCODING 46505
SWIDTH 1000 0
DWIDTH 10 0
BBX 10 10 0 -2
BITMAP
0000
1500
6200
2500
7F80
2400
6F80
3A80
2A80
0000
ENDCHAR

STARTCHAR Cb5aa
ENCODING 46506
SWIDTH 1000 0
DWIDTH 10 0
BBX 10 10 0 -2
BITMAP
0000
2000
5780
2080
5080
7780
2400
7480
2780
0000
ENDCHAR

STARTCHAR Cb5ab
ENCODING 46507
SWIDTH 1000 0
DWIDTH 10 0
BBX 10 10 0 -2
BITMAP
0000
2900
5D80
0A80
3680
6900
3D00
2A80
2A80
0000
ENDCHAR

STARTCHAR Cb5ac
ENCODING 46508
SWIDTH 1000 0
DWIDTH 10 0
BBX 10 10 0 -2
BITMAP
0000
2780
7480
2780
7480
2780
2500
5500
4980
0000
ENDCHAR

STARTCHAR Cb5ad
ENCODING 46509
SWIDTH 1000 0
DWIDTH 10 0
BBX 10 10 0 -2
BITMAP
0000
2000
7780
0080
7080
0780
7400
5480
7780
0000
ENDCHAR

STARTCHAR Cb5ae
ENCODING 46510
SWIDTH 1000 0
DWIDTH 10 0
BBX 10 10 0 -2
BITMAP
0000
0800
3F00
2900
7F80
2100
2100
3F00
6180
0000
ENDCHAR

STARTCHAR Cb5af
ENCODING 46511
SWIDTH 1000 0
DWIDTH 10 0
BBX 10 10 0 -2
BITMAP
0000
1000
3B80
1080
7B80
1200
5B80
7000
5F80
0000
ENDCHAR

STARTCHAR Cb5b0
ENCODING 46512
SWIDTH 1000 0
DWIDTH 10 0
BBX 10 10 0 -2
BITMAP
0000
2400
7400
2F00
7500
5500
7500
2900
7980
0000
ENDCHAR

STARTCHAR Cb5b1
ENCODING 46513
SWIDTH 1000 0
DWIDTH 10 0
BBX 10 10 0 -2
BITMAP
0000
2F80
7A80
2700
7D00
5700
5200
5F80
4200
0000
ENDCHAR

STARTCHAR Cb5b2
ENCODING 46514
SWIDTH 1000 0
DWIDTH 10 0
BBX 10 10 0 -2
BITMAP
0000
2000
5700
7D00
5500
7500
4500
5500
7980
0000
ENDCHAR

STARTCHAR Cb5b3
ENCODING 46515
SWIDTH 1000 0
DWIDTH 10 0
BBX 10 10 0 -2
BITMAP
0000
7200
4F80
7500
4880
7F80
1500
5D00
5300
0000
ENDCHAR

STARTCHAR Cb5b4
ENCODING 46516
SWIDTH 1000 0
DWIDTH 10 0
BBX 10 10 0 -2
BITMAP
0000
1000
3F00
2900
3F00
2900
3F00
1480
6780
0000
ENDCHAR

STARTCHAR Cb5b5
ENCODING 46517
SWIDTH 1000 0
DWIDTH 10 0
BBX 10 10 0 -2
BITMAP
0000
1800
2E00
7A00
2F00
7900
4F00
7880
0F80
0000
ENDCHAR

STARTCHAR Cb5b6
ENCODING 46518
SWIDTH 1000 0
DWIDTH 10 0
BBX 10 10 0 -2
BITMAP
0000
1500
1200
2780
2500
6F80
3080
2A80
2980
0000
ENDCHAR

STARTCHAR Cb5b7
ENCODING 46519
SWIDTH 1000 0
DWIDTH 10 0
BBX 10 10 0 -2
BITMAP
0000
1500
1F80
2200
3F80
6500
3F80
2500
2E80
0000
ENDCHAR

STARTCHAR Cb5b8
ENCODING 46520
SWIDTH 1000 0
DWIDTH 10 0
BBX 10 10 0 -2
BITMAP
0000
2200
2F80
7200
5F80
5480
3500
2200
5580
0000
ENDCHAR

STARTCHAR Cb5b9
ENCODING 46521
SWIDTH 1000 0
DWIDTH 10 0
BBX 10 10 0 -2
BITMAP
0000
0800
7F80
4080
3F00
2100
3F00
2100
7F80
0000
ENDCHAR

STARTCHAR Cb5ba
ENCODING 46522
SWIDTH 1000 0
DWIDTH 10 0
BBX 10 10 0 -2
BITMAP
0000
1200
7A80
5780
5A00
4280
2900
2900
7E80
0000
ENDCHAR

STARTCHAR Cb5bb
ENCODING 46523
SWIDTH 1000 0
DWIDTH 10 0
BBX 10 10 0 -2
BITMAP
0000
2200
2F80
7200
2F80
3880
6500
2200
6D80
0000
ENDCHAR

STARTCHAR Cb5bc
ENCODING 46524
SWIDTH 1000 0
DWIDTH 10 0
BBX 10 10 0 -2
BITMAP
0000
2D80
2880
7D00
2B80
6D00
2980
2D00
7280
0000
ENDCHAR

STARTCHAR Cb5bd
ENCODING 46525
SWIDTH 1000 0
DWIDTH 10 0
BBX 10 10 0 -2
BITMAP
0000
2A00
7F80
2A80
3A00
2A00
7D00
2500
4880
0000
ENDCHAR

STARTCHAR Cb5be
ENCODING 46526
SWIDTH 1000 0
DWIDTH 10 0
BBX 10 10 0 -2
BITMAP
0000
1500
5F80
7200
5F80
1500
3F80
5500
1680
0000
ENDCHAR

STARTCHAR Cb5bf
ENCODING 46527
SWIDTH 1000 0
DWIDTH 10 0
BBX 10 10 0 -2
BITMAP
0000
4780
7280
4900
7F80
2200
7B00
2A00
5780
0000
ENDCHAR

STARTCHAR Cb5c0
ENCODING 46528
SWIDTH 1000 0
DWIDTH 10 0
BBX 10 10 0 -2
BITMAP
0000
2180
7700
1500
2780
7500
2500
2680
2C80
0000
ENDCHAR

STARTCHAR Cb5c1
ENCODING 46529
SWIDTH 1000 0
DWIDTH 10 0
BBX 10 10 0 -2
BITMAP
0000
1200
3F00
0800
7F80
1500
7F80
1200
3580
0000
ENDCHAR

STARTCHAR Cb5c2
ENCODING 46530
SWIDTH 1000 0
DWIDTH 10 0
BBX 10 10 0 -2
BITMAP
0000
2500
2F80
7200
5F80
7500
2F80
3500
6E80
0000
ENDCHAR

STARTCHAR Cb5c3
ENCODING 46531
SWIDTH 1000 0
DWIDTH 10 0
BBX 10 10 0 -2
BITMAP
0000
2200
7F80
0880
7700
0500
7700
5500
7F80
0000
ENDCHAR

STARTCHAR Cb5c4
ENCODING 46532
SWIDTH 1000 0
DWIDTH 10 0
BBX 10 10 0 -2
BITMAP
0000
2500
7F80
0200
6F80
0500
7F80
5500
7680
0000
ENDCHAR

STARTCHAR Cb5c5
ENCODING 46533
SWIDTH 1000 0
DWIDTH 10 0
BBX 10 10 0 -2
BITMAP
0000
2800
2F80
7480
2D80
6680
2D80
3480
6580
0000
ENDCHAR

STARTCHAR Cb5c6
ENCODING 46534
SWIDTH 1000 0
DWIDTH 10 0
BBX 10 10 0 -2
BITMAP
0000
7F80
1200
3F80
4880
2A80
1C80
2A80
0980
0000
ENDCHAR

STARTCHAR Cb5c7
ENCODING 46535
SWIDTH 1000 0
DWIDTH 10 0
BBX 10 10 0 -2
BITMAP
0000
5400
7780
5880
7580
2E80
7480
2E80
3580
0000
ENDCHAR

STARTCHAR Cb5c8
ENCODING 46536
SWIDTH 1000 0
DWIDTH 10 0
BBX 10 10 0 -2
BITMAP
0000
0800
7F80
0800
3F00
0000
3F00
2100
3F00
0000
ENDCHAR

STARTCHAR Cb5c9
ENCODING 46537
SWIDTH 1000 0
DWIDTH 10 0
BBX 10 10 0 -2
BITMAP
0000
0400
7780
5800
5700
5200
7400
0880
0F80
0000
ENDCHAR

STARTCHAR Cb5ca
ENCODING 46538
SWIDTH 1000 0
DWIDTH 10 0
BBX 10 10 0 -2
BITMAP
0000
1780
7A80
5280
5D80
5200
7F80
0500
1880
0000
ENDCHAR

STARTCHAR Cb5cb
ENCODING 46539
SWIDTH 1000 0
DWIDTH 10 0
BBX 10 10 0 -2
BITMAP
0000
2200
2F80
7200
2780
6000
3780
2480
2780
0000
ENDCHAR

STARTCHAR Cb5cc
ENCODING 46540
SWIDTH 1000 0
DWIDTH 10 0
BBX 10 10 0 -2
BITMAP
0000
2780
2280
7100
2F80
2500
6F80
2A80
2D80
0000
ENDCHAR

STARTCHAR Cb5cd
ENCODING 46541
SWIDTH 1000 0
DWIDTH 10 0
BBX 10 10 0 -2
BITMAP
0000
2200
7F80
0200
7780
0000
7780
5480
7780
0000
ENDCHAR

STARTCHAR Cb5ce
ENCODING 46542
SWIDTH 1000 0
DWIDTH 10 0
BBX 10 10 0 -2
BITMAP
0000
0200
7A00
2380
4200
7780
5480
5480
7780
0000
ENDCHAR

STARTCHAR Cb5cf
ENCODING 46543
SWIDTH 1000 0
DWIDTH 10 0
BBX 10 10 0 -2
BITMAP
0000
2400
2780
7A00
2200
6F80
3200
2200
2200
0000
ENDCHAR

STARTCHAR Cb5d0
ENCODING 46544
SWIDTH 1000 0
DWIDTH 10 0
BBX 10 10 0 -2
BITMAP
0000
3E00
0800
7F80
2A00
4900
6A80
1C00
6B00
0000
ENDCHAR

STARTCHAR Cb5d1
ENCODING 46545
SWIDTH 1000 0
DWIDTH 10 0
BBX 10 10 0 -2
BITMAP
0000
1000
3B80
1280
7E80
1280
2B80
7A00
0200
0000
ENDCHAR

STARTCHAR Cb5d2
ENCODING 46546
SWIDTH 1000 0
DWIDTH 10 0
BBX 10 10 0 -2
BITMAP
0000
0800
7F80
4880
1E00
3200
0C00
7380
1E00
0000
ENDCHAR

STARTCHAR Cb5d3
ENCODING 46547
SWIDTH 1000 0
DWIDTH 10 0
BBX 10 10 0 -2
BITMAP
0000
1000
7B80
5280
7E80
5280
7380
5E00
5200
0000
ENDCHAR

STARTCHAR Cb5d4
ENCODING 46548
SWIDTH 1000 0
DWIDTH 10 0
BBX 10 10 0 -2
BITMAP
0000
0400
3F80
2880
3F00
2800
2F80
4800
4F80
0000
ENDCHAR

STARTCHAR Cb5d5
ENCODING 46549
SWIDTH 1000 0
DWIDTH 10 0
BBX 10 10 0 -2
BITMAP
0000
4500
2F80
0200
0A80
6F80
2200
2400
5F80
0000
ENDCHAR

STARTCHAR Cb5d6
ENCODING 46550
SWIDTH 1000 0
DWIDTH 10 0
BBX 10 10 0 -2
BITMAP
0000
0600
3800
2000
3F00
2200
2200
2200
7F80
0000
ENDCHAR

STARTCHAR Cb5d7
ENCODING 46551
SWIDTH 1000 0
DWIDTH 10 0
BBX 10 10 0 -2
BITMAP
0000
1000
1E00
1200
2200
4400
0C00
1200
6180
0000
ENDCHAR

STARTCHAR Cb5d8
ENCODING 46552
SWIDTH 1000 0
DWIDTH 10 0
BBX 10 10 0 -2
BITMAP
0000
1400
1400
2F00
2500
6500
2500
2900
2980
0000
ENDCHAR

STARTCHAR Cb5d9
ENCODING 46553
SWIDTH 1000 0
DWIDTH 10 0
BBX 10 10 0 -2
BITMAP
0000
1200
1200
2F80
2200
6700
2A80
2A80
2200
0000
ENDCHAR

STARTCHAR Cb5da
ENCODING 46554
SWIDTH 1000 0
DWIDTH 10 0
BBX 10 10 0 -2
BITMAP
0000
3E00
1200
1700
1100
2900
2A00
4400
5B80
0000
ENDCHAR

STARTCHAR Cb5db
ENCODING 46555
SWIDTH 1000 0
DWIDTH 10 0
BBX 10 10 0 -2
BITMAP
0000
0F00
7500
5580
5480
7A80
0900
1300
0480
0000
ENDCHAR

STARTCHAR Cb5dc
ENCODING 46556
SWIDTH 1000 0
DWIDTH 10 0
BBX 10 10 0 -2
BITMAP
0000
0800
7F80
5280
1E00
0800
3F00
2100
3F00
0000
ENDCHAR

STARTCHAR Cb5dd
ENCODING 46557
SWIDTH 1000 0
DWIDTH 10 0
BBX 10 10 0 -2
BITMAP
0000
7E00
0200
3E00
2000
7F00
4100
0100
0E00
0000
ENDCHAR

STARTCHAR Cb5de
ENCODING 46558
SWIDTH 1000 0
DWIDTH 10 0
BBX 10 10 0 -2
BITMAP
0000
1E00
2400
7F00
0100
3F00
0400
5100
5E80
0000
ENDCHAR

STARTCHAR Cb5df
ENCODING 46559
SWIDTH 1000 0
DWIDTH 10 0
BBX 10 10 0 -2
BITMAP
0000
1200
7F80
1280
5680
3900
5500
1280
1480
0000
ENDCHAR

STARTCHAR Cb5e0
ENCODING 46560
SWIDTH 1000 0
DWIDTH 10 0
BBX 10 10 0 -2
BITMAP
0000
2F80
2400
7400
2780
2880
6880
2080
2300
0000
ENDCHAR

STARTCHAR Cb5e1
ENCODING 46561
SWIDTH 1000 0
DWIDTH 10 0
BBX 10 10 0 -2
BITMAP
0000
0A00
0900
7F80
0800
2D00
1A00
6980
0800
0000
ENDCHAR

STARTCHAR Cb5e2
ENCODING 46562
SWIDTH 1000 0
DWIDTH 10 0
BBX 10 10 0 -2
BITMAP
0000
4F00
2500
4580
2480
0A80
2900
5300
4480
0000
ENDCHAR

STARTCHAR Cb5e3
ENCODING 46563
SWIDTH 1000 0
DWIDTH 10 0
BBX 10 10 0 -2
BITMAP
0000
2200
1200
4F80
2100
0500
2500
4500
4F80
0000
ENDCHAR

STARTCHAR Cb5e4
ENCODING 46564
SWIDTH 1000 0
DWIDTH 10 0
BBX 10 10 0 -2
BITMAP
0000
1F00
6200
0400
1A00
6980
2A00
1600
6180
0000
ENDCHAR

STARTCHAR Cb5e5
ENCODING 46565
SWIDTH 1000 0
DWIDTH 10 0
BBX 10 10 0 -2
BITMAP
0000
0280
7200
2F80
7280
2B00
3680
6A80
0200
0000
ENDCHAR

STARTCHAR Cb5e6
ENCODING 46566
SWIDTH 1000 0
DWIDTH 10 0
BBX 10 10 0 -2
BITMAP
0000
0800
7F80
5480
2700
0800
3E00
1280
6380
0000
ENDCHAR

STARTCHAR Cb5e7
ENCODING 46567
SWIDTH 1000 0
DWIDTH 10 0
BBX 10 10 0 -2
BITMAP
0000
0800
7F80
5480
3F80
2A00
7B80
2880
5B00
0000
ENDCHAR

STARTCHAR Cb5e8
ENCODING 46568
SWIDTH 1000 0
DWIDTH 10 0
BBX 10 10 0 -2
BITMAP
0000
2200
3B80
5500
3E00
1380
1900
2600
5980
0000
ENDCHAR

STARTCHAR Cb5e9
ENCODING 46569
SWIDTH 1000 0
DWIDTH 10 0
BBX 10 10 0 -2
BITMAP
0000
2F00
5500
2580
5480
7A80
2900
7300
2480
0000
ENDCHAR

STARTCHAR Cb5ea
ENCODING 46570
SWIDTH 1000 0
DWIDTH 10 0
BBX 10 10 0 -2
BITMAP
0000
2100
5500
2500
5500
7500
2F80
7100
2100
0000
ENDCHAR

STARTCHAR Cb5eb
ENCODING 46571
SWIDTH 1000 0
DWIDTH 10 0
BBX 10 10 0 -2
BITMAP
0000
2200
5500
2880
5700
7000
2700
7500
2700
0000
ENDCHAR

STARTCHAR Cb5ec
ENCODING 46572
SWIDTH 1000 0
DWIDTH 10 0
BBX 10 10 0 -2
BITMAP
0000
5F00
5100
5100
5F00
5100
5100
5F00
5100
0000
ENDCHAR

STARTCHAR Cb5ed
ENCODING 46573
SWIDTH 1000 0
DWIDTH 10 0
BBX 10 10 0 -2
BITMAP
0000
2800
3F00
4800
0800
7F80
0800
0800
0800
0000
ENDCHAR

STARTCHAR Cb5ee
ENCODING 46574
SWIDTH 1000 0
DWIDTH 10 0
BBX 10 10 0 -2
BITMAP
0000
0800
3F00
0800
0800
7F80
0A00
1100
7E80
0000
ENDCHAR

STARTCHAR Cb5ef
ENCODING 46575
SWIDTH 1000 0
DWIDTH 10 0
BBX 10 10 0 -2
BITMAP
0000
3F00
2100
3F00
2400
3F80
2900
4900
4F00
0000
ENDCHAR

STARTCHAR Cb5f0
ENCODING 46576
SWIDTH 1000 0
DWIDTH 10 0
BBX 10 10 0 -2
BITMAP
0000
3F80
2000
3F00
2100
3F00
2000
2000
3F80
0000
ENDCHAR

STARTCHAR Cb5f1
ENCODING 46577
SWIDTH 1000 0
DWIDTH 10 0
BBX 10 10 0 -2
BITMAP
0000
2780
2400
7780
2480
3780
6400
2400
6780
0000
ENDCHAR

STARTCHAR Cb5f2
ENCODING 46578
SWIDTH 1000 0
DWIDTH 10 0
BBX 10 10 0 -2
BITMAP
0000
2000
2B80
7E80
2A80
3280
6C80
2400
6B80
0000
ENDCHAR

STARTCHAR Cb5f3
ENCODING 46579
SWIDTH 1000 0
DWIDTH 10 0
BBX 10 10 0 -2
BITMAP
0000
2900
7F80
1200
3F00
4480
3F00
0400
0C00
0000
ENDCHAR

STARTCHAR Cb5f4
ENCODING 46580
SWIDTH 1000 0
DWIDTH 10 0
BBX 10 10 0 -2
BITMAP
0000
4F80
2800
4F00
2900
7F80
2A00
2900
4880
0000
ENDCHAR

STARTCHAR Cb5f5
ENCODING 46581
SWIDTH 1000 0
DWIDTH 10 0
BBX 10 10 0 -2
BITMAP
0000
0E00
0800
3F80
2800
2F00
3A80
4A00
5F80
0000
ENDCHAR

STARTCHAR Cb5f6
ENCODING 46582
SWIDTH 1000 0
DWIDTH 10 0
BBX 10 10 0 -2
BITMAP
0000
2400
7F80
0A00
7200
0F80
7200
5200
7200
0000
ENDCHAR

STARTCHAR Cb5f7
ENCODING 46583
SWIDTH 1000 0
DWIDTH 10 0
BBX 10 10 0 -2
BITMAP
0000
7780
5400
7780
2480
3780
2400
3400
6780
0000
ENDCHAR

STARTCHAR Cb5f8
ENCODING 46584
SWIDTH 1000 0
DWIDTH 10 0
BBX 10 10 0 -2
BITMAP
0000
2780
5480
7780
2500
7780
2A80
3A80
6B80
0000
ENDCHAR

STARTCHAR Cb5f9
ENCODING 46585
SWIDTH 1000 0
DWIDTH 10 0
BBX 10 10 0 -2
BITMAP
0000
4700
2A00
5F80
2A80
0F80
2A80
4F00
5480
0000
ENDCHAR

STARTCHAR Cb5fa
ENCODING 46586
SWIDTH 1000 0
DWIDTH 10 0
BBX 10 10 0 -2
BITMAP
0000
3380
5E80
2A80
6F80
2A00
7F80
2900
4880
0000
ENDCHAR

STARTCHAR Cb5fb
ENCODING 46587
SWIDTH 1000 0
DWIDTH 10 0
BBX 10 10 0 -2
BITMAP
0000
1E00
1400
3F00
6900
3F00
2900
3F00
4A80
0000
ENDCHAR

STARTCHAR Cb5fc
ENCODING 46588
SWIDTH 1000 0
DWIDTH 10 0
BBX 10 10 0 -2
BITMAP
0000
0800
7F80
2100
3F00
0200
0400
0400
1C00
0000
ENDCHAR

STARTCHAR Cb5fd
ENCODING 46589
SWIDTH 1000 0
DWIDTH 10 0
BBX 10 10 0 -2
BITMAP
0000
0800
7F80
2100
3F00
0200
7F80
0400
1C00
0000
ENDCHAR

STARTCHAR Cb5fe
ENCODING 46590
SWIDTH 1000 0
DWIDTH 10 0
BBX 10 10 0 -2
BITMAP
0000
0800
7F80
0000
3F00
2100
3F00
2A00
4900
0000
ENDCHAR

STARTCHAR Cb6a1
ENCODING 46753
SWIDTH 1000 0
DWIDTH 10 0
BBX 10 10 0 -2
BITMAP
0000
1500
1500
3F80
2500
6500
2F80
2500
2880
0000
ENDCHAR

STARTCHAR Cb6a2
ENCODING 46754
SWIDTH 1000 0
DWIDTH 10 0
BBX 10 10 0 -2
BITMAP
0000
1200
1F80
2200
2A80
7F80
2200
2500
2880
0000
ENDCHAR

STARTCHAR Cb6a3
ENCODING 46755
SWIDTH 1000 0
DWIDTH 10 0
BBX 10 10 0 -2
BITMAP
0000
1700
1200
2F80
2500
6F80
2A80
2E80
2980
0000
ENDCHAR

STARTCHAR Cb6a4
ENCODING 46756
SWIDTH 1000 0
DWIDTH 10 0
BBX 10 10 0 -2
BITMAP
0000
0400
5500
4900
5500
7F00
1400
1480
6780
0000
ENDCHAR

STARTCHAR Cb6a5
ENCODING 46757
SWIDTH 1000 0
DWIDTH 10 0
BBX 10 10 0 -2
BITMAP
0000
2200
7F80
5500
7F80
5500
7700
5500
5980
0000
ENDCHAR

STARTCHAR Cb6a6
ENCODING 46758
SWIDTH 1000 0
DWIDTH 10 0
BBX 10 10 0 -2
BITMAP
0000
1200
3F00
1200
1200
7F80
0000
1300
6080
0000
ENDCHAR

STARTCHAR Cb6a7
ENCODING 46759
SWIDTH 1000 0
DWIDTH 10 0
BBX 10 10 0 -2
BITMAP
0000
0200
6280
5480
4880
5480
6280
4080
7F80
0000
ENDCHAR

STARTCHAR Cb6a8
ENCODING 46760
SWIDTH 1000 0
DWIDTH 10 0
BBX 10 10 0 -2
BITMAP
0000
2400
2F00
7500
2B00
2A00
3F80
2A80
3580
0000
ENDCHAR

STARTCHAR Cb6a9
ENCODING 46761
SWIDTH 1000 0
DWIDTH 10 0
BBX 10 10 0 -2
BITMAP
0000
7F80
4000
5F00
4400
5F00
4400
4400
7F80
0000
ENDCHAR

STARTCHAR Cb6aa
ENCODING 46762
SWIDTH 1000 0
DWIDTH 10 0
BBX 10 10 0 -2
BITMAP
0000
2000
5F80
5280
5E80
5280
7780
1A00
6200
0000
ENDCHAR

STARTCHAR Cb6ab
ENCODING 46763
SWIDTH 1000 0
DWIDTH 10 0
BBX 10 10 0 -2
BITMAP
0000
0100
7500
5500
5500
5500
5F80
7100
0100
0000
ENDCHAR

STARTCHAR Cb6ac
ENCODING 46764
SWIDTH 1000 0
DWIDTH 10 0
BBX 10 10 0 -2
BITMAP
0000
3F00
0800
7F80
1200
3F00
6580
3D00
2100
0000
ENDCHAR

STARTCHAR Cb6ad
ENCODING 46765
SWIDTH 1000 0
DWIDTH 10 0
BBX 10 10 0 -2
BITMAP
0000
2200
2F80
7500
2F80
2500
3700
6500
1980
0000
ENDCHAR

STARTCHAR Cb6ae
ENCODING 46766
SWIDTH 1000 0
DWIDTH 10 0
BBX 10 10 0 -2
BITMAP
0000
1400
1F00
5400
5500
5F80
7400
0A00
3180
0000
ENDCHAR

STARTCHAR Cb6af
ENCODING 46767
SWIDTH 1000 0
DWIDTH 10 0
BBX 10 10 0 -2
BITMAP
0000
7200
1480
7F80
4A80
7F80
1200
1280
6F80
0000
ENDCHAR

STARTCHAR Cb6b0
ENCODING 46768
SWIDTH 1000 0
DWIDTH 10 0
BBX 10 10 0 -2
BITMAP
0000
7F80
1000
7700
4500
7F80
1500
1500
6F80
0000
ENDCHAR

STARTCHAR Cb6b1
ENCODING 46769
SWIDTH 1000 0
DWIDTH 10 0
BBX 10 10 0 -2
BITMAP
0000
2200
2F00
3200
6F80
2400
2500
2880
2F80
0000
ENDCHAR

STARTCHAR Cb6b2
ENCODING 46770
SWIDTH 1000 0
DWIDTH 10 0
BBX 10 10 0 -2
BITMAP
0000
7700
2500
2700
3980
6000
1500
5080
5E80
0000
ENDCHAR

STARTCHAR Cb6b3
ENCODING 46771
SWIDTH 1000 0
DWIDTH 10 0
BBX 10 10 0 -2
BITMAP
0000
1200
3F00
1200
7F00
2880
4900
2C80
2A00
0000
ENDCHAR

STARTCHAR Cb6b4
ENCODING 46772
SWIDTH 1000 0
DWIDTH 10 0
BBX 10 10 0 -2
BITMAP
0000
2400
2F00
7400
2500
3F80
6400
2A00
7180
0000
ENDCHAR

STARTCHAR Cb6b5
ENCODING 46773
SWIDTH 1000 0
DWIDTH 10 0
BBX 10 10 0 -2
BITMAP
0000
2400
7780
2D00
7500
1200
2200
7500
2880
0000
ENDCHAR

STARTCHAR Cb6b6
ENCODING 46774
SWIDTH 1000 0
DWIDTH 10 0
BBX 10 10 0 -2
BITMAP
0000
2700
2200
7F80
2500
6F80
3A80
2E80
2980
0000
ENDCHAR

STARTCHAR Cb6b7
ENCODING 46775
SWIDTH 1000 0
DWIDTH 10 0
BBX 10 10 0 -2
BITMAP
0000
4F00
2900
4900
2F00
0A00
2A00
4A80
5380
0000
ENDCHAR

STARTCHAR Cb6b8
ENCODING 46776
SWIDTH 1000 0
DWIDTH 10 0
BBX 10 10 0 -2
BITMAP
0000
5F80
2200
5200
1700
3200
5200
1200
6F80
0000
ENDCHAR

STARTCHAR Cb6b9
ENCODING 46777
SWIDTH 1000 0
DWIDTH 10 0
BBX 10 10 0 -2
BITMAP
0000
5200
2F80
5200
1280
3F80
5200
1500
6880
0000
ENDCHAR

STARTCHAR Cb6ba
ENCODING 46778
SWIDTH 1000 0
DWIDTH 10 0
BBX 10 10 0 -2
BITMAP
0000
4780
7200
2F80
7500
2F80
2A80
5E80
4980
0000
ENDCHAR

STARTCHAR Cb6bb
ENCODING 46779
SWIDTH 1000 0
DWIDTH 10 0
BBX 10 10 0 -2
BITMAP
0000
7400
5780
7A80
5480
7A80
5080
5C80
5180
0000
ENDCHAR

STARTCHAR Cb6bc
ENCODING 46780
SWIDTH 1000 0
DWIDTH 10 0
BBX 10 10 0 -2
BITMAP
0000
0800
7F80
2480
4980
3F00
2100
3F00
2100
0000
ENDCHAR

STARTCHAR Cb6bd
ENCODING 46781
SWIDTH 1000 0
DWIDTH 10 0
BBX 10 10 0 -2
BITMAP
0000
2000
5D80
5480
7D80
5480
7F80
2100
4080
0000
ENDCHAR

STARTCHAR Cb6be
ENCODING 46782
SWIDTH 1000 0
DWIDTH 10 0
BBX 10 10 0 -2
BITMAP
0000
2100
7F80
2900
7F80
1200
3F00
6580
3D00
0000
ENDCHAR

STARTCHAR Cb6bf
ENCODING 46783
SWIDTH 1000 0
DWIDTH 10 0
BBX 10 10 0 -2
BITMAP
0000
2000
5F80
3280
5E80
7280
1780
3A00
6200
0000
ENDCHAR

STARTCHAR Cb6c0
ENCODING 46784
SWIDTH 1000 0
DWIDTH 10 0
BBX 10 10 0 -2
BITMAP
0000
2200
5F80
7500
2F80
7500
2700
3500
6980
0000
ENDCHAR

STARTCHAR Cb6c1
ENCODING 46785
SWIDTH 1000 0
DWIDTH 10 0
BBX 10 10 0 -2
BITMAP
0000
2F80
4A80
2E80
7B80
1200
7F80
2100
3F00
0000
ENDCHAR

STARTCHAR Cb6c2
ENCODING 46786
SWIDTH 1000 0
DWIDTH 10 0
BBX 10 10 0 -2
BITMAP
0000
2F80
4A80
2E80
7B80
2900
5E80
1200
3980
0000
ENDCHAR

STARTCHAR Cb6c3
ENCODING 46787
SWIDTH 1000 0
DWIDTH 10 0
BBX 10 10 0 -2
BITMAP
0000
2A00
7F80
2A80
5100
3F80
2400
3F80
5480
0000
ENDCHAR

STARTCHAR Cb6c4
ENCODING 46788
SWIDTH 1000 0
DWIDTH 10 0
BBX 10 10 0 -2
BITMAP
0000
1400
1B80
2A80
2A80
6A80
2E80
3A00
2200
0000
ENDCHAR

STARTCHAR Cb6c5
ENCODING 46789
SWIDTH 1000 0
DWIDTH 10 0
BBX 10 10 0 -2
BITMAP
0000
1D80
5080
3D00
0B80
1D00
2980
4D00
5280
0000
ENDCHAR

STARTCHAR Cb6c6
ENCODING 46790
SWIDTH 1000 0
DWIDTH 10 0
BBX 10 10 0 -2
BITMAP
0000
0800
7F00
2A00
7F80
2200
7F00
1480
6780
0000
ENDCHAR

STARTCHAR Cb6c7
ENCODING 46791
SWIDTH 1000 0
DWIDTH 10 0
BBX 10 10 0 -2
BITMAP
0000
0200
7F80
5500
7F80
5500
5F80
7500
1980
0000
ENDCHAR

STARTCHAR Cb6c8
ENCODING 46792
SWIDTH 1000 0
DWIDTH 10 0
BBX 10 10 0 -2
BITMAP
0000
5500
7F80
1200
3F00
0800
7F80
2A00
4980
0000
ENDCHAR

STARTCHAR Cb6c9
ENCODING 46793
SWIDTH 1000 0
DWIDTH 10 0
BBX 10 10 0 -2
BITMAP
0000
3F00
2100
3F00
2000
3F80
2480
3C80
4300
0000
ENDCHAR

STARTCHAR Cb6ca
ENCODING 46794
SWIDTH 1000 0
DWIDTH 10 0
BBX 10 10 0 -2
BITMAP
0000
1400
1400
7F80
5480
7F80
5480
5480
7F80
0000
ENDCHAR

STARTCHAR Cb6cb
ENCODING 46795
SWIDTH 1000 0
DWIDTH 10 0
BBX 10 10 0 -2
BITMAP
0000
2F80
2400
7580
2E80
2B00
6E80
2200
2F80
0000
ENDCHAR

STARTCHAR Cb6cc
ENCODING 46796
SWIDTH 1000 0
DWIDTH 10 0
BBX 10 10 0 -2
BITMAP
0000
7F00
0800
0800
7F00
0800
0A00
0900
7F80
0000
ENDCHAR

STARTCHAR Cb6cd
ENCODING 46797
SWIDTH 1000 0
DWIDTH 10 0
BBX 10 10 0 -2
BITMAP
0000
2F80
2880
7E80
2880
2E80
6A80
2E80
2880
0000
ENDCHAR

STARTCHAR Cb6ce
ENCODING 46798
SWIDTH 1000 0
DWIDTH 10 0
BBX 10 10 0 -2
BITMAP
0000
1180
5700
1100
7900
1780
3900
5100
5100
0000
ENDCHAR

STARTCHAR Cb6cf
ENCODING 46799
SWIDTH 1000 0
DWIDTH 10 0
BBX 10 10 0 -2
BITMAP
0000
1500
1F80
2500
2F80
6A80
2F80
2200
2F80
0000
ENDCHAR

STARTCHAR Cb6d0
ENCODING 46800
SWIDTH 1000 0
DWIDTH 10 0
BBX 10 10 0 -2
BITMAP
0000
2A00
7A00
2F80
7A80
4A80
7A80
1280
7D80
0000
ENDCHAR

STARTCHAR Cb6d1
ENCODING 46801
SWIDTH 1000 0
DWIDTH 10 0
BBX 10 10 0 -2
BITMAP
0000
2400
2780
7880
2680
2080
3280
6C80
0300
0000
ENDCHAR

STARTCHAR Cb6d2
ENCODING 46802
SWIDTH 1000 0
DWIDTH 10 0
BBX 10 10 0 -2
BITMAP
0000
0800
0800
7F80
4880
4880
4880
4B80
0800
0000
ENDCHAR

STARTCHAR Cb6d3
ENCODING 46803
SWIDTH 1000 0
DWIDTH 10 0
BBX 10 10 0 -2
BITMAP
0000
2200
5700
7500
2700
7500
2F80
3A80
6A80
0000
ENDCHAR

STARTCHAR Cb6d4
ENCODING 46804
SWIDTH 1000 0
DWIDTH 10 0
BBX 10 10 0 -2
BITMAP
0000
0700
3800
2000
3F80
2200
2200
4200
4200
0000
ENDCHAR

STARTCHAR Cb6d5
ENCODING 46805
SWIDTH 1000 0
DWIDTH 10 0
BBX 10 10 0 -2
BITMAP
0000
1400
6780
4A80
7A00
5200
5500
5500
5880
0000
ENDCHAR

STARTCHAR Cb6d6
ENCODING 46806
SWIDTH 1000 0
DWIDTH 10 0
BBX 10 10 0 -2
BITMAP
0000
2400
5780
7A80
2200
7200
2500
3500
6880
0000
ENDCHAR

STARTCHAR Cb6d7
ENCODING 46807
SWIDTH 1000 0
DWIDTH 10 0
BBX 10 10 0 -2
BITMAP
0000
7380
2100
6D80
3300
6980
3E00
0400
0800
0000
ENDCHAR

STARTCHAR Cb6d8
ENCODING 46808
SWIDTH 1000 0
DWIDTH 10 0
BBX 10 10 0 -2
BITMAP
0000
2200
7780
2200
3F00
0000
7F80
2900
4880
0000
ENDCHAR

STARTCHAR Cb6d9
ENCODING 46809
SWIDTH 1000 0
DWIDTH 10 0
BBX 10 10 0 -2
BITMAP
0000
0800
1600
6980
3F00
0400
7F80
4880
5E80
0000
ENDCHAR

STARTCHAR Cb6da
ENCODING 46810
SWIDTH 1000 0
DWIDTH 10 0
BBX 10 10 0 -2
BITMAP
0000
2200
3B80
5500
3A00
2F80
3A80
2A80
5D80
0000
ENDCHAR

STARTCHAR Cb6db
ENCODING 46811
SWIDTH 1000 0
DWIDTH 10 0
BBX 10 10 0 -2
BITMAP
0000
7F80
5280
7900
4A80
1500
7F80
2900
4880
0000
ENDCHAR

STARTCHAR Cb6dc
ENCODING 46812
SWIDTH 1000 0
DWIDTH 10 0
BBX 10 10 0 -2
BITMAP
0000
1200
7F80
1200
3F00
2000
3F80
2200
4200
0000
ENDCHAR

STARTCHAR Cb6dd
ENCODING 46813
SWIDTH 1000 0
DWIDTH 10 0
BBX 10 10 0 -2
BITMAP
0000
1200
7F80
1200
7F80
4880
5C80
4A80
7F80
0000
ENDCHAR

STARTCHAR Cb6de
ENCODING 46814
SWIDTH 1000 0
DWIDTH 10 0
BBX 10 10 0 -2
BITMAP
0000
2200
2500
7880
1700
2000
7700
2100
2200
0000
ENDCHAR

STARTCHAR Cb6df
ENCODING 46815
SWIDTH 1000 0
DWIDTH 10 0
BBX 10 10 0 -2
BITMAP
0000
2500
2F80
7500
1A80
2000
6F80
2200
2A80
0000
ENDCHAR

STARTCHAR Cb6e0
ENCODING 46816
SWIDTH 1000 0
DWIDTH 10 0
BBX 10 10 0 -2
BITMAP
0000
2500
7F80
0500
6F80
0A80
7F80
5200
7F80
0000
ENDCHAR

STARTCHAR Cb6e1
ENCODING 46817
SWIDTH 1000 0
DWIDTH 10 0
BBX 10 10 0 -2
BITMAP
0000
4300
2C00
0800
0F80
6900
2900
3100
5F80
0000
ENDCHAR

STARTCHAR Cb6e2
ENCODING 46818
SWIDTH 1000 0
DWIDTH 10 0
BBX 10 10 0 -2
BITMAP
0000
0C00
1200
6180
3E00
0800
7F00
2A00
7F80
0000
ENDCHAR

STARTCHAR Cb6e3
ENCODING 46819
SWIDTH 1000 0
DWIDTH 10 0
BBX 10 10 0 -2
BITMAP
0000
0200
7500
5880
5700
5000
7700
0100
0200
0000
ENDCHAR

STARTCHAR Cb6e4
ENCODING 46820
SWIDTH 1000 0
DWIDTH 10 0
BBX 10 10 0 -2
BITMAP
0000
1780
2C80
7780
1480
7F00
1580
5D00
6680
0000
ENDCHAR

STARTCHAR Cb6e5
ENCODING 46821
SWIDTH 1000 0
DWIDTH 10 0
BBX 10 10 0 -2
BITMAP
0000
1000
1000
7E00
1200
1200
2280
2280
4380
0000
ENDCHAR

STARTCHAR Cb6e6
ENCODING 46822
SWIDTH 1000 0
DWIDTH 10 0
BBX 10 10 0 -2
BITMAP
0000
1700
1500
2700
2500
6500
2F80
2500
2880
0000
ENDCHAR

STARTCHAR Cb6e7
ENCODING 46823
SWIDTH 1000 0
DWIDTH 10 0
BBX 10 10 0 -2
BITMAP
0000
1000
1F80
2080
7C80
2480
2480
3C80
0300
0000
ENDCHAR

STARTCHAR Cb6e8
ENCODING 46824
SWIDTH 1000 0
DWIDTH 10 0
BBX 10 10 0 -2
BITMAP
0000
7F80
4200
5200
4C00
4600
4900
5000
7F80
0000
ENDCHAR

STARTCHAR Cb6e9
ENCODING 46825
SWIDTH 1000 0
DWIDTH 10 0
BBX 10 10 0 -2
BITMAP
0000
5400
2780
5880
1780
3480
5780
1080
6300
0000
ENDCHAR

STARTCHAR Cb6ea
ENCODING 46826
SWIDTH 1000 0
DWIDTH 10 0
BBX 10 10 0 -2
BITMAP
0000
0400
7700
2900
7900
2200
3200
6500
0880
0000
ENDCHAR

STARTCHAR Cb6eb
ENCODING 46827
SWIDTH 1000 0
DWIDTH 10 0
BBX 10 10 0 -2
BITMAP
0000
4780
7400
2780
7480
2780
2400
5400
4780
0000
ENDCHAR

STARTCHAR Cb6ec
ENCODING 46828
SWIDTH 1000 0
DWIDTH 10 0
BBX 10 10 0 -2
BITMAP
0000
1200
7F80
1200
7F80
0800
3F00
2100
3F00
0000
ENDCHAR

STARTCHAR Cb6ed
ENCODING 46829
SWIDTH 1000 0
DWIDTH 10 0
BBX 10 10 0 -2
BITMAP
0000
2000
7780
5400
7680
5D00
3680
5400
3780
0000
ENDCHAR

STARTCHAR Cb6ee
ENCODING 46830
SWIDTH 1000 0
DWIDTH 10 0
BBX 10 10 0 -2
BITMAP
0000
7780
4400
7680
4500
7500
1680
5400
5780
0000
ENDCHAR

STARTCHAR Cb6ef
ENCODING 46831
SWIDTH 1000 0
DWIDTH 10 0
BBX 10 10 0 -2
BITMAP
0000
7100
4600
7400
4780
7500
1500
5500
5F80
0000
ENDCHAR

STARTCHAR Cb6f0
ENCODING 46832
SWIDTH 1000 0
DWIDTH 10 0
BBX 10 10 0 -2
BITMAP
0000
7A00
5380
7C80
5380
7A80
0B80
4880
5B00
0000
ENDCHAR

STARTCHAR Cb6f1
ENCODING 46833
SWIDTH 1000 0
DWIDTH 10 0
BBX 10 10 0 -2
BITMAP
0000
3F00
2100
3F00
2100
2100
7F80
2100
4080
0000
ENDCHAR

STARTCHAR Cb6f2
ENCODING 46834
SWIDTH 1000 0
DWIDTH 10 0
BBX 10 10 0 -2
BITMAP
0000
3F00
2900
3F00
2900
7F80
4480
1000
5E80
0000
ENDCHAR

STARTCHAR Cb6f3
ENCODING 46835
SWIDTH 1000 0
DWIDTH 10 0
BBX 10 10 0 -2
BITMAP
0000
0400
3F80
2A80
2A00
2F00
2100
5F80
4900
0000
ENDCHAR

STARTCHAR Cb6f4
ENCODING 46836
SWIDTH 1000 0
DWIDTH 10 0
BBX 10 10 0 -2
BITMAP
0000
0200
7500
5F80
5500
5700
5580
7500
0E80
0000
ENDCHAR

STARTCHAR Cb6f5
ENCODING 46837
SWIDTH 1000 0
DWIDTH 10 0
BBX 10 10 0 -2
BITMAP
0000
0800
7F80
5480
2700
0000
3E00
0800
7F80
0000
ENDCHAR

STARTCHAR Cb6f6
ENCODING 46838
SWIDTH 1000 0
DWIDTH 10 0
BBX 10 10 0 -2
BITMAP
0000
1F80
2A80
2A80
6F80
2200
2F80
2A80
2980
0000
ENDCHAR

STARTCHAR Cb6f7
ENCODING 46839
SWIDTH 1000 0
DWIDTH 10 0
BBX 10 10 0 -2
BITMAP
0000
0800
7F80
5280
1E00
0800
7F80
4880
5D80
0000
ENDCHAR

STARTCHAR Cb6f8
ENCODING 46840
SWIDTH 1000 0
DWIDTH 10 0
BBX 10 10 0 -2
BITMAP
0000
4F80
2A80
0F80
0200
6F80
2A80
2880
5F80
0000
ENDCHAR

STARTCHAR Cb6f9
ENCODING 46841
SWIDTH 1000 0
DWIDTH 10 0
BBX 10 10 0 -2
BITMAP
0000
7780
5480
6480
5780
5200
6F80
4A80
4980
0000
ENDCHAR

STARTCHAR Cb6fa
ENCODING 46842
SWIDTH 1000 0
DWIDTH 10 0
BBX 10 10 0 -2
BITMAP
0000
0800
3F00
2900
3F00
0800
7F80
4880
7F80
0000
ENDCHAR

STARTCHAR Cb6fb
ENCODING 46843
SWIDTH 1000 0
DWIDTH 10 0
BBX 10 10 0 -2
BITMAP
0000
2A00
2F80
7500
2F80
2A80
6B80
3E00
2200
0000
ENDCHAR

STARTCHAR Cb6fc
ENCODING 46844
SWIDTH 1000 0
DWIDTH 10 0
BBX 10 10 0 -2
BITMAP
0000
2880
5A80
6A80
3A80
6A80
3A80
6A80
1080
0000
ENDCHAR

STARTCHAR Cb6fd
ENCODING 46845
SWIDTH 1000 0
DWIDTH 10 0
BBX 10 10 0 -2
BITMAP
0000
3F80
2080
3F80
2A80
2F00
2900
4F00
4900
0000
ENDCHAR

STARTCHAR Cb6fe
ENCODING 46846
SWIDTH 1000 0
DWIDTH 10 0
BBX 10 10 0 -2
BITMAP
0000
3F00
2100
3F00
2A80
2F80
2200
5280
5F80
0000
ENDCHAR

STARTCHAR Cb7a1
ENCODING 47009
SWIDTH 1000 0
DWIDTH 10 0
BBX 10 10 0 -2
BITMAP
0000
2F00
2900
7F00
2A80
2F80
7200
2A80
6F80
0000
ENDCHAR

STARTCHAR Cb7a2
ENCODING 47010
SWIDTH 1000 0
DWIDTH 10 0
BBX 10 10 0 -2
BITMAP
0000
0800
7F80
5480
3F00
2100
3F00
5480
5F80
0000
ENDCHAR

STARTCHAR Cb7a3
ENCODING 47011
SWIDTH 1000 0
DWIDTH 10 0
BBX 10 10 0 -2
BITMAP
0000
0400
0500
7600
1500
3F80
5100
1100
1F00
0000
ENDCHAR

STARTCHAR Cb7a4
ENCODING 47012
SWIDTH 1000 0
DWIDTH 10 0
BBX 10 10 0 -2
BITMAP
0000
4A00
7A00
4A80
7B00
2A00
7A00
2A80
2B80
0000
ENDCHAR

STARTCHAR Cb7a5
ENCODING 47013
SWIDTH 1000 0
DWIDTH 10 0
BBX 10 10 0 -2
BITMAP
0000
2900
5E80
2900
7B80
2900
3F00
2100
3F00
0000
ENDCHAR

STARTCHAR Cb7a6
ENCODING 47014
SWIDTH 1000 0
DWIDTH 10 0
BBX 10 10 0 -2
BITMAP
0000
0800
7F80
5480
6700
0200
6700
1200
6F80
0000
ENDCHAR

STARTCHAR Cb7a7
ENCODING 47015
SWIDTH 1000 0
DWIDTH 10 0
BBX 10 10 0 -2
BITMAP
0000
2200
4B80
7E00
2B80
3A00
2B80
5500
5480
0000
ENDCHAR

STARTCHAR Cb7a8
ENCODING 47016
SWIDTH 1000 0
DWIDTH 10 0
BBX 10 10 0 -2
BITMAP
0000
7780
5480
6480
5780
5000
6F80
4500
4E80
0000
ENDCHAR

STARTCHAR Cb7a9
ENCODING 47017
SWIDTH 1000 0
DWIDTH 10 0
BBX 10 10 0 -2
BITMAP
0000
1F00
6100
0E00
7980
2A00
7F80
2A00
4980
0000
ENDCHAR

STARTCHAR Cb7aa
ENCODING 47018
SWIDTH 1000 0
DWIDTH 10 0
BBX 10 10 0 -2
BITMAP
0000
7F80
1400
7F00
5500
7F00
0800
7F80
2900
0000
ENDCHAR

STARTCHAR Cb7ab
ENCODING 47019
SWIDTH 1000 0
DWIDTH 10 0
BBX 10 10 0 -2
BITMAP
0000
2700
5500
2F80
4A80
7F80
2200
7700
2A80
0000
ENDCHAR

STARTCHAR Cb7ac
ENCODING 47020
SWIDTH 1000 0
DWIDTH 10 0
BBX 10 10 0 -2
BITMAP
0000
3C00
0800
7700
2200
5500
7F80
2A00
4980
0000
ENDCHAR

STARTCHAR Cb7ad
ENCODING 47021
SWIDTH 1000 0
DWIDTH 10 0
BBX 10 10 0 -2
BITMAP
0000
2300
5D00
7580
2F00
7500
2D00
3680
6480
0000
ENDCHAR

STARTCHAR Cb7ae
ENCODING 47022
SWIDTH 1000 0
DWIDTH 10 0
BBX 10 10 0 -2
BITMAP
0000
0A00
7200
1780
7A80
2A80
7D80
0000
5480
0000
ENDCHAR

STARTCHAR Cb7af
ENCODING 47023
SWIDTH 1000 0
DWIDTH 10 0
BBX 10 10 0 -2
BITMAP
0000
3E00
1200
7F80
1200
3F00
5100
1100
1F00
0000
ENDCHAR

STARTCHAR Cb7b0
ENCODING 47024
SWIDTH 1000 0
DWIDTH 10 0
BBX 10 10 0 -2
BITMAP
0000
7F80
1200
7F80
2900
3F00
0800
7F80
5500
0000
ENDCHAR

STARTCHAR Cb7b1
ENCODING 47025
SWIDTH 1000 0
DWIDTH 10 0
BBX 10 10 0 -2
BITMAP
0000
2880
7A80
0A80
6A80
0A80
7A80
5080
7080
0000
ENDCHAR

STARTCHAR Cb7b2
ENCODING 47026
SWIDTH 1000 0
DWIDTH 10 0
BBX 10 10 0 -2
BITMAP
0000
7A80
2B80
7900
2B80
3900
6F80
2900
3900
0000
ENDCHAR

STARTCHAR Cb7b3
ENCODING 47027
SWIDTH 1000 0
DWIDTH 10 0
BBX 10 10 0 -2
BITMAP
0000
7F80
4880
3F00
0800
3F00
2900
7F80
0800
0000
ENDCHAR

STARTCHAR Cb7b4
ENCODING 47028
SWIDTH 1000 0
DWIDTH 10 0
BBX 10 10 0 -2
BITMAP
0000
7B80
2A80
7B00
2A80
3A80
6B00
2A00
3A00
0000
ENDCHAR

STARTCHAR Cb7b5
ENCODING 47029
SWIDTH 1000 0
DWIDTH 10 0
BBX 10 10 0 -2
BITMAP
0000
1200
3A00
1200
7F00
1280
3A00
1200
7E00
0000
ENDCHAR

STARTCHAR Cb7b6
ENCODING 47030
SWIDTH 1000 0
DWIDTH 10 0
BBX 10 10 0 -2
BITMAP
0000
7B80
2A80
5B80
0800
7F80
1500
3200
5980
0000
ENDCHAR

STARTCHAR Cb7b7
ENCODING 47031
SWIDTH 1000 0
DWIDTH 10 0
BBX 10 10 0 -2
BITMAP
0000
1380
7A80
0B00
1280
3280
5B00
1200
1200
0000
ENDCHAR

STARTCHAR Cb7b8
ENCODING 47032
SWIDTH 1000 0
DWIDTH 10 0
BBX 10 10 0 -2
BITMAP
0000
1300
1C00
2200
2480
6F80
2200
2B00
2A80
0000
ENDCHAR

STARTCHAR Cb7b9
ENCODING 47033
SWIDTH 1000 0
DWIDTH 10 0
BBX 10 10 0 -2
BITMAP
0000
1780
1100
2B80
6E80
2B80
2E80
2300
2480
0000
ENDCHAR

STARTCHAR Cb7ba
ENCODING 47034
SWIDTH 1000 0
DWIDTH 10 0
BBX 10 10 0 -2
BITMAP
0000
7E80
2A80
2A80
7E80
2A80
2A80
2880
4980
0000
ENDCHAR

STARTCHAR Cb7bb
ENCODING 47035
SWIDTH 1000 0
DWIDTH 10 0
BBX 10 10 0 -2
BITMAP
0000
3F00
2100
2100
2100
3F00
1400
1480
6780
0000
ENDCHAR

STARTCHAR Cb7bc
ENCODING 47036
SWIDTH 1000 0
DWIDTH 10 0
BBX 10 10 0 -2
BITMAP
0000
0200
7B80
2E80
3900
4280
3F00
2100
3F00
0000
ENDCHAR

STARTCHAR Cb7bd
ENCODING 47037
SWIDTH 1000 0
DWIDTH 10 0
BBX 10 10 0 -2
BITMAP
0000
0800
3E00
0800
7F00
0800
3E00
0800
7F80
0000
ENDCHAR

STARTCHAR Cb7be
ENCODING 47038
SWIDTH 1000 0
DWIDTH 10 0
BBX 10 10 0 -2
BITMAP
0000
0200
7700
2200
7F80
2200
3700
6200
0F80
0000
ENDCHAR

STARTCHAR Cb7bf
ENCODING 47039
SWIDTH 1000 0
DWIDTH 10 0
BBX 10 10 0 -2
BITMAP
0000
7A80
2A80
7E80
2880
2980
5E00
0800
7F80
0000
ENDCHAR

STARTCHAR Cb7c0
ENCODING 47040
SWIDTH 1000 0
DWIDTH 10 0
BBX 10 10 0 -2
BITMAP
0000
2000
7B80
2A80
5B80
0800
7F80
1400
6380
0000
ENDCHAR

STARTCHAR Cb7c1
ENCODING 47041
SWIDTH 1000 0
DWIDTH 10 0
BBX 10 10 0 -2
BITMAP
0000
7D00
2A00
2C80
7900
2A00
2880
2900
4A00
0000
ENDCHAR

STARTCHAR Cb7c2
ENCODING 47042
SWIDTH 1000 0
DWIDTH 10 0
BBX 10 10 0 -2
BITMAP
0000
2F80
4500
1200
2D80
6200
2700
2200
2F80
0000
ENDCHAR

STARTCHAR Cb7c3
ENCODING 47043
SWIDTH 1000 0
DWIDTH 10 0
BBX 10 10 0 -2
BITMAP
0000
0A00
7F80
2900
3F00
2900
3F00
5480
5E80
0000
ENDCHAR

STARTCHAR Cb7c4
ENCODING 47044
SWIDTH 1000 0
DWIDTH 10 0
BBX 10 10 0 -2
BITMAP
0000
0400
3F80
2A00
3F80
2A80
3A00
2400
5B80
0000
ENDCHAR

STARTCHAR Cb7c5
ENCODING 47045
SWIDTH 1000 0
DWIDTH 10 0
BBX 10 10 0 -2
BITMAP
0000
7700
2200
7F00
0200
3E00
0500
5080
5E80
0000
ENDCHAR

STARTCHAR Cb7c6
ENCODING 47046
SWIDTH 1000 0
DWIDTH 10 0
BBX 10 10 0 -2
BITMAP
0000
0900
3380
1280
7F80
2A80
3B80
5100
5E80
0000
ENDCHAR

STARTCHAR Cb7c7
ENCODING 47047
SWIDTH 1000 0
DWIDTH 10 0
BBX 10 10 0 -2
BITMAP
0000
2F00
2900
7F00
2400
2F80
7480
2680
6180
0000
ENDCHAR

STARTCHAR Cb7c8
ENCODING 47048
SWIDTH 1000 0
DWIDTH 10 0
BBX 10 10 0 -2
BITMAP
0000
2500
2F80
7500
2780
3500
6F80
2480
6980
0000
ENDCHAR

STARTCHAR Cb7c9
ENCODING 47049
SWIDTH 1000 0
DWIDTH 10 0
BBX 10 10 0 -2
BITMAP
0000
2A00
7F80
2A80
3E80
4500
7500
5680
7A80
0000
ENDCHAR

STARTCHAR Cb7ca
ENCODING 47050
SWIDTH 1000 0
DWIDTH 10 0
BBX 10 10 0 -2
BITMAP
0000
3F00
2100
3F00
0800
7F80
2100
3F00
4880
0000
ENDCHAR

STARTCHAR Cb7cb
ENCODING 47051
SWIDTH 1000 0
DWIDTH 10 0
BBX 10 10 0 -2
BITMAP
0000
2200
2700
7200
2F80
3200
6700
2200
2F80
0000
ENDCHAR

STARTCHAR Cb7cc
ENCODING 47052
SWIDTH 1000 0
DWIDTH 10 0
BBX 10 10 0 -2
BITMAP
0000
4180
2E00
4A80
2F80
0200
2F80
4500
5880
0000
ENDCHAR

STARTCHAR Cb7cd
ENCODING 47053
SWIDTH 1000 0
DWIDTH 10 0
BBX 10 10 0 -2
BITMAP
0000
0200
7700
5200
7F80
5200
5700
7200
0F80
0000
ENDCHAR

STARTCHAR Cb7ce
ENCODING 47054
SWIDTH 1000 0
DWIDTH 10 0
BBX 10 10 0 -2
BITMAP
0000
1280
6F80
2500
7980
2400
3780
6480
2780
0000
ENDCHAR

STARTCHAR Cb7cf
ENCODING 47055
SWIDTH 1000 0
DWIDTH 10 0
BBX 10 10 0 -2
BITMAP
0000
3F00
0800
3200
1500
7F80
0880
2A00
4900
0000
ENDCHAR

STARTCHAR Cb7d0
ENCODING 47056
SWIDTH 1000 0
DWIDTH 10 0
BBX 10 10 0 -2
BITMAP
0000
2F80
5500
2200
4D80
7200
2700
7200
2F80
0000
ENDCHAR

STARTCHAR Cb7d1
ENCODING 47057
SWIDTH 1000 0
DWIDTH 10 0
BBX 10 10 0 -2
BITMAP
0000
2A00
5A80
2F80
4A00
7F00
2A80
7800
2F80
0000
ENDCHAR

STARTCHAR Cb7d2
ENCODING 47058
SWIDTH 1000 0
DWIDTH 10 0
BBX 10 10 0 -2
BITMAP
0000
7700
2D80
7200
5580
2900
7E80
2A00
4900
0000
ENDCHAR

STARTCHAR Cb7d3
ENCODING 47059
SWIDTH 1000 0
DWIDTH 10 0
BBX 10 10 0 -2
BITMAP
0000
7F80
5480
7F80
1200
3A00
1300
1A80
6200
0000
ENDCHAR

STARTCHAR Cb7d4
ENCODING 47060
SWIDTH 1000 0
DWIDTH 10 0
BBX 10 10 0 -2
BITMAP
0000
7F80
1200
7F00
2200
1C00
6B80
0800
7F80
0000
ENDCHAR

STARTCHAR Cb7d5
ENCODING 47061
SWIDTH 1000 0
DWIDTH 10 0
BBX 10 10 0 -2
BITMAP
0000
1200
7F80
1200
7C80
2A80
7E80
2A80
2980
0000
ENDCHAR

STARTCHAR Cb7d6
ENCODING 47062
SWIDTH 1000 0
DWIDTH 10 0
BBX 10 10 0 -2
BITMAP
0000
2900
7F80
4880
3F00
2900
3F00
0900
7E80
0000
ENDCHAR

STARTCHAR Cb7d7
ENCODING 47063
SWIDTH 1000 0
DWIDTH 10 0
BBX 10 10 0 -2
BITMAP
0000
2200
7200
0200
6F80
0200
7200
5200
7200
0000
ENDCHAR

STARTCHAR Cb7d8
ENCODING 47064
SWIDTH 1000 0
DWIDTH 10 0
BBX 10 10 0 -2
BITMAP
0000
2400
7700
0480
7780
0500
7700
5500
7700
0000
ENDCHAR

STARTCHAR Cb7d9
ENCODING 47065
SWIDTH 1000 0
DWIDTH 10 0
BBX 10 10 0 -2
BITMAP
0000
2A00
3B80
4D00
2A80
0400
7F80
0000
1E00
0000
ENDCHAR

STARTCHAR Cb7da
ENCODING 47066
SWIDTH 1000 0
DWIDTH 10 0
BBX 10 10 0 -2
BITMAP
0000
2F80
7500
2200
7D80
5200
7700
2200
7F80
0000
ENDCHAR

STARTCHAR Cb7db
ENCODING 47067
SWIDTH 1000 0
DWIDTH 10 0
BBX 10 10 0 -2
BITMAP
0000
7780
5200
2780
5480
2780
7480
2700
7480
0000
ENDCHAR

STARTCHAR Cb7dc
ENCODING 47068
SWIDTH 1000 0
DWIDTH 10 0
BBX 10 10 0 -2
BITMAP
0000
1200
6700
5500
7780
2400
7780
2080
5580
0000
ENDCHAR

STARTCHAR Cb7dd
ENCODING 47069
SWIDTH 1000 0
DWIDTH 10 0
BBX 10 10 0 -2
BITMAP
0000
1200
7F80
1200
3F00
0000
7F80
1100
7E80
0000
ENDCHAR

STARTCHAR Cb7de
ENCODING 47070
SWIDTH 1000 0
DWIDTH 10 0
BBX 10 10 0 -2
BITMAP
0000
4400
2B80
0A80
0A80
6F80
3A00
2200
5F80
0000
ENDCHAR

STARTCHAR Cb7df
ENCODING 47071
SWIDTH 1000 0
DWIDTH 10 0
BBX 10 10 0 -2
BITMAP
0000
3200
5F80
2000
7700
5500
7700
0A80
5A80
0000
ENDCHAR

STARTCHAR Cb7e0
ENCODING 47072
SWIDTH 1000 0
DWIDTH 10 0
BBX 10 10 0 -2
BITMAP
0000
3080
2280
7A80
5280
7A80
5080
6880
5980
0000
ENDCHAR

STARTCHAR Cb7e1
ENCODING 47073
SWIDTH 1000 0
DWIDTH 10 0
BBX 10 10 0 -2
BITMAP
0000
2200
7280
2F80
7200
5280
7100
2100
7680
0000
ENDCHAR

STARTCHAR Cb7e2
ENCODING 47074
SWIDTH 1000 0
DWIDTH 10 0
BBX 10 10 0 -2
BITMAP
0000
7700
2D80
7200
5D00
2400
7F80
0400
1C00
0000
ENDCHAR

STARTCHAR Cb7e3
ENCODING 47075
SWIDTH 1000 0
DWIDTH 10 0
BBX 10 10 0 -2
BITMAP
0000
5200
3B80
6A80
3A80
1500
3900
2A80
5A80
0000
ENDCHAR

STARTCHAR Cb7e4
ENCODING 47076
SWIDTH 1000 0
DWIDTH 10 0
BBX 10 10 0 -2
BITMAP
0000
7200
5680
6A80
5700
5500
6700
4A80
5280
0000
ENDCHAR

STARTCHAR Cb7e5
ENCODING 47077
SWIDTH 1000 0
DWIDTH 10 0
BBX 10 10 0 -2
BITMAP
0000
2580
2800
7580
2C80
6480
3480
2480
2580
0000
ENDCHAR

STARTCHAR Cb7e6
ENCODING 47078
SWIDTH 1000 0
DWIDTH 10 0
BBX 10 10 0 -2
BITMAP
0000
2900
2F80
3500
6B80
3100
2F80
2200
2A80
0000
ENDCHAR

STARTCHAR Cb7e7
ENCODING 47079
SWIDTH 1000 0
DWIDTH 10 0
BBX 10 10 0 -2
BITMAP
0000
2000
3F00
2900
4A00
1400
1400
2200
4180
0000
ENDCHAR

STARTCHAR Cb7e8
ENCODING 47080
SWIDTH 1000 0
DWIDTH 10 0
BBX 10 10 0 -2
BITMAP
0000
4400
2F00
4500
2500
1F80
2400
4A00
5180
0000
ENDCHAR

STARTCHAR Cb7e9
ENCODING 47081
SWIDTH 1000 0
DWIDTH 10 0
BBX 10 10 0 -2
BITMAP
0000
5F80
2A80
5D80
2A00
0480
2F80
4200
4A80
0000
ENDCHAR

STARTCHAR Cb7ea
ENCODING 47082
SWIDTH 1000 0
DWIDTH 10 0
BBX 10 10 0 -2
BITMAP
0000
0800
7F80
4080
1200
1200
2100
2100
4080
0000
ENDCHAR

STARTCHAR Cb7eb
ENCODING 47083
SWIDTH 1000 0
DWIDTH 10 0
BBX 10 10 0 -2
BITMAP
0000
2200
5780
2200
5780
7000
2780
7480
2780
0000
ENDCHAR

STARTCHAR Cb7ec
ENCODING 47084
SWIDTH 1000 0
DWIDTH 10 0
BBX 10 10 0 -2
BITMAP
0000
0400
0800
3F80
2A80
2A80
2A80
2A80
7F80
0000
ENDCHAR

STARTCHAR Cb7ed
ENCODING 47085
SWIDTH 1000 0
DWIDTH 10 0
BBX 10 10 0 -2
BITMAP
0000
2200
7780
0280
7280
0F80
7200
5500
7880
0000
ENDCHAR

STARTCHAR Cb7ee
ENCODING 47086
SWIDTH 1000 0
DWIDTH 10 0
BBX 10 10 0 -2
BITMAP
0000
3F00
2100
3F00
2100
3F00
2100
2100
4700
0000
ENDCHAR

STARTCHAR Cb7ef
ENCODING 47087
SWIDTH 1000 0
DWIDTH 10 0
BBX 10 10 0 -2
BITMAP
0000
1200
1A00
2F00
2200
6F80
2200
2200
2200
0000
ENDCHAR

STARTCHAR Cb7f0
ENCODING 47088
SWIDTH 1000 0
DWIDTH 10 0
BBX 10 10 0 -2
BITMAP
0000
1200
1700
2A80
2F80
6A80
2F80
2500
3880
0000
ENDCHAR

STARTCHAR Cb7f1
ENCODING 47089
SWIDTH 1000 0
DWIDTH 10 0
BBX 10 10 0 -2
BITMAP
0000
1500
1F80
2A00
3F80
6900
3680
2400
2700
0000
ENDCHAR

STARTCHAR Cb7f2
ENCODING 47090
SWIDTH 1000 0
DWIDTH 10 0
BBX 10 10 0 -2
BITMAP
0000
1200
1780
3A80
6F80
3200
2F80
2A00
3780
0000
ENDCHAR

STARTCHAR Cb7f3
ENCODING 47091
SWIDTH 1000 0
DWIDTH 10 0
BBX 10 10 0 -2
BITMAP
0000
2200
1400
7F80
1500
7F80
1500
3600
5580
0000
ENDCHAR

STARTCHAR Cb7f4
ENCODING 47092
SWIDTH 1000 0
DWIDTH 10 0
BBX 10 10 0 -2
BITMAP
0000
2A00
3F00
1400
7F80
2900
7E80
1200
2600
0000
ENDCHAR

STARTCHAR Cb7f5
ENCODING 47093
SWIDTH 1000 0
DWIDTH 10 0
BBX 10 10 0 -2
BITMAP
0000
0880
1C80
2A80
7E80
2A80
3E80
0880
3580
0000
ENDCHAR

STARTCHAR Cb7f6
ENCODING 47094
SWIDTH 1000 0
DWIDTH 10 0
BBX 10 10 0 -2
BITMAP
0000
0200
7F80
5080
5700
5500
7700
0500
0F80
0000
ENDCHAR

STARTCHAR Cb7f7
ENCODING 47095
SWIDTH 1000 0
DWIDTH 10 0
BBX 10 10 0 -2
BITMAP
0000
7F80
4A80
7F80
5480
6680
5D80
5080
7F80
0000
ENDCHAR

STARTCHAR Cb7f8
ENCODING 47096
SWIDTH 1000 0
DWIDTH 10 0
BBX 10 10 0 -2
BITMAP
0000
7F80
5280
7900
4A80
7800
0F00
0800
7F80
0000
ENDCHAR

STARTCHAR Cb7f9
ENCODING 47097
SWIDTH 1000 0
DWIDTH 10 0
BBX 10 10 0 -2
BITMAP
0000
2880
2500
7F80
5280
5F80
3500
2D80
5500
0000
ENDCHAR

STARTCHAR Cb7fa
ENCODING 47098
SWIDTH 1000 0
DWIDTH 10 0
BBX 10 10 0 -2
BITMAP
0000
7200
1780
2280
7F80
1200
5780
2200
5F80
0000
ENDCHAR

STARTCHAR Cb7fb
ENCODING 47099
SWIDTH 1000 0
DWIDTH 10 0
BBX 10 10 0 -2
BITMAP
0000
0800
7F80
4880
5E80
0800
3F00
5080
5E80
0000
ENDCHAR

STARTCHAR Cb7fc
ENCODING 47100
SWIDTH 1000 0
DWIDTH 10 0
BBX 10 10 0 -2
BITMAP
0000
3B80
2900
3A80
2900
7B80
1500
5000
5E80
0000
ENDCHAR

STARTCHAR Cb7fd
ENCODING 47101
SWIDTH 1000 0
DWIDTH 10 0
BBX 10 10 0 -2
BITMAP
0000
4900
2A00
7F80
2500
5E80
0400
3F00
0400
0000
ENDCHAR

STARTCHAR Cb7fe
ENCODING 47102
SWIDTH 1000 0
DWIDTH 10 0
BBX 10 10 0 -2
BITMAP
0000
2A80
2F80
7200
2F80
6900
3680
2400
6700
0000
ENDCHAR

STARTCHAR Cb8a1
ENCODING 47265
SWIDTH 1000 0
DWIDTH 10 0
BBX 10 10 0 -2
BITMAP
0000
2200
2700
7A80
2F80
6A80
3F80
2500
3880
0000
ENDCHAR

STARTCHAR Cb8a2
ENCODING 47266
SWIDTH 1000 0
DWIDTH 10 0
BBX 10 10 0 -2
BITMAP
0000
2800
2F80
7500
2F80
2500
6F80
3500
2780
0000
ENDCHAR

STARTCHAR Cb8a3
ENCODING 47267
SWIDTH 1000 0
DWIDTH 10 0
BBX 10 10 0 -2
BITMAP
0000
0800
3F00
2A00
7F80
4880
1200
7F80
0800
0000
ENDCHAR

STARTCHAR Cb8a4
ENCODING 47268
SWIDTH 1000 0
DWIDTH 10 0
BBX 10 10 0 -2
BITMAP
0000
0A00
0900
0800
7F80
0800
1400
1200
6180
0000
ENDCHAR

STARTCHAR Cb8a5
ENCODING 47269
SWIDTH 1000 0
DWIDTH 10 0
BBX 10 10 0 -2
BITMAP
0000
2280
7A00
2780
7A00
4A00
7B00
4D00
4880
0000
ENDCHAR

STARTCHAR Cb8a6
ENCODING 47270
SWIDTH 1000 0
DWIDTH 10 0
BBX 10 10 0 -2
BITMAP
0000
7F80
2500
4500
7F80
5500
5500
7500
0900
0000
ENDCHAR

STARTCHAR Cb8a7
ENCODING 47271
SWIDTH 1000 0
DWIDTH 10 0
BBX 10 10 0 -2
BITMAP
0000
7780
2480
4780
7480
5780
5500
7500
0980
0000
ENDCHAR

STARTCHAR Cb8a8
ENCODING 47272
SWIDTH 1000 0
DWIDTH 10 0
BBX 10 10 0 -2
BITMAP
0000
2780
5480
2780
5000
7780
2480
7780
2480
0000
ENDCHAR

STARTCHAR Cb8a9
ENCODING 47273
SWIDTH 1000 0
DWIDTH 10 0
BBX 10 10 0 -2
BITMAP
0000
1F00
5100
5F00
5100
5100
7F80
2A00
4980
0000
ENDCHAR

STARTCHAR Cb8aa
ENCODING 47274
SWIDTH 1000 0
DWIDTH 10 0
BBX 10 10 0 -2
BITMAP
0000
7F80
0000
3F80
2080
3F80
2900
2F00
4900
0000
ENDCHAR

STARTCHAR Cb8ab
ENCODING 47275
SWIDTH 1000 0
DWIDTH 10 0
BBX 10 10 0 -2
BITMAP
0000
3F00
2100
3F00
2100
3F00
1400
1480
6780
0000
ENDCHAR

STARTCHAR Cb8ac
ENCODING 47276
SWIDTH 1000 0
DWIDTH 10 0
BBX 10 10 0 -2
BITMAP
0000
2880
7500
0F80
7280
0F80
7500
5D80
7500
0000
ENDCHAR

STARTCHAR Cb8ad
ENCODING 47277
SWIDTH 1000 0
DWIDTH 10 0
BBX 10 10 0 -2
BITMAP
0000
7F80
5280
7900
4A80
7F00
2100
3F00
6180
0000
ENDCHAR

STARTCHAR Cb8ae
ENCODING 47278
SWIDTH 1000 0
DWIDTH 10 0
BBX 10 10 0 -2
BITMAP
0000
2000
7780
2200
7200
5F80
7200
2200
7200
0000
ENDCHAR

STARTCHAR Cb8af
ENCODING 47279
SWIDTH 1000 0
DWIDTH 10 0
BBX 10 10 0 -2
BITMAP
0000
4200
2F80
0A80
0F80
6500
2700
2500
5F80
0000
ENDCHAR

STARTCHAR Cb8b0
ENCODING 47280
SWIDTH 1000 0
DWIDTH 10 0
BBX 10 10 0 -2
BITMAP
0000
2200
5780
7A80
2F80
7200
2F80
2A00
7780
0000
ENDCHAR

STARTCHAR Cb8b1
ENCODING 47281
SWIDTH 1000 0
DWIDTH 10 0
BBX 10 10 0 -2
BITMAP
0000
7200
5700
6A80
5F80
4A80
7F80
4500
5880
0000
ENDCHAR

STARTCHAR Cb8b2
ENCODING 47282
SWIDTH 1000 0
DWIDTH 10 0
BBX 10 10 0 -2
BITMAP
0000
7B80
4900
4B80
7A80
2B80
6E80
3B00
6280
0000
ENDCHAR

STARTCHAR Cb8b3
ENCODING 47283
SWIDTH 1000 0
DWIDTH 10 0
BBX 10 10 0 -2
BITMAP
0000
7200
4700
6A80
4F80
7A80
1780
5500
5880
0000
ENDCHAR

STARTCHAR Cb8b4
ENCODING 47284
SWIDTH 1000 0
DWIDTH 10 0
BBX 10 10 0 -2
BITMAP
0000
3200
2500
7A80
4F80
5A80
6F80
5500
7880
0000
ENDCHAR

STARTCHAR Cb8b5
ENCODING 47285
SWIDTH 1000 0
DWIDTH 10 0
BBX 10 10 0 -2
BITMAP
0000
3F00
0000
0000
7F80
1200
1200
1280
6380
0000
ENDCHAR

STARTCHAR Cb8b6
ENCODING 47286
SWIDTH 1000 0
DWIDTH 10 0
BBX 10 10 0 -2
BITMAP
0000
3F80
2200
2F80
2880
2F80
2200
2A80
5680
0000
ENDCHAR

STARTCHAR Cb8b7
ENCODING 47287
SWIDTH 1000 0
DWIDTH 10 0
BBX 10 10 0 -2
BITMAP
0000
2900
7F80
4200
7F80
5500
5500
7A00
5580
0000
ENDCHAR

STARTCHAR Cb8b8
ENCODING 47288
SWIDTH 1000 0
DWIDTH 10 0
BBX 10 10 0 -2
BITMAP
0000
1000
2780
4880
3080
2080
4880
7880
0300
0000
ENDCHAR

STARTCHAR Cb8b9
ENCODING 47289
SWIDTH 1000 0
DWIDTH 10 0
BBX 10 10 0 -2
BITMAP
0000
7200
1F80
7200
4480
7300
1200
1480
6F80
0000
ENDCHAR

STARTCHAR Cb8ba
ENCODING 47290
SWIDTH 1000 0
DWIDTH 10 0
BBX 10 10 0 -2
BITMAP
0000
4280
3F80
5200
3E80
1500
3D00
5280
5480
0000
ENDCHAR

STARTCHAR Cb8bb
ENCODING 47291
SWIDTH 1000 0
DWIDTH 10 0
BBX 10 10 0 -2
BITMAP
0000
5F80
3200
5780
3480
1780
3200
5A80
5680
0000
ENDCHAR

STARTCHAR Cb8bc
ENCODING 47292
SWIDTH 1000 0
DWIDTH 10 0
BBX 10 10 0 -2
BITMAP
0000
0800
7F80
0800
3200
1400
0800
1100
7E80
0000
ENDCHAR

STARTCHAR Cb8bd
ENCODING 47293
SWIDTH 1000 0
DWIDTH 10 0
BBX 10 10 0 -2
BITMAP
0000
0F80
7880
2F80
7880
2F80
3500
6500
1980
0000
ENDCHAR

STARTCHAR Cb8be
ENCODING 47294
SWIDTH 1000 0
DWIDTH 10 0
BBX 10 10 0 -2
BITMAP
0000
2200
5780
2200
5480
7300
2200
7480
2F80
0000
ENDCHAR

STARTCHAR Cb8bf
ENCODING 47295
SWIDTH 1000 0
DWIDTH 10 0
BBX 10 10 0 -2
BITMAP
0000
2200
7F80
5200
5480
7300
5200
5480
5F80
0000
ENDCHAR

STARTCHAR Cb8c0
ENCODING 47296
SWIDTH 1000 0
DWIDTH 10 0
BBX 10 10 0 -2
BITMAP
0000
0800
7F80
0000
3F00
0000
3F00
2100
3F00
0000
ENDCHAR

STARTCHAR Cb8c1
ENCODING 47297
SWIDTH 1000 0
DWIDTH 10 0
BBX 10 10 0 -2
BITMAP
0000
2200
7F80
0500
6F80
0900
7A80
5100
7600
0000
ENDCHAR

STARTCHAR Cb8c2
ENCODING 47298
SWIDTH 1000 0
DWIDTH 10 0
BBX 10 10 0 -2
BITMAP
0000
7780
5480
6780
5480
5700
6580
4500
4E80
0000
ENDCHAR

STARTCHAR Cb8c3
ENCODING 47299
SWIDTH 1000 0
DWIDTH 10 0
BBX 10 10 0 -2
BITMAP
0000
0700
7800
4900
2A00
7F80
0800
0800
1800
0000
ENDCHAR

STARTCHAR Cb8c4
ENCODING 47300
SWIDTH 1000 0
DWIDTH 10 0
BBX 10 10 0 -2
BITMAP
0000
1000
1F80
2A80
2F80
6A80
2E80
2A80
2F80
0000
ENDCHAR

STARTCHAR Cb8c5
ENCODING 47301
SWIDTH 1000 0
DWIDTH 10 0
BBX 10 10 0 -2
BITMAP
0000
0800
0800
7F80
0800
3F00
2100
2100
3F00
0000
ENDCHAR

STARTCHAR Cb8c6
ENCODING 47302
SWIDTH 1000 0
DWIDTH 10 0
BBX 10 10 0 -2
BITMAP
0000
0180
7E00
5280
5280
5F80
5200
7200
0600
0000
ENDCHAR

STARTCHAR Cb8c7
ENCODING 47303
SWIDTH 1000 0
DWIDTH 10 0
BBX 10 10 0 -2
BITMAP
0000
7F80
4880
7F80
4880
5E80
5280
5280
7F80
0000
ENDCHAR

STARTCHAR Cb8c8
ENCODING 47304
SWIDTH 1000 0
DWIDTH 10 0
BBX 10 10 0 -2
BITMAP
0000
2200
2200
7F80
5200
5780
3480
2480
5780
0000
ENDCHAR

STARTCHAR Cb8c9
ENCODING 47305
SWIDTH 1000 0
DWIDTH 10 0
BBX 10 10 0 -2
BITMAP
0000
7380
1D00
2500
3500
6500
2500
2680
6C80
0000
ENDCHAR

STARTCHAR Cb8ca
ENCODING 47306
SWIDTH 1000 0
DWIDTH 10 0
BBX 10 10 0 -2
BITMAP
0000
0000
3F00
0100
0100
3F00
2080
2080
3F80
0000
ENDCHAR

STARTCHAR Cb8cb
ENCODING 47307
SWIDTH 1000 0
DWIDTH 10 0
BBX 10 10 0 -2
BITMAP
0000
0400
3F80
2200
3F80
2A80
2A80
5F80
4200
0000
ENDCHAR

STARTCHAR Cb8cc
ENCODING 47308
SWIDTH 1000 0
DWIDTH 10 0
BBX 10 10 0 -2
BITMAP
0000
7380
1D00
7500
4500
7500
1500
1680
6C80
0000
ENDCHAR

STARTCHAR Cb8cd
ENCODING 47309
SWIDTH 1000 0
DWIDTH 10 0
BBX 10 10 0 -2
BITMAP
0000
0000
7F80
0000
3F00
2100
3F00
2000
4000
0000
ENDCHAR

STARTCHAR Cb8ce
ENCODING 47310
SWIDTH 1000 0
DWIDTH 10 0
BBX 10 10 0 -2
BITMAP
0000
2400
7780
2500
7500
5A00
5200
7500
0880
0000
ENDCHAR

STARTCHAR Cb8cf
ENCODING 47311
SWIDTH 1000 0
DWIDTH 10 0
BBX 10 10 0 -2
BITMAP
0000
2200
2F80
7200
2200
6780
3480
2480
2780
0000
ENDCHAR

STARTCHAR Cb8d0
ENCODING 47312
SWIDTH 1000 0
DWIDTH 10 0
BBX 10 10 0 -2
BITMAP
0000
4B80
3E80
4B80
2A80
1F80
3280
5E80
4580
0000
ENDCHAR

STARTCHAR Cb8d1
ENCODING 47313
SWIDTH 1000 0
DWIDTH 10 0
BBX 10 10 0 -2
BITMAP
0000
5380
2D00
5500
1500
3500
5500
1680
6C80
0000
ENDCHAR

STARTCHAR Cb8d2
ENCODING 47314
SWIDTH 1000 0
DWIDTH 10 0
BBX 10 10 0 -2
BITMAP
0000
2B80
7E80
2B80
7A80
2F80
2A80
6E80
2580
0000
ENDCHAR

STARTCHAR Cb8d3
ENCODING 47315
SWIDTH 1000 0
DWIDTH 10 0
BBX 10 10 0 -2
BITMAP
0000
2200
2F80
7500
1880
2F00
7400
2700
2100
0000
ENDCHAR

STARTCHAR Cb8d4
ENCODING 47316
SWIDTH 1000 0
DWIDTH 10 0
BBX 10 10 0 -2
BITMAP
0000
7700
5500
7580
5800
7700
5500
5200
5D80
0000
ENDCHAR

STARTCHAR Cb8d5
ENCODING 47317
SWIDTH 1000 0
DWIDTH 10 0
BBX 10 10 0 -2
BITMAP
0000
2780
2480
7F80
2480
7780
5480
7480
0980
0000
ENDCHAR

STARTCHAR Cb8d6
ENCODING 47318
SWIDTH 1000 0
DWIDTH 10 0
BBX 10 10 0 -2
BITMAP
0000
7F80
1200
7080
1F00
2500
7500
2480
6E80
0000
ENDCHAR

STARTCHAR Cb8d7
ENCODING 47319
SWIDTH 1000 0
DWIDTH 10 0
BBX 10 10 0 -2
BITMAP
0000
0700
0400
3F80
2880
2E00
2000
2E80
5B80
0000
ENDCHAR

STARTCHAR Cb8d8
ENCODING 47320
SWIDTH 1000 0
DWIDTH 10 0
BBX 10 10 0 -2
BITMAP
0000
2200
7F80
0500
6880
0F00
7400
5700
7100
0000
ENDCHAR

STARTCHAR Cb8d9
ENCODING 47321
SWIDTH 1000 0
DWIDTH 10 0
BBX 10 10 0 -2
BITMAP
0000
7200
5F80
5500
7880
2F00
3400
2700
7100
0000
ENDCHAR

STARTCHAR Cb8da
ENCODING 47322
SWIDTH 1000 0
DWIDTH 10 0
BBX 10 10 0 -2
BITMAP
0000
1200
2A00
7F80
1200
7F80
1480
5C80
7780
0000
ENDCHAR

STARTCHAR Cb8db
ENCODING 47323
SWIDTH 1000 0
DWIDTH 10 0
BBX 10 10 0 -2
BITMAP
0000
0000
7F80
2100
3F00
2A00
2F00
2A00
4F80
0000
ENDCHAR

STARTCHAR Cb8dc
ENCODING 47324
SWIDTH 1000 0
DWIDTH 10 0
BBX 10 10 0 -2
BITMAP
0000
7B80
0100
7B80
4A80
7380
5A80
5300
5A80
0000
ENDCHAR

STARTCHAR Cb8dd
ENCODING 47325
SWIDTH 1000 0
DWIDTH 10 0
BBX 10 10 0 -2
BITMAP
0000
1100
7B80
1100
7F80
2A80
3900
1100
7A80
0000
ENDCHAR

STARTCHAR Cb8de
ENCODING 47326
SWIDTH 1000 0
DWIDTH 10 0
BBX 10 10 0 -2
BITMAP
0000
3F00
0800
0800
3E00
1200
1200
1200
7F80
0000
ENDCHAR

STARTCHAR Cb8df
ENCODING 47327
SWIDTH 1000 0
DWIDTH 10 0
BBX 10 10 0 -2
BITMAP
0000
3F00
1000
1E00
1200
1200
3E00
0200
7F80
0000
ENDCHAR

STARTCHAR Cb8e0
ENCODING 47328
SWIDTH 1000 0
DWIDTH 10 0
BBX 10 10 0 -2
BITMAP
0000
1000
1F80
2200
2200
6F00
2500
2500
3F80
0000
ENDCHAR

STARTCHAR Cb8e1
ENCODING 47329
SWIDTH 1000 0
DWIDTH 10 0
BBX 10 10 0 -2
BITMAP
0000
2000
3F00
4800
0800
7F80
0800
0800
0800
0000
ENDCHAR

STARTCHAR Cb8e2
ENCODING 47330
SWIDTH 1000 0
DWIDTH 10 0
BBX 10 10 0 -2
BITMAP
0000
1E00
5200
5200
7F00
0100
7F80
1200
6180
0000
ENDCHAR

STARTCHAR Cb8e3
ENCODING 47331
SWIDTH 1000 0
DWIDTH 10 0
BBX 10 10 0 -2
BITMAP
0000
3F00
0800
3E00
1200
7F80
2100
2100
3F00
0000
ENDCHAR

STARTCHAR Cb8e4
ENCODING 47332
SWIDTH 1000 0
DWIDTH 10 0
BBX 10 10 0 -2
BITMAP
0000
2700
2500
7700
5400
5700
3100
2F80
5480
0000
ENDCHAR

STARTCHAR Cb8e5
ENCODING 47333
SWIDTH 1000 0
DWIDTH 10 0
BBX 10 10 0 -2
BITMAP
0000
2200
4500
1280
2F80
6500
2D00
2200
2D80
0000
ENDCHAR

STARTCHAR Cb8e6
ENCODING 47334
SWIDTH 1000 0
DWIDTH 10 0
BBX 10 10 0 -2
BITMAP
0000
3380
5E80
2A80
6E80
2A80
2F80
3A00
2200
0000
ENDCHAR

STARTCHAR Cb8e7
ENCODING 47335
SWIDTH 1000 0
DWIDTH 10 0
BBX 10 10 0 -2
BITMAP
0000
2F00
2400
2F00
6500
3F80
2900
2900
2F00
0000
ENDCHAR

STARTCHAR Cb8e8
ENCODING 47336
SWIDTH 1000 0
DWIDTH 10 0
BBX 10 10 0 -2
BITMAP
0000
2F00
2400
7F00
2500
6F80
3900
2900
2F00
0000
ENDCHAR

STARTCHAR Cb8e9
ENCODING 47337
SWIDTH 1000 0
DWIDTH 10 0
BBX 10 10 0 -2
BITMAP
0000
2700
2A80
7700
2500
6F80
3A80
2B80
2880
0000
ENDCHAR

STARTCHAR Cb8ea
ENCODING 47338
SWIDTH 1000 0
DWIDTH 10 0
BBX 10 10 0 -2
BITMAP
0000
0B80
7E80
2B80
7A80
2F80
3A80
6E80
0580
0000
ENDCHAR

STARTCHAR Cb8eb
ENCODING 47339
SWIDTH 1000 0
DWIDTH 10 0
BBX 10 10 0 -2
BITMAP
0000
1200
3F00
1200
1E00
1200
1F80
3500
5C80
0000
ENDCHAR

STARTCHAR Cb8ec
ENCODING 47340
SWIDTH 1000 0
DWIDTH 10 0
BBX 10 10 0 -2
BITMAP
0000
2F80
7200
0F00
7500
0F80
7480
5480
7780
0000
ENDCHAR

ENDFONT
